<svg width="140" height="47" viewBox="0 0 140 47" fill="none" xmlns="http://www.w3.org/2000/svg">
<path d="M0.569 46V44.848L16.633 24.112C20.3023 19.376 22.137 15.0453 22.137 11.12C22.137 8.26133 21.369 6 19.833 4.336C18.297 2.672 16.2703 1.84 13.753 1.84C12.0037 1.84 10.2117 2.26666 8.377 3.12C6.54233 3.93067 4.89967 5.06133 3.449 6.512H3.065L2.745 3.056C4.23833 2.20266 5.945 1.54133 7.865 1.072C9.82767 0.559998 11.7903 0.303997 13.753 0.303997C17.6783 0.303997 20.8357 1.264 23.225 3.184C25.657 5.06133 26.873 7.57867 26.873 10.736C26.873 12.6987 26.2757 14.8747 25.081 17.264C23.8863 19.6107 21.817 22.4693 18.873 25.84L4.665 42.16H28.089V46H0.569ZM37.0575 23.6C37.0575 18.9067 37.6975 14.832 38.9775 11.376C40.2575 7.87733 42.0495 5.168 44.3535 3.248C46.7002 1.28533 49.4095 0.303997 52.4815 0.303997C55.5962 0.303997 58.3055 1.28533 60.6095 3.248C62.9135 5.168 64.7055 7.87733 65.9855 11.376C67.2655 14.832 67.9055 18.9067 67.9055 23.6C67.9055 28.2507 67.2655 32.3253 65.9855 35.824C64.7055 39.3227 62.9135 42.0533 60.6095 44.016C58.3055 45.936 55.5962 46.896 52.4815 46.896C49.4095 46.896 46.7002 45.936 44.3535 44.016C42.0495 42.0533 40.2575 39.3227 38.9775 35.824C37.6975 32.3253 37.0575 28.2507 37.0575 23.6ZM41.7935 23.6C41.7935 30.5547 42.7322 35.9307 44.6095 39.728C46.4868 43.4827 49.1108 45.36 52.4815 45.36C55.8948 45.36 58.5188 43.4827 60.3535 39.728C62.2308 35.9307 63.1695 30.5547 63.1695 23.6C63.1695 16.6453 62.2308 11.2907 60.3535 7.536C58.4762 3.73866 55.8522 1.84 52.4815 1.84C49.1108 1.84 46.4868 3.73866 44.6095 7.536C42.7322 11.2907 41.7935 16.6453 41.7935 23.6ZM74.319 46V44.848L90.383 24.112C94.0523 19.376 95.887 15.0453 95.887 11.12C95.887 8.26133 95.119 6 93.583 4.336C92.047 2.672 90.0203 1.84 87.503 1.84C85.7537 1.84 83.9617 2.26666 82.127 3.12C80.2923 3.93067 78.6497 5.06133 77.199 6.512H76.815L76.495 3.056C77.9883 2.20266 79.695 1.54133 81.615 1.072C83.5777 0.559998 85.5403 0.303997 87.503 0.303997C91.4283 0.303997 94.5857 1.264 96.975 3.184C99.407 5.06133 100.623 7.57867 100.623 10.736C100.623 12.6987 100.026 14.8747 98.831 17.264C97.6363 19.6107 95.567 22.4693 92.623 25.84L78.415 42.16H101.839V46H74.319ZM125.656 46.896C122.541 46.896 119.832 46.1493 117.528 44.656C115.266 43.12 113.517 40.944 112.28 38.128C111.042 35.312 110.424 31.984 110.424 28.144C110.424 24.3467 111 20.8267 112.152 17.584C113.304 14.3413 114.925 11.4827 117.016 9.008C119.149 6.53333 121.645 4.54933 124.503 3.056C127.405 1.52 130.562 0.602665 133.976 0.303997L134.104 1.456C130.477 1.88266 127.234 3.248 124.376 5.552C121.517 7.81333 119.256 10.8427 117.592 14.64C115.97 18.3947 115.16 22.7893 115.16 27.824C115.16 33.2427 116.098 37.5307 117.976 40.688C119.896 43.8027 122.456 45.36 125.656 45.36C128.344 45.36 130.52 44.2933 132.184 42.16C133.848 40.0267 134.68 37.2107 134.68 33.712C134.68 30.0853 133.848 27.2053 132.184 25.072C130.52 22.9387 128.28 21.872 125.464 21.872C123.373 21.872 121.304 22.4053 119.256 23.472L118.68 22.448C121.453 20.8693 124.248 20.08 127.064 20.08C129.538 20.08 131.693 20.6347 133.528 21.744C135.362 22.8107 136.792 24.3253 137.816 26.288C138.882 28.2507 139.416 30.5547 139.416 33.2C139.416 35.9307 138.84 38.32 137.688 40.368C136.536 42.416 134.914 44.016 132.824 45.168C130.776 46.32 128.386 46.896 125.656 46.896Z" fill="url(#paint0_linear_50_115)"/>
<defs>
<linearGradient id="paint0_linear_50_115" x1="-274" y1="24" x2="415" y2="24" gradientUnits="userSpaceOnUse">
<stop offset="0.139423" stop-color="#FEC78A"/>
<stop offset="0.307692" stop-color="#F8D2A7"/>
<stop offset="0.509615" stop-color="#FFF6E7"/>
<stop offset="0.841346" stop-color="#FEC78A"/>
</linearGradient>
</defs>
</svg>
