<svg width="283" height="92" viewBox="0 0 283 92" fill="none" xmlns="http://www.w3.org/2000/svg">
<path d="M0.543359 90L27.4434 20H33.6434L60.5434 90H53.2434L40.8434 57.2H18.1434L7.84336 90H0.543359ZM28.1434 25.2L18.8434 54.8H39.9434L28.7434 25.2H28.1434ZM75.2637 90L77.7637 18.6H78.9637L129.264 79.4H129.864L127.664 20H134.464L131.964 91.4H130.764L80.4637 30.6H79.8637L82.0637 90H75.2637ZM105.764 2.7C106.764 3.36666 107.797 4 108.864 4.6C109.997 5.13333 111.164 5.4 112.364 5.4C113.43 5.4 114.497 5.06666 115.564 4.39999C116.63 3.73333 117.864 2.46666 119.264 0.599995L120.764 1.59999C119.03 5.06666 117.43 7.46666 115.964 8.8C114.497 10.1333 112.83 10.8 110.964 10.8C109.564 10.8 108.297 10.5333 107.164 10C106.03 9.4 104.897 8.76666 103.764 8.09999C102.764 7.43333 101.697 6.83333 100.564 6.3C99.497 5.7 98.3637 5.4 97.1637 5.4C96.097 5.4 95.0303 5.73333 93.9637 6.4C92.897 7 91.6637 8.26666 90.2637 10.2L88.7637 9.2C90.497 5.73333 92.097 3.33333 93.5637 1.99999C95.0303 0.666662 96.697 -3.57628e-06 98.5637 -3.57628e-06C99.9637 -3.57628e-06 101.23 0.266664 102.364 0.799998C103.564 1.33333 104.697 1.96666 105.764 2.7ZM153.99 55C153.99 49.8667 154.89 45.1 156.69 40.7C158.557 36.2333 161.124 32.3667 164.39 29.1C167.724 25.7667 171.59 23.2 175.99 21.4C180.457 19.5333 185.257 18.6 190.39 18.6C195.524 18.6 200.29 19.5333 204.69 21.4C209.157 23.2 213.024 25.7667 216.29 29.1C219.624 32.3667 222.19 36.2333 223.99 40.7C225.857 45.1 226.79 49.8667 226.79 55C226.79 60.1333 225.857 64.9333 223.99 69.4C222.19 73.8 219.624 77.6667 216.29 81C213.024 84.2667 209.157 86.8333 204.69 88.7C200.29 90.5 195.524 91.4 190.39 91.4C185.257 91.4 180.457 90.5 175.99 88.7C171.59 86.8333 167.724 84.2667 164.39 81C161.124 77.6667 158.557 73.8 156.69 69.4C154.89 64.9333 153.99 60.1333 153.99 55ZM161.59 55C161.59 61.8 162.79 67.7667 165.19 72.9C167.59 77.9667 170.957 81.9333 175.29 84.8C179.624 87.6 184.657 89 190.39 89C196.124 89 201.157 87.6 205.49 84.8C209.824 81.9333 213.19 77.9333 215.59 72.8C217.99 67.6667 219.19 61.7333 219.19 55C219.19 48.2667 217.99 42.3667 215.59 37.3C213.19 32.1667 209.824 28.1667 205.49 25.3C201.157 22.4333 196.124 21 190.39 21C184.657 21 179.624 22.4333 175.29 25.3C171.024 28.1 167.657 32.0667 165.19 37.2C162.79 42.2667 161.59 48.2 161.59 55ZM241.66 87.8L242.26 81.8H242.86C245.46 84.0667 248.393 85.8333 251.66 87.1C254.926 88.3667 258.16 89 261.36 89C265.893 89 269.56 87.7667 272.36 85.3C275.16 82.7667 276.56 79.4 276.56 75.2C276.56 72.8667 276.026 70.7 274.96 68.7C273.96 66.7 272.26 64.6667 269.86 62.6C267.526 60.5333 264.293 58.3 260.16 55.9C257.293 54.2333 254.56 52.5 251.96 50.7C249.36 48.8333 247.226 46.7 245.56 44.3C243.893 41.8333 243.06 38.9 243.06 35.5C243.06 30.4333 244.893 26.3667 248.56 23.3C252.226 20.1667 257.06 18.6 263.06 18.6C265.726 18.6 268.593 18.9 271.66 19.5C274.726 20.0333 277.093 20.7333 278.76 21.6L278.26 27.2H277.66C273.86 23.0667 268.993 21 263.06 21C258.793 21 255.36 22.1 252.76 24.3C250.16 26.4333 248.86 29.3333 248.86 33C248.86 35.7333 249.56 38.1 250.96 40.1C252.426 42.0333 254.293 43.8 256.56 45.4C258.826 46.9333 261.26 48.4333 263.86 49.9C266.86 51.6333 269.76 53.4667 272.56 55.4C275.426 57.3333 277.76 59.6667 279.56 62.4C281.426 65.0667 282.36 68.4333 282.36 72.5C282.36 76.2333 281.493 79.5333 279.76 82.4C278.026 85.2 275.56 87.4 272.36 89C269.226 90.6 265.56 91.4 261.36 91.4C258.693 91.4 255.56 91.0667 251.96 90.4C248.36 89.7333 244.926 88.8667 241.66 87.8Z" fill="url(#paint0_linear_17_12)"/>
<defs>
<linearGradient id="paint0_linear_17_12" x1="-138" y1="55" x2="425" y2="55" gradientUnits="userSpaceOnUse">
<stop offset="0.251945" stop-color="#FEC78A"/>
<stop offset="0.401155" stop-color="#F8D2A7"/>
<stop offset="0.509615" stop-color="#FFF6E7"/>
<stop offset="0.732518" stop-color="#FEC78A"/>
</linearGradient>
</defs>
</svg>
