<svg width="466" height="117" viewBox="0 0 466 117" fill="none" xmlns="http://www.w3.org/2000/svg">
<g filter="url(#filter0_d_90_12)">
<path d="M402.11 0C428.619 0.000197915 450.11 21.4905 450.11 48V49C450.11 75.5095 428.619 96.9998 402.11 97H53.11C26.6003 97 5.10999 75.5097 5.10999 49V48C5.10999 21.4903 26.6003 0 53.11 0H402.11ZM61.0182 25.3037C57.5624 25.3037 54.3624 25.9011 51.4186 27.0957C48.4746 28.2477 45.8931 29.8693 43.6744 31.96C41.4985 34.0506 39.7916 36.5252 38.5543 39.3838C37.317 42.1997 36.6989 45.2718 36.6989 48.5996C36.6989 51.9276 37.317 55.0212 38.5543 57.8799C39.7917 60.6959 41.4984 63.1496 43.6744 65.2402C45.8931 67.3308 48.4746 68.9733 51.4186 70.168C54.3625 71.3199 57.5623 71.8965 61.0182 71.8965C62.3834 71.8965 63.9409 71.7895 65.6901 71.5762C67.4394 71.4055 69.168 71.1281 70.8746 70.7441C72.5811 70.3602 74.0316 69.9123 75.2262 69.4004L75.61 65.4961H75.2262C73.6476 66.8613 71.5998 68.0135 69.0826 68.9521C66.608 69.8908 63.9195 70.3604 61.0182 70.3604C57.1356 70.3603 53.7437 69.4638 50.8424 67.6719C47.9411 65.8372 45.6587 63.2983 43.9948 60.0557C42.3735 56.813 41.5621 52.9942 41.5621 48.5996C41.5622 44.2478 42.3735 40.4506 43.9948 37.208C45.6587 33.9227 47.9411 31.3838 50.8424 29.5918C53.7863 27.7572 57.1783 26.8399 61.0182 26.8398C63.5781 26.8398 66.0528 27.2242 68.442 27.9922C70.8314 28.7602 72.8155 29.8696 74.3942 31.3203H74.778L75.0983 27.7363C73.9463 27.267 72.5386 26.8609 70.8746 26.5195C69.2107 26.1355 67.5038 25.8374 65.7545 25.624C64.0052 25.4107 62.4262 25.3037 61.0182 25.3037ZM107.245 25.3037C103.959 25.3037 100.887 25.901 98.028 27.0957C95.2121 28.2477 92.7374 29.8911 90.6041 32.0244C88.5136 34.115 86.871 36.5897 85.6764 39.4482C84.5245 42.2641 83.9489 45.3145 83.9489 48.5996C83.9489 51.8849 84.5244 54.9577 85.6764 57.8164C86.871 60.6323 88.5135 63.107 90.6041 65.2402C92.7374 67.3308 95.2121 68.9733 98.028 70.168C100.887 71.32 103.959 71.8965 107.245 71.8965C110.53 71.8964 113.58 71.3199 116.396 70.168C119.255 68.9734 121.729 67.3307 123.82 65.2402C125.953 63.107 127.597 60.6323 128.749 57.8164C129.943 54.9577 130.541 51.8849 130.541 48.5996C130.541 45.3145 129.943 42.264 128.749 39.4482C127.597 36.5896 125.953 34.1151 123.82 32.0244C121.729 29.8911 119.255 28.2477 116.396 27.0957C113.58 25.9012 110.53 25.3038 107.245 25.3037ZM144.601 25.3037L143.001 71H147.353L145.945 32.9844H146.329L178.521 71.8965H179.289L180.889 26.2002H176.537L177.945 64.2158H177.561L145.369 25.3037H144.601ZM196.586 26.2002V71H200.938V48.792C201.621 48.792 202.943 48.8564 204.906 48.9844L214.698 49.624V46.6797L204.906 47.3203C202.943 47.4483 201.621 47.5117 200.938 47.5117V27.4805C201.578 27.4805 202.858 27.6083 204.778 27.8643L215.402 29.3359V26.2002H196.586ZM227.898 26.2002V71H232.251V26.2002H227.898ZM248.898 26.2002V71H253.251V27.7363H257.474C263.917 27.7363 267.138 30.8507 267.138 37.0801C267.138 43.3946 263.704 46.5517 256.835 46.5518H256.451V47.7041H256.835C259.778 47.7041 262.274 48.6216 264.322 50.4561C266.37 52.2907 268.013 55.4052 269.251 59.7998C270.019 62.6582 270.829 64.8982 271.682 66.5195C272.536 68.1408 273.56 69.2929 274.755 69.9756C275.992 70.6582 277.549 71 279.426 71H282.05V70.6162C280.728 70.3175 279.576 69.8262 278.594 69.1436C277.656 68.4609 276.781 67.3521 275.97 65.8164C275.202 64.2377 274.413 62.0396 273.602 59.2236C272.706 56.1518 271.362 53.571 269.57 51.4805C267.778 49.3899 265.475 48.0664 262.659 47.5117V47.1279C265.603 46.5306 267.843 45.3576 269.379 43.6084C270.957 41.8591 271.747 39.661 271.747 37.0156C271.747 33.6025 270.488 30.9573 267.97 29.0801C265.496 27.1601 261.997 26.2002 257.474 26.2002H248.898ZM290.601 25.3037L289.001 71H293.353L291.945 33.4316H292.329L309.929 59.6084H311.913L327.401 29.9121H327.785V71H332.137V26.2002H327.529L312.424 55.2559H312.041L291.88 25.3037H290.601ZM359.334 26.2002L342.118 71H346.79L353.381 50.0078H367.91L375.845 71H380.517L363.301 26.2002H359.334ZM390.898 26.2002V71H395.251V27.7363H399.474C405.917 27.7363 409.138 30.8507 409.138 37.0801C409.138 43.3946 405.704 46.5517 398.835 46.5518H398.451V47.7041H398.835C401.778 47.7041 404.274 48.6216 406.322 50.4561C408.37 52.2907 410.013 55.4052 411.251 59.7998C412.019 62.6582 412.829 64.8982 413.682 66.5195C414.536 68.1408 415.56 69.2929 416.755 69.9756C417.992 70.6582 419.549 71 421.426 71H424.05V70.6162C422.728 70.3175 421.576 69.8262 420.594 69.1436C419.656 68.4609 418.781 67.3521 417.97 65.8164C417.202 64.2377 416.413 62.0396 415.602 59.2236C414.706 56.1518 413.362 53.571 411.57 51.4805C409.778 49.3899 407.475 48.0664 404.659 47.5117V47.1279C407.603 46.5306 409.843 45.3576 411.379 43.6084C412.957 41.8591 413.747 39.661 413.747 37.0156C413.747 33.6025 412.488 30.9573 409.97 29.0801C407.496 27.1601 403.997 26.2002 399.474 26.2002H390.898ZM107.245 26.8398C110.914 26.8399 114.136 27.7572 116.909 29.5918C119.682 31.4265 121.837 33.9872 123.373 37.2725C124.908 40.5149 125.676 44.2907 125.676 48.5996C125.676 52.9089 124.909 56.7069 123.373 59.9922C121.837 63.2774 119.682 65.8372 116.909 67.6719C114.136 69.4638 110.914 70.3603 107.245 70.3604C103.575 70.3604 100.354 69.4638 97.5807 67.6719C94.8074 65.8372 92.6528 63.2983 91.1168 60.0557C89.5809 56.7704 88.8121 52.9516 88.8121 48.5996C88.8122 44.2478 89.5809 40.4506 91.1168 37.208C92.6955 33.9228 94.8501 31.3838 97.5807 29.5918C100.354 27.7573 103.576 26.8398 107.245 26.8398ZM360.166 29.5283L367.334 48.4717H353.83L359.781 29.5283H360.166Z" fill="url(#paint0_linear_90_12)"/>
</g>
<defs>
<filter id="filter0_d_90_12" x="0.109985" y="0" width="465" height="117" filterUnits="userSpaceOnUse" color-interpolation-filters="sRGB">
<feFlood flood-opacity="0" result="BackgroundImageFix"/>
<feColorMatrix in="SourceAlpha" type="matrix" values="0 0 0 0 0 0 0 0 0 0 0 0 0 0 0 0 0 0 127 0" result="hardAlpha"/>
<feOffset dx="5" dy="10"/>
<feGaussianBlur stdDeviation="5"/>
<feComposite in2="hardAlpha" operator="out"/>
<feColorMatrix type="matrix" values="0 0 0 0 0 0 0 0 0 0 0 0 0 0 0 0 0 0 1 0"/>
<feBlend mode="normal" in2="BackgroundImageFix" result="effect1_dropShadow_90_12"/>
<feBlend mode="normal" in="SourceGraphic" in2="effect1_dropShadow_90_12" result="shape"/>
</filter>
<linearGradient id="paint0_linear_90_12" x1="5.10962" y1="48.5" x2="450.11" y2="48.5" gradientUnits="userSpaceOnUse">
<stop offset="0.139423" stop-color="#FEC78A"/>
<stop offset="0.307692" stop-color="#F8D2A7"/>
<stop offset="0.509615" stop-color="#FFF6E7"/>
<stop offset="0.841346" stop-color="#FEC78A"/>
</linearGradient>
</defs>
</svg>
