<svg width="709" height="67" viewBox="0 0 709 67" fill="none" xmlns="http://www.w3.org/2000/svg">
<path d="M0.123829 2H6.24383V63.2C7.38383 63.2 9.18383 63.02 11.6438 62.66L26.5838 60.41V65H0.123829V2ZM34.006 65L58.216 2H63.796L88.006 65H81.436L70.276 35.48H49.846L40.576 65H34.006ZM58.846 6.68L50.476 33.32H69.466L59.386 6.68H58.846ZM102.604 65V2H108.724V65H102.604ZM127.636 33.5C127.636 28.88 128.446 24.59 130.066 20.63C131.746 16.61 134.056 13.13 136.996 10.19C139.996 7.19 143.476 4.88 147.436 3.26C151.456 1.58 155.776 0.739996 160.396 0.739996C165.016 0.739996 169.306 1.58 173.266 3.26C177.286 4.88 180.766 7.19 183.706 10.19C186.706 13.13 189.016 16.61 190.636 20.63C192.316 24.59 193.156 28.88 193.156 33.5C193.156 38.12 192.316 42.44 190.636 46.46C189.016 50.42 186.706 53.9 183.706 56.9C180.766 59.84 177.286 62.15 173.266 63.83C169.306 65.45 165.016 66.26 160.396 66.26C155.776 66.26 151.456 65.45 147.436 63.83C143.476 62.15 139.996 59.84 136.996 56.9C134.056 53.9 131.746 50.42 130.066 46.46C128.446 42.44 127.636 38.12 127.636 33.5ZM134.476 33.5C134.476 39.62 135.556 44.99 137.716 49.61C139.876 54.17 142.906 57.74 146.806 60.32C150.706 62.84 155.236 64.1 160.396 64.1C165.556 64.1 170.086 62.84 173.986 60.32C177.886 57.74 180.916 54.14 183.076 49.52C185.236 44.9 186.316 39.56 186.316 33.5C186.316 27.44 185.236 22.13 183.076 17.57C180.916 12.95 177.886 9.35 173.986 6.77C170.086 4.19 165.556 2.89999 160.396 2.89999C155.236 2.89999 150.706 4.19 146.806 6.77C142.966 9.29 139.936 12.86 137.716 17.48C135.556 22.04 134.476 27.38 134.476 33.5ZM210.678 65L212.928 0.739996H214.008L259.278 55.46H259.818L257.838 2H263.958L261.708 66.26H260.628L215.358 11.54H214.818L216.798 65H210.678ZM310.29 65V2H337.74V6.41L321.99 4.34C319.23 3.98 317.37 3.8 316.41 3.8V31.25C317.19 31.25 319.05 31.16 321.99 30.98L336.75 30.08V34.22L321.99 33.32C319.05 33.14 317.19 33.05 316.41 33.05V63.2C317.49 63.2 319.38 63.02 322.08 62.66L338.01 60.59V65H310.29ZM348.052 2H354.802L379.372 57.98H379.912L400.522 2H407.272L378.652 66.26H376.672L348.052 2ZM421.296 65V2H448.746V6.41L432.996 4.34C430.236 3.98 428.376 3.8 427.416 3.8V31.25C428.196 31.25 430.056 31.16 432.996 30.98L447.756 30.08V34.22L432.996 33.32C430.056 33.14 428.196 33.05 427.416 33.05V63.2C428.496 63.2 430.386 63.02 433.086 62.66L449.016 60.59V65H421.296ZM466.528 65L468.778 0.739996H469.858L515.128 55.46H515.668L513.688 2H519.808L517.558 66.26H516.478L471.208 11.54H470.668L472.648 65H466.528ZM556.282 65V3.8C555.382 3.8 553.522 3.98 550.702 4.34L533.062 6.59V2H585.622V6.59L567.982 4.34C565.162 3.98 563.302 3.8 562.402 3.8V65H556.282ZM593.016 33.5C593.016 28.88 593.826 24.59 595.446 20.63C597.126 16.61 599.436 13.13 602.376 10.19C605.376 7.19 608.856 4.88 612.816 3.26C616.836 1.58 621.156 0.739996 625.776 0.739996C630.396 0.739996 634.686 1.58 638.646 3.26C642.666 4.88 646.146 7.19 649.086 10.19C652.086 13.13 654.396 16.61 656.016 20.63C657.696 24.59 658.536 28.88 658.536 33.5C658.536 38.12 657.696 42.44 656.016 46.46C654.396 50.42 652.086 53.9 649.086 56.9C646.146 59.84 642.666 62.15 638.646 63.83C634.686 65.45 630.396 66.26 625.776 66.26C621.156 66.26 616.836 65.45 612.816 63.83C608.856 62.15 605.376 59.84 602.376 56.9C599.436 53.9 597.126 50.42 595.446 46.46C593.826 42.44 593.016 38.12 593.016 33.5ZM599.856 33.5C599.856 39.62 600.936 44.99 603.096 49.61C605.256 54.17 608.286 57.74 612.186 60.32C616.086 62.84 620.616 64.1 625.776 64.1C630.936 64.1 635.466 62.84 639.366 60.32C643.266 57.74 646.296 54.14 648.456 49.52C650.616 44.9 651.696 39.56 651.696 33.5C651.696 27.44 650.616 22.13 648.456 17.57C646.296 12.95 643.266 9.35 639.366 6.77C635.466 4.19 630.936 2.89999 625.776 2.89999C620.616 2.89999 616.086 4.19 612.186 6.77C608.346 9.29 605.316 12.86 603.096 17.48C600.936 22.04 599.856 27.38 599.856 33.5ZM671.919 63.02L672.459 57.62H672.999C675.339 59.66 677.979 61.25 680.919 62.39C683.859 63.53 686.769 64.1 689.649 64.1C693.729 64.1 697.029 62.99 699.549 60.77C702.069 58.49 703.329 55.46 703.329 51.68C703.329 49.58 702.849 47.63 701.889 45.83C700.989 44.03 699.459 42.2 697.299 40.34C695.199 38.48 692.289 36.47 688.569 34.31C685.989 32.81 683.529 31.25 681.189 29.63C678.849 27.95 676.929 26.03 675.429 23.87C673.929 21.65 673.179 19.01 673.179 15.95C673.179 11.39 674.829 7.73 678.129 4.97C681.429 2.15 685.779 0.739996 691.179 0.739996C693.579 0.739996 696.159 1.01 698.919 1.55C701.679 2.03 703.809 2.66 705.309 3.44L704.859 8.48H704.319C700.899 4.76 696.519 2.89999 691.179 2.89999C687.339 2.89999 684.249 3.89 681.909 5.87C679.569 7.79 678.399 10.4 678.399 13.7C678.399 16.16 679.029 18.29 680.289 20.09C681.609 21.83 683.289 23.42 685.329 24.86C687.369 26.24 689.559 27.59 691.899 28.91C694.599 30.47 697.209 32.12 699.729 33.86C702.309 35.6 704.409 37.7 706.029 40.16C707.709 42.56 708.549 45.59 708.549 49.25C708.549 52.61 707.769 55.58 706.209 58.16C704.649 60.68 702.429 62.66 699.549 64.1C696.729 65.54 693.429 66.26 689.649 66.26C687.249 66.26 684.429 65.96 681.189 65.36C677.949 64.76 674.859 63.98 671.919 63.02Z" fill="url(#paint0_linear_50_118)"/>
<defs>
<linearGradient id="paint0_linear_50_118" x1="-151" y1="33" x2="854" y2="33" gradientUnits="userSpaceOnUse">
<stop offset="0.139423" stop-color="#FEC78A"/>
<stop offset="0.307692" stop-color="#F8D2A7"/>
<stop offset="0.509615" stop-color="#FFF6E7"/>
<stop offset="0.841346" stop-color="#FEC78A"/>
</linearGradient>
</defs>
</svg>
