<svg width="681" height="111" viewBox="0 0 681 111" fill="none" xmlns="http://www.w3.org/2000/svg">
<path d="M101.324 2.99999V108H91.124V11.7H90.224L53.924 81.3H49.274L8.024 19.95H7.124L10.424 108H0.223999L3.974 0.899993H6.974L54.224 71.1H55.124L90.524 2.99999H101.324ZM124.716 108L165.066 2.99999H174.366L214.716 108H203.766L185.166 58.8H151.116L135.666 108H124.716ZM166.116 10.8L152.166 55.2H183.816L167.016 10.8H166.116ZM239.046 2.99999H259.146C269.746 2.99999 277.946 5.24999 283.746 9.75C289.646 14.15 292.596 20.35 292.596 28.35C292.596 34.55 290.746 39.7 287.046 43.8C283.446 47.9 278.196 50.65 271.296 52.05V52.95C277.896 54.25 283.296 57.35 287.496 62.25C291.696 67.15 294.846 73.2 296.946 80.4C298.846 87 300.696 92.15 302.496 95.85C304.396 99.45 306.446 102.05 308.646 103.65C310.946 105.25 313.646 106.4 316.746 107.1V108H310.596C306.196 108 302.546 107.2 299.646 105.6C296.846 104 294.446 101.3 292.446 97.5C290.446 93.7 288.546 88.45 286.746 81.75C283.846 71.45 279.996 64.15 275.196 59.85C270.396 55.55 264.546 53.4 257.646 53.4H256.746V50.7H257.646C273.746 50.7 281.796 43.3 281.796 28.5C281.796 13.9 274.246 6.59999 259.146 6.59999H249.246V108H239.046V2.99999ZM335.287 108V2.99999H345.487V108H335.287ZM368.905 108L409.255 2.99999H418.555L458.905 108H447.955L429.355 58.8H395.305L379.855 108H368.905ZM410.305 10.8L396.355 55.2H428.005L411.205 10.8H410.305ZM480.986 108L484.736 0.899993H486.536L561.986 92.1H562.886L559.586 2.99999H569.786L566.036 110.1H564.236L488.786 18.9H487.886L491.186 108H480.986ZM590.976 108L631.326 2.99999H640.626L680.976 108H670.026L651.426 58.8H617.376L601.926 108H590.976ZM632.376 10.8L618.426 55.2H650.076L633.276 10.8H632.376Z" fill="url(#paint0_linear_2_14)"/>
<defs>
<linearGradient id="paint0_linear_2_14" x1="-108.11" y1="55" x2="776.89" y2="55" gradientUnits="userSpaceOnUse">
<stop offset="0.139423" stop-color="#FEC78A"/>
<stop offset="0.307692" stop-color="#F8D2A7"/>
<stop offset="0.509615" stop-color="#FFF6E7"/>
<stop offset="0.841346" stop-color="#FEC78A"/>
</linearGradient>
</defs>
</svg>
