<svg width="293" height="15" viewBox="0 0 293 15" fill="none" xmlns="http://www.w3.org/2000/svg">
<path d="M0 8C1.95 8.04167 3.9 8.08333 5.85 8.125C40.95 8.875 76.05 9.62501 111.15 10.375C113.1 10.4167 115.05 10.4583 117 10.5C117 8.83334 117 7.16668 117 5.50001C115.05 5.54168 113.1 5.58334 111.15 5.62501C76.05 6.37501 40.95 7.125 5.85 7.875C3.9 7.91667 1.95 7.95833 0 8Z" fill="#FFF7CB"/>
<path d="M176 5.5C176 7.16667 176 8.83333 176 10.5C177.95 10.4583 179.9 10.4167 181.85 10.375C216.95 9.625 252.05 8.87501 287.15 8.12501C289.1 8.08334 291.05 8.04168 293 8.00001C291.05 7.95834 289.1 7.91668 287.15 7.87501C252.05 7.12501 216.95 6.375 181.85 5.625C179.9 5.58333 177.95 5.54167 176 5.5Z" fill="#FFF7CB"/>
<circle cx="146.5" cy="7.5" r="7.5" fill="#FFF7CB"/>
</svg>
