<svg width="579" height="71" viewBox="0 0 579 71" fill="none" xmlns="http://www.w3.org/2000/svg">
<path d="M15.086 69V7.368L1.166 13.896L0.398 12.36L19.694 0.455996H21.614V69H15.086ZM37.3265 7.56V1.8H78.6065V3.72L52.7825 69H45.6785L74.3825 7.56H37.3265ZM121.73 69V1.8H142.85C150.274 1.8 156.738 3.208 162.242 6.024C167.746 8.84 172.034 12.776 175.106 17.832C178.178 22.824 179.714 28.68 179.714 35.4C179.714 42.12 178.178 48.008 175.106 53.064C172.034 58.056 167.746 61.96 162.242 64.776C156.738 67.592 150.274 69 142.85 69H121.73ZM142.85 4.10399H128.258V66.696H142.85C152.13 66.696 159.362 63.944 164.546 58.44C169.794 52.936 172.418 45.256 172.418 35.4C172.418 25.544 169.794 17.864 164.546 12.36C159.362 6.856 152.13 4.10399 142.85 4.10399ZM199.918 69V1.8H229.198V6.504L212.398 4.296C209.454 3.912 207.47 3.72 206.446 3.72V33C207.278 33 209.262 32.904 212.398 32.712L228.142 31.752V36.168L212.398 35.208C209.262 35.016 207.278 34.92 206.446 34.92V67.08C207.598 67.08 209.614 66.888 212.494 66.504L229.486 64.296V69H199.918ZM275.48 69V1.8H304.76V6.504L287.96 4.296C285.016 3.912 283.032 3.72 282.008 3.72V33C282.84 33 284.824 32.904 287.96 32.712L303.704 31.752V36.168L287.96 35.208C284.824 35.016 282.84 34.92 282.008 34.92V67.08C283.16 67.08 285.176 66.888 288.056 66.504L305.048 64.296V69H275.48ZM323.728 69L326.128 0.455996H327.28L375.568 58.824H376.144L374.032 1.8H380.56L378.16 70.344H377.008L328.72 11.976H328.144L330.256 69H323.728ZM404.105 69V1.8H433.385V6.504L416.585 4.296C413.641 3.912 411.657 3.72 410.633 3.72V33C411.465 33 413.449 32.904 416.585 32.712L432.329 31.752V36.168L416.585 35.208C413.449 35.016 411.465 34.92 410.633 34.92V67.08C411.785 67.08 413.801 66.888 416.681 66.504L433.673 64.296V69H404.105ZM453.793 1.8H466.656C473.441 1.8 478.689 3.24 482.401 6.12C486.177 8.936 488.065 12.904 488.065 18.024C488.065 21.992 486.881 25.288 484.513 27.912C482.209 30.536 478.849 32.296 474.433 33.192V33.768C478.657 34.6 482.113 36.584 484.801 39.72C487.489 42.856 489.505 46.728 490.849 51.336C492.065 55.56 493.249 58.856 494.401 61.224C495.617 63.528 496.929 65.192 498.337 66.216C499.809 67.24 501.537 67.976 503.521 68.424V69H499.585C496.769 69 494.433 68.488 492.577 67.464C490.785 66.44 489.249 64.712 487.969 62.28C486.689 59.848 485.473 56.488 484.321 52.2C482.465 45.608 480.001 40.936 476.929 38.184C473.857 35.432 470.113 34.056 465.697 34.056H465.121V32.328H465.697C476.001 32.328 481.153 27.592 481.153 18.12C481.153 8.776 476.321 4.10399 466.656 4.10399H460.321V69H453.793V1.8ZM508.711 35.4C508.711 30.472 509.575 25.896 511.303 21.672C513.095 17.384 515.559 13.672 518.695 10.536C521.895 7.336 525.607 4.872 529.831 3.144C534.119 1.352 538.727 0.455996 543.655 0.455996C548.583 0.455996 553.159 1.352 557.383 3.144C561.671 4.872 565.383 7.336 568.519 10.536C571.719 13.672 574.183 17.384 575.911 21.672C577.703 25.896 578.599 30.472 578.599 35.4C578.599 40.328 577.703 44.936 575.911 49.224C574.183 53.448 571.719 57.16 568.519 60.36C565.383 63.496 561.671 65.96 557.383 67.752C553.159 69.48 548.583 70.344 543.655 70.344C538.727 70.344 534.119 69.48 529.831 67.752C525.607 65.96 521.895 63.496 518.695 60.36C515.559 57.16 513.095 53.448 511.303 49.224C509.575 44.936 508.711 40.328 508.711 35.4ZM516.007 35.4C516.007 41.928 517.159 47.656 519.463 52.584C521.767 57.448 524.999 61.256 529.159 64.008C533.319 66.696 538.151 68.04 543.655 68.04C549.159 68.04 553.991 66.696 558.151 64.008C562.311 61.256 565.543 57.416 567.847 52.488C570.151 47.56 571.303 41.864 571.303 35.4C571.303 28.936 570.151 23.272 567.847 18.408C565.543 13.48 562.311 9.64 558.151 6.888C553.991 4.136 549.159 2.75999 543.655 2.75999C538.151 2.75999 533.319 4.136 529.159 6.888C525.063 9.576 521.831 13.384 519.463 18.312C517.159 23.176 516.007 28.872 516.007 35.4Z" fill="url(#paint0_linear_50_117)"/>
<defs>
<linearGradient id="paint0_linear_50_117" x1="-53" y1="35.5" x2="636" y2="35.5" gradientUnits="userSpaceOnUse">
<stop offset="0.139423" stop-color="#FEC78A"/>
<stop offset="0.307692" stop-color="#F8D2A7"/>
<stop offset="0.509615" stop-color="#FFF6E7"/>
<stop offset="0.841346" stop-color="#FEC78A"/>
</linearGradient>
</defs>
</svg>
