<svg width="367" height="74" viewBox="0 0 367 74" fill="none" xmlns="http://www.w3.org/2000/svg">
<path d="M0.933203 8V2H43.9332V4L17.0332 72H9.6332L39.5332 8H0.933203ZM56.9004 67.8C56.9004 66.2667 57.4004 65.0333 58.4004 64.1C59.4004 63.1 60.6337 62.6 62.1004 62.6C63.6337 62.6 64.8671 63.1 65.8004 64.1C66.8004 65.0333 67.3004 66.2667 67.3004 67.8C67.3004 69.2667 66.8004 70.5 65.8004 71.5C64.8671 72.5 63.6337 73 62.1004 73C60.6337 73 59.4004 72.5 58.4004 71.5C57.4004 70.5 56.9004 69.2667 56.9004 67.8ZM56.9004 28C56.9004 26.4667 57.4004 25.2333 58.4004 24.3C59.4004 23.3 60.6337 22.8 62.1004 22.8C63.6337 22.8 64.8671 23.3 65.8004 24.3C66.8004 25.2333 67.3004 26.4667 67.3004 28C67.3004 29.4667 66.8004 30.7 65.8004 31.7C64.8671 32.7 63.6337 33.2 62.1004 33.2C60.6337 33.2 59.4004 32.7 58.4004 31.7C57.4004 30.7 56.9004 29.4667 56.9004 28ZM83.2676 37C83.2676 29.6667 84.2676 23.3 86.2676 17.9C88.2676 12.4333 91.0676 8.2 94.6676 5.2C98.3342 2.13333 102.568 0.599995 107.368 0.599995C112.234 0.599995 116.468 2.13333 120.068 5.2C123.668 8.2 126.468 12.4333 128.468 17.9C130.468 23.3 131.468 29.6667 131.468 37C131.468 44.2667 130.468 50.6333 128.468 56.1C126.468 61.5667 123.668 65.8333 120.068 68.9C116.468 71.9 112.234 73.4 107.368 73.4C102.568 73.4 98.3342 71.9 94.6676 68.9C91.0676 65.8333 88.2676 61.5667 86.2676 56.1C84.2676 50.6333 83.2676 44.2667 83.2676 37ZM90.6676 37C90.6676 47.8667 92.1342 56.2667 95.0676 62.2C98.0009 68.0667 102.101 71 107.368 71C112.701 71 116.801 68.0667 119.668 62.2C122.601 56.2667 124.068 47.8667 124.068 37C124.068 26.1333 122.601 17.7667 119.668 11.9C116.734 5.96666 112.634 2.99999 107.368 2.99999C102.101 2.99999 98.0009 5.96666 95.0676 11.9C92.1342 17.7667 90.6676 26.1333 90.6676 37ZM147.428 37C147.428 29.6667 148.428 23.3 150.428 17.9C152.428 12.4333 155.228 8.2 158.828 5.2C162.494 2.13333 166.728 0.599995 171.528 0.599995C176.394 0.599995 180.628 2.13333 184.228 5.2C187.828 8.2 190.628 12.4333 192.628 17.9C194.628 23.3 195.628 29.6667 195.628 37C195.628 44.2667 194.628 50.6333 192.628 56.1C190.628 61.5667 187.828 65.8333 184.228 68.9C180.628 71.9 176.394 73.4 171.528 73.4C166.728 73.4 162.494 71.9 158.828 68.9C155.228 65.8333 152.428 61.5667 150.428 56.1C148.428 50.6333 147.428 44.2667 147.428 37ZM154.828 37C154.828 47.8667 156.294 56.2667 159.228 62.2C162.161 68.0667 166.261 71 171.528 71C176.861 71 180.961 68.0667 183.828 62.2C186.761 56.2667 188.228 47.8667 188.228 37C188.228 26.1333 186.761 17.7667 183.828 11.9C180.894 5.96666 176.794 2.99999 171.528 2.99999C166.261 2.99999 162.161 5.96666 159.228 11.9C156.294 17.7667 154.828 26.1333 154.828 37ZM243.541 72V2H256.041C264.108 2 270.374 3.73333 274.841 7.2C279.308 10.6 281.541 15.3667 281.541 21.5C281.541 27.6333 279.308 32.4333 274.841 35.9C270.374 39.3 264.108 41 256.041 41H250.341V72H243.541ZM256.041 4.39999H250.341V38.6H256.041C268.241 38.6 274.341 32.9 274.341 21.5C274.341 10.1 268.241 4.39999 256.041 4.39999ZM366.472 2V72H359.672V7.8H359.072L334.872 54.2H331.772L304.272 13.3H303.672L305.872 72H299.072L301.572 0.599995H303.572L335.072 47.4H335.672L359.272 2H366.472Z" fill="url(#paint0_linear_50_119)"/>
<defs>
<linearGradient id="paint0_linear_50_119" x1="-314" y1="37" x2="691" y2="37" gradientUnits="userSpaceOnUse">
<stop offset="0.139423" stop-color="#FEC78A"/>
<stop offset="0.307692" stop-color="#F8D2A7"/>
<stop offset="0.509615" stop-color="#FFF6E7"/>
<stop offset="0.841346" stop-color="#FEC78A"/>
</linearGradient>
</defs>
</svg>
