<svg width="542" height="117" viewBox="0 0 542 117" fill="none" xmlns="http://www.w3.org/2000/svg">
<g filter="url(#filter0_d_92_138)">
<path d="M478.11 0C504.62 0 526.11 21.4903 526.11 48V49C526.11 75.5097 504.62 97 478.11 97H53.11C26.6003 97 5.10999 75.5097 5.10999 49V48C5.10999 21.4903 26.6003 0 53.11 0H478.11ZM61.7994 25.3037C58.3436 25.3037 55.1437 25.9011 52.1998 27.0957C49.2559 28.2477 46.6743 29.8693 44.4557 31.96C42.2797 34.0506 40.5729 36.5252 39.3356 39.3838C38.0983 42.1997 37.4802 45.2718 37.4801 48.5996C37.4801 51.9276 38.0983 55.0212 39.3356 57.8799C40.5729 60.6959 42.2797 63.1496 44.4557 65.2402C46.6743 67.3308 49.2559 68.9733 52.1998 70.168C55.1437 71.3199 58.3436 71.8965 61.7994 71.8965C63.1647 71.8965 64.7221 71.7895 66.4713 71.5762C68.2206 71.4055 69.9492 71.1281 71.6559 70.7441C73.3623 70.3602 74.8129 69.9123 76.0074 69.4004L76.3912 65.4961H76.0074C74.4288 66.8613 72.3811 68.0135 69.8639 68.9521C67.3892 69.8908 64.7008 70.3604 61.7994 70.3604C57.9168 70.3603 54.5249 69.4638 51.6237 67.6719C48.7223 65.8372 46.44 63.2983 44.776 60.0557C43.1547 56.813 42.3434 52.9942 42.3434 48.5996C42.3434 44.2478 43.1547 40.4506 44.776 37.208C46.44 33.9227 48.7224 31.3838 51.6237 29.5918C54.5676 27.7572 57.9596 26.8399 61.7994 26.8398C64.3593 26.8398 66.834 27.2242 69.2233 27.9922C71.6126 28.7602 73.5967 29.8696 75.1754 31.3203H75.5592L75.8795 27.7363C74.7276 27.267 73.3198 26.8609 71.6559 26.5195C69.9919 26.1355 68.285 25.8374 66.5358 25.624C64.7864 25.4107 63.2074 25.3037 61.7994 25.3037ZM108.026 25.3037C104.741 25.3037 101.668 25.901 98.8092 27.0957C95.9933 28.2477 93.5186 29.8911 91.3854 32.0244C89.2949 34.115 87.6522 36.5897 86.4576 39.4482C85.3057 42.2641 84.7301 45.3145 84.7301 48.5996C84.7301 51.8849 85.3056 54.9577 86.4576 57.8164C87.6523 60.6323 89.2948 63.107 91.3854 65.2402C93.5186 67.3308 95.9934 68.9733 98.8092 70.168C101.668 71.32 104.741 71.8965 108.026 71.8965C111.311 71.8964 114.362 71.3199 117.177 70.168C120.036 68.9734 122.511 67.3307 124.601 65.2402C126.734 63.107 128.378 60.6323 129.53 57.8164C130.725 54.9577 131.322 51.8849 131.322 48.5996C131.322 45.3145 130.724 42.264 129.53 39.4482C128.378 36.5896 126.735 34.1151 124.601 32.0244C122.511 29.8911 120.036 28.2477 117.177 27.0957C114.362 25.9012 111.311 25.3038 108.026 25.3037ZM223.651 25.3037C220.366 25.3037 217.293 25.901 214.434 27.0957C211.618 28.2477 209.144 29.8911 207.01 32.0244C204.92 34.115 203.277 36.5897 202.083 39.4482C200.931 42.2641 200.355 45.3145 200.355 48.5996C200.355 51.8849 200.931 54.9577 202.083 57.8164C203.277 60.6323 204.92 63.107 207.01 65.2402C209.144 67.3308 211.618 68.9733 214.434 70.168C217.293 71.32 220.366 71.8965 223.651 71.8965C226.936 71.8964 229.987 71.3199 232.802 70.168C235.661 68.9734 238.136 67.3307 240.226 65.2402C242.359 63.107 244.003 60.6323 245.155 57.8164C246.35 54.9577 246.947 51.8849 246.947 48.5996C246.947 45.3145 246.349 42.264 245.155 39.4482C244.003 36.5896 242.36 34.1151 240.226 32.0244C238.136 29.8911 235.661 28.2477 232.802 27.0957C229.987 25.9012 226.936 25.3038 223.651 25.3037ZM391.566 25.3037C387.982 25.3037 384.675 25.9011 381.646 27.0957C378.617 28.2477 375.972 29.8911 373.711 32.0244C371.449 34.115 369.678 36.5679 368.398 39.3838C367.161 42.1997 366.543 45.2718 366.543 48.5996C366.543 51.9276 367.161 55.0004 368.398 57.8164C369.678 60.6323 371.449 63.107 373.711 65.2402C375.972 67.3307 378.617 68.9734 381.646 70.168C384.675 71.32 387.982 71.8965 391.566 71.8965C395.065 71.8965 398.222 71.3416 401.038 70.2324C403.896 69.1231 406.307 67.5867 408.27 65.624V48.2158H392.078V49.752H403.919V66.3916C402.383 67.6716 400.547 68.6533 398.414 69.3359C396.323 70.0185 394.041 70.3604 391.566 70.3604C387.555 70.3603 384.036 69.4638 381.006 67.6719C377.977 65.8372 375.609 63.2983 373.902 60.0557C372.238 56.7704 371.406 52.9515 371.406 48.5996C371.406 44.2478 372.238 40.4506 373.902 37.208C375.609 33.9227 377.977 31.3838 381.006 29.5918C384.036 27.7573 387.556 26.8399 391.566 26.8398C394.254 26.8398 396.793 27.2242 399.182 27.9922C401.571 28.7601 403.619 29.8906 405.326 31.3838H405.711L406.03 27.7998C404.878 27.2879 403.47 26.8608 401.806 26.5195C400.142 26.1355 398.393 25.8374 396.558 25.624C394.766 25.4107 393.102 25.3037 391.566 25.3037ZM145.382 25.3037L143.782 71H148.134L146.726 33.4316H147.11L164.711 59.6084H166.694L182.182 29.9121H182.566V71H186.919V26.2002H182.31L167.206 55.2559H166.822L146.662 25.3037H145.382ZM277.617 26.2002V71H296.433V67.7363L285.809 69.3359C284.06 69.5919 282.78 69.7197 281.969 69.7197V26.2002H277.617ZM307.117 26.2002V71H325.933V67.7363L315.309 69.3359C313.56 69.5919 312.28 69.7197 311.469 69.7197V26.2002H307.117ZM336.617 26.2002V71H356.329V67.8643L345.002 69.3359C343.082 69.5919 341.737 69.7197 340.969 69.7197V48.2803C341.524 48.2803 342.847 48.3437 344.937 48.4717L355.433 49.1123V46.168L344.937 46.8076C342.847 46.9356 341.524 47 340.969 47V27.4805C341.652 27.4805 342.975 27.6083 344.937 27.8643L356.137 29.3359V26.2002H336.617ZM433.552 26.2002L416.337 71H421.008L427.6 50.0078H442.129L450.064 71H454.736L437.52 26.2002H433.552ZM465.117 26.2002V71H469.469V27.7363H473.693C480.136 27.7363 483.357 30.8507 483.357 37.0801C483.357 43.3946 479.922 46.5517 473.053 46.5518H472.67V47.7041H473.053C475.997 47.7041 478.493 48.6216 480.541 50.4561C482.589 52.2907 484.232 55.4052 485.469 59.7998C486.237 62.6582 487.048 64.8982 487.901 66.5195C488.754 68.1408 489.779 69.2929 490.973 69.9756C492.211 70.6582 493.768 71 495.645 71H498.269V70.6162C496.947 70.3175 495.794 69.8262 494.813 69.1436C493.875 68.4609 493 67.3521 492.189 65.8164C491.421 64.2377 490.632 62.0396 489.821 59.2236C488.925 56.1518 487.581 53.571 485.789 51.4805C483.997 49.3899 481.693 48.0664 478.878 47.5117V47.1279C481.821 46.5306 484.061 45.3576 485.597 43.6084C487.176 41.8591 487.965 39.661 487.965 37.0156C487.965 33.6025 486.706 30.9573 484.189 29.0801C481.714 27.1601 478.216 26.2002 473.693 26.2002H465.117ZM108.026 26.8398C111.695 26.8399 114.917 27.7572 117.69 29.5918C120.463 31.4265 122.618 33.9872 124.154 37.2725C125.69 40.5149 126.458 44.2907 126.458 48.5996C126.458 52.9089 125.69 56.7069 124.154 59.9922C122.618 63.2774 120.463 65.8372 117.69 67.6719C114.917 69.4638 111.695 70.3603 108.026 70.3604C104.357 70.3604 101.135 69.4638 98.3619 67.6719C95.5886 65.8372 93.4341 63.2983 91.8981 60.0557C90.3621 56.7704 89.5934 52.9516 89.5934 48.5996C89.5934 44.2478 90.3621 40.4506 91.8981 37.208C93.4767 33.9228 95.6313 31.3838 98.3619 29.5918C101.135 27.7573 104.357 26.8398 108.026 26.8398ZM223.651 26.8398C227.32 26.8399 230.542 27.7572 233.315 29.5918C236.088 31.4265 238.243 33.9872 239.779 37.2725C241.315 40.5149 242.083 44.2907 242.083 48.5996C242.083 52.9089 241.315 56.7069 239.779 59.9922C238.243 63.2774 236.088 65.8372 233.315 67.6719C230.542 69.4638 227.32 70.3603 223.651 70.3604C219.982 70.3604 216.76 69.4638 213.987 67.6719C211.214 65.8372 209.059 63.2983 207.523 60.0557C205.987 56.7704 205.218 52.9516 205.218 48.5996C205.218 44.2478 205.987 40.4506 207.523 37.208C209.102 33.9228 211.256 31.3838 213.987 29.5918C216.76 27.7573 219.982 26.8398 223.651 26.8398ZM434.384 29.5283L441.552 48.4717H428.048L434 29.5283H434.384ZM110.33 13.5918L104.122 21.4004L104.954 22.168L116.089 13.9756V13.5918H110.33Z" fill="url(#paint0_linear_92_138)"/>
</g>
<defs>
<filter id="filter0_d_92_138" x="0.109985" y="0" width="541" height="117" filterUnits="userSpaceOnUse" color-interpolation-filters="sRGB">
<feFlood flood-opacity="0" result="BackgroundImageFix"/>
<feColorMatrix in="SourceAlpha" type="matrix" values="0 0 0 0 0 0 0 0 0 0 0 0 0 0 0 0 0 0 127 0" result="hardAlpha"/>
<feOffset dx="5" dy="10"/>
<feGaussianBlur stdDeviation="5"/>
<feComposite in2="hardAlpha" operator="out"/>
<feColorMatrix type="matrix" values="0 0 0 0 0 0 0 0 0 0 0 0 0 0 0 0 0 0 1 0"/>
<feBlend mode="normal" in2="BackgroundImageFix" result="effect1_dropShadow_92_138"/>
<feBlend mode="normal" in="SourceGraphic" in2="effect1_dropShadow_92_138" result="shape"/>
</filter>
<linearGradient id="paint0_linear_92_138" x1="5.10956" y1="48.5" x2="526.11" y2="48.5" gradientUnits="userSpaceOnUse">
<stop offset="0.139423" stop-color="#FEC78A"/>
<stop offset="0.307692" stop-color="#F8D2A7"/>
<stop offset="0.509615" stop-color="#FFF6E7"/>
<stop offset="0.841346" stop-color="#FEC78A"/>
</linearGradient>
</defs>
</svg>
