<svg width="571" height="200" viewBox="0 0 571 200" fill="none" xmlns="http://www.w3.org/2000/svg">
<path d="M59.2355 78.744L58.6595 84.6C56.8675 85.368 54.6915 86.04 52.1315 86.616C49.5715 87.192 46.9795 87.608 44.3555 87.864C41.7315 88.184 39.3955 88.344 37.3475 88.344C32.1635 88.344 27.3635 87.48 22.9475 85.752C18.5315 83.96 14.6595 81.496 11.3315 78.36C8.0675 75.224 5.5075 71.544 3.6515 67.32C1.7955 63.032 0.867501 58.392 0.867501 53.4C0.867501 48.408 1.7955 43.8 3.6515 39.576C5.5075 35.288 8.0675 31.576 11.3315 28.44C14.6595 25.304 18.5315 22.872 22.9475 21.144C27.3635 19.352 32.1635 18.456 37.3475 18.456C39.4595 18.456 41.8275 18.616 44.4515 18.936C47.0755 19.256 49.6355 19.704 52.1315 20.28C54.6275 20.792 56.7395 21.4 58.4675 22.104L57.9875 27.48H57.4115C55.0435 25.304 52.0675 23.64 48.4835 22.488C44.8995 21.336 41.1875 20.76 37.3475 20.76C31.5875 20.76 26.4995 22.136 22.0835 24.888C17.7315 27.576 14.3075 31.384 11.8115 36.312C9.3795 41.176 8.1635 46.872 8.1635 53.4C8.1635 59.992 9.3795 65.72 11.8115 70.584C14.3075 75.448 17.7315 79.256 22.0835 82.008C26.4355 84.696 31.5235 86.04 37.3475 86.04C41.6995 86.04 45.7315 85.336 49.4435 83.928C53.2195 82.52 56.2915 80.792 58.6595 78.744H59.2355ZM71.7425 53.4C71.7425 48.472 72.6065 43.896 74.3345 39.672C76.1265 35.384 78.5905 31.672 81.7265 28.536C84.9265 25.336 88.6385 22.872 92.8625 21.144C97.1505 19.352 101.759 18.456 106.687 18.456C111.615 18.456 116.191 19.352 120.415 21.144C124.703 22.872 128.415 25.336 131.551 28.536C134.751 31.672 137.215 35.384 138.943 39.672C140.735 43.896 141.631 48.472 141.631 53.4C141.631 58.328 140.735 62.936 138.943 67.224C137.215 71.448 134.751 75.16 131.551 78.36C128.415 81.496 124.703 83.96 120.415 85.752C116.191 87.48 111.615 88.344 106.687 88.344C101.759 88.344 97.1505 87.48 92.8625 85.752C88.6385 83.96 84.9265 81.496 81.7265 78.36C78.5905 75.16 76.1265 71.448 74.3345 67.224C72.6065 62.936 71.7425 58.328 71.7425 53.4ZM79.0385 53.4C79.0385 59.928 80.1905 65.656 82.4945 70.584C84.7985 75.448 88.0305 79.256 92.1905 82.008C96.3505 84.696 101.183 86.04 106.687 86.04C112.191 86.04 117.023 84.696 121.183 82.008C125.343 79.256 128.575 75.416 130.879 70.488C133.183 65.56 134.335 59.864 134.335 53.4C134.335 46.936 133.183 41.272 130.879 36.408C128.575 31.48 125.343 27.64 121.183 24.888C117.023 22.136 112.191 20.76 106.687 20.76C101.183 20.76 96.3505 22.136 92.1905 24.888C88.0945 27.576 84.8625 31.384 82.4945 36.312C80.1905 41.176 79.0385 46.872 79.0385 53.4ZM100.831 12.6L110.143 0.887999H118.783V1.464L102.079 13.752L100.831 12.6ZM161.761 87V19.8H182.881C190.305 19.8 196.769 21.208 202.273 24.024C207.777 26.84 212.065 30.776 215.137 35.832C218.209 40.824 219.745 46.68 219.745 53.4C219.745 60.12 218.209 66.008 215.137 71.064C212.065 76.056 207.777 79.96 202.273 82.776C196.769 85.592 190.305 87 182.881 87H161.761ZM182.881 22.104H168.289V84.696H182.881C192.161 84.696 199.393 81.944 204.577 76.44C209.825 70.936 212.449 63.256 212.449 53.4C212.449 43.544 209.825 35.864 204.577 30.36C199.393 24.856 192.161 22.104 182.881 22.104ZM239.949 87V19.8H246.477V87H239.949ZM304.953 55.128V52.824H329.241V78.936C326.297 81.88 322.681 84.184 318.393 85.848C314.169 87.512 309.433 88.344 304.185 88.344C298.809 88.344 293.849 87.48 289.305 85.752C284.761 83.96 280.793 81.496 277.401 78.36C274.009 75.16 271.353 71.448 269.433 67.224C267.577 63 266.649 58.392 266.649 53.4C266.649 48.408 267.577 43.8 269.433 39.576C271.353 35.352 274.009 31.672 277.401 28.536C280.793 25.336 284.761 22.872 289.305 21.144C293.849 19.352 298.809 18.456 304.185 18.456C306.489 18.456 308.985 18.616 311.673 18.936C314.425 19.256 317.049 19.704 319.545 20.28C322.041 20.792 324.153 21.432 325.881 22.2L325.401 27.576H324.825C322.265 25.336 319.193 23.64 315.609 22.488C312.025 21.336 308.217 20.76 304.185 20.76C298.169 20.76 292.889 22.136 288.345 24.888C283.801 27.576 280.249 31.384 277.689 36.312C275.193 41.176 273.945 46.872 273.945 53.4C273.945 59.928 275.193 65.656 277.689 70.584C280.249 75.448 283.801 79.256 288.345 82.008C292.889 84.696 298.169 86.04 304.185 86.04C307.897 86.04 311.321 85.528 314.457 84.504C317.657 83.48 320.409 82.008 322.713 80.088V55.128H304.953ZM346.524 53.4C346.524 48.472 347.388 43.896 349.116 39.672C350.908 35.384 353.372 31.672 356.508 28.536C359.708 25.336 363.42 22.872 367.644 21.144C371.932 19.352 376.54 18.456 381.468 18.456C386.396 18.456 390.972 19.352 395.196 21.144C399.484 22.872 403.196 25.336 406.332 28.536C409.532 31.672 411.996 35.384 413.724 39.672C415.516 43.896 416.412 48.472 416.412 53.4C416.412 58.328 415.516 62.936 413.724 67.224C411.996 71.448 409.532 75.16 406.332 78.36C403.196 81.496 399.484 83.96 395.196 85.752C390.972 87.48 386.396 88.344 381.468 88.344C376.54 88.344 371.932 87.48 367.644 85.752C363.42 83.96 359.708 81.496 356.508 78.36C353.372 75.16 350.908 71.448 349.116 67.224C347.388 62.936 346.524 58.328 346.524 53.4ZM353.82 53.4C353.82 59.928 354.972 65.656 357.276 70.584C359.58 75.448 362.812 79.256 366.972 82.008C371.132 84.696 375.964 86.04 381.468 86.04C386.972 86.04 391.804 84.696 395.964 82.008C400.124 79.256 403.356 75.416 405.66 70.488C407.964 65.56 409.116 59.864 409.116 53.4C409.116 46.936 407.964 41.272 405.66 36.408C403.356 31.48 400.124 27.64 395.964 24.888C391.804 22.136 386.972 20.76 381.468 20.76C375.964 20.76 371.132 22.136 366.972 24.888C362.876 27.576 359.644 31.384 357.276 36.312C354.972 41.176 353.82 46.872 353.82 53.4ZM462.418 87V19.8H483.538C490.962 19.8 497.426 21.208 502.93 24.024C508.434 26.84 512.722 30.776 515.794 35.832C518.866 40.824 520.402 46.68 520.402 53.4C520.402 60.12 518.866 66.008 515.794 71.064C512.722 76.056 508.434 79.96 502.93 82.776C497.426 85.592 490.962 87 483.538 87H462.418ZM483.538 22.104H468.946V84.696H483.538C492.818 84.696 500.05 81.944 505.234 76.44C510.482 70.936 513.106 63.256 513.106 53.4C513.106 43.544 510.482 35.864 505.234 30.36C500.05 24.856 492.818 22.104 483.538 22.104ZM540.605 87V19.8H569.885V24.504L553.085 22.296C550.141 21.912 548.157 21.72 547.133 21.72V51C547.965 51 549.949 50.904 553.085 50.712L568.829 49.752V54.168L553.085 53.208C549.949 53.016 547.965 52.92 547.133 52.92V85.08C548.285 85.08 550.301 84.888 553.181 84.504L570.173 82.296V87H540.605ZM15.0095 130.8H22.2095L48.4175 190.512H48.9935L70.9775 130.8H78.1775L47.6495 199.344H45.5375L15.0095 130.8ZM93.1363 198V130.8H122.416V135.504L105.616 133.296C102.672 132.912 100.688 132.72 99.6643 132.72V162C100.496 162 102.48 161.904 105.616 161.712L121.36 160.752V165.168L105.616 164.208C102.48 164.016 100.496 163.92 99.6643 163.92V196.08C100.816 196.08 102.832 195.888 105.712 195.504L122.704 193.296V198H93.1363ZM136.968 195.888L137.544 190.128H138.12C140.616 192.304 143.432 194 146.568 195.216C149.704 196.432 152.808 197.04 155.88 197.04C160.232 197.04 163.752 195.856 166.44 193.488C169.128 191.056 170.472 187.824 170.472 183.792C170.472 181.552 169.96 179.472 168.936 177.552C167.976 175.632 166.344 173.68 164.04 171.696C161.8 169.712 158.696 167.568 154.728 165.264C151.976 163.664 149.352 162 146.856 160.272C144.36 158.48 142.312 156.432 140.712 154.128C139.112 151.76 138.312 148.944 138.312 145.68C138.312 140.816 140.072 136.912 143.592 133.968C147.112 130.96 151.752 129.456 157.512 129.456C160.072 129.456 162.824 129.744 165.768 130.32C168.712 130.832 170.984 131.504 172.584 132.336L172.104 137.712H171.528C167.88 133.744 163.208 131.76 157.512 131.76C153.416 131.76 150.12 132.816 147.624 134.928C145.128 136.976 143.88 139.76 143.88 143.28C143.88 145.904 144.552 148.176 145.896 150.096C147.304 151.952 149.096 153.648 151.272 155.184C153.448 156.656 155.784 158.096 158.28 159.504C161.16 161.168 163.944 162.928 166.632 164.784C169.384 166.64 171.624 168.88 173.352 171.504C175.144 174.064 176.04 177.296 176.04 181.2C176.04 184.784 175.208 187.952 173.544 190.704C171.88 193.392 169.512 195.504 166.44 197.04C163.432 198.576 159.912 199.344 155.88 199.344C153.32 199.344 150.312 199.024 146.856 198.384C143.4 197.744 140.104 196.912 136.968 195.888ZM208.434 198V132.72C207.474 132.72 205.49 132.912 202.482 133.296L183.666 135.696V130.8H239.73V135.696L220.914 133.296C217.906 132.912 215.922 132.72 214.962 132.72V198H208.434ZM254.364 130.8H260.892V171.312C260.892 179.056 262.78 185.104 266.556 189.456C270.396 193.744 275.772 195.888 282.684 195.888C287.036 195.888 290.812 195.056 294.012 193.392C297.276 191.664 299.772 189.296 301.5 186.288C303.292 183.28 304.124 179.824 303.996 175.92L302.364 130.8H308.892L307.26 175.92C307.004 183.6 304.7 189.424 300.348 193.392C296.06 197.36 289.916 199.344 281.916 199.344C273.276 199.344 266.524 196.848 261.66 191.856C256.796 186.8 254.364 179.888 254.364 171.12V130.8ZM320.059 198L345.883 130.8H351.835L377.659 198H370.651L358.747 166.512H336.955L327.067 198H320.059ZM346.555 135.792L337.627 164.208H357.883L347.131 135.792H346.555ZM393.23 130.8H406.094C412.878 130.8 418.126 132.24 421.838 135.12C425.614 137.936 427.502 141.904 427.502 147.024C427.502 150.992 426.318 154.288 423.95 156.912C421.646 159.536 418.286 161.296 413.87 162.192V162.768C418.094 163.6 421.55 165.584 424.238 168.72C426.926 171.856 428.942 175.728 430.286 180.336C431.502 184.56 432.686 187.856 433.838 190.224C435.054 192.528 436.366 194.192 437.774 195.216C439.246 196.24 440.974 196.976 442.958 197.424V198H439.022C436.206 198 433.87 197.488 432.014 196.464C430.222 195.44 428.686 193.712 427.406 191.28C426.126 188.848 424.91 185.488 423.758 181.2C421.902 174.608 419.438 169.936 416.366 167.184C413.294 164.432 409.55 163.056 405.134 163.056H404.558V161.328H405.134C415.438 161.328 420.59 156.592 420.59 147.12C420.59 137.776 415.758 133.104 406.094 133.104H399.758V198H393.23V130.8ZM454.824 198V130.8H461.352V198H454.824ZM481.524 164.4C481.524 159.472 482.388 154.896 484.116 150.672C485.908 146.384 488.372 142.672 491.508 139.536C494.708 136.336 498.42 133.872 502.644 132.144C506.932 130.352 511.54 129.456 516.468 129.456C521.396 129.456 525.972 130.352 530.196 132.144C534.484 133.872 538.196 136.336 541.332 139.536C544.532 142.672 546.996 146.384 548.724 150.672C550.516 154.896 551.412 159.472 551.412 164.4C551.412 169.328 550.516 173.936 548.724 178.224C546.996 182.448 544.532 186.16 541.332 189.36C538.196 192.496 534.484 194.96 530.196 196.752C525.972 198.48 521.396 199.344 516.468 199.344C511.54 199.344 506.932 198.48 502.644 196.752C498.42 194.96 494.708 192.496 491.508 189.36C488.372 186.16 485.908 182.448 484.116 178.224C482.388 173.936 481.524 169.328 481.524 164.4ZM488.82 164.4C488.82 170.928 489.972 176.656 492.276 181.584C494.58 186.448 497.812 190.256 501.972 193.008C506.132 195.696 510.964 197.04 516.468 197.04C521.972 197.04 526.804 195.696 530.964 193.008C535.124 190.256 538.356 186.416 540.66 181.488C542.964 176.56 544.116 170.864 544.116 164.4C544.116 157.936 542.964 152.272 540.66 147.408C538.356 142.48 535.124 138.64 530.964 135.888C526.804 133.136 521.972 131.76 516.468 131.76C510.964 131.76 506.132 133.136 501.972 135.888C497.876 138.576 494.644 142.384 492.276 147.312C489.972 152.176 488.82 157.872 488.82 164.4Z" fill="url(#paint0_linear_88_3)"/>
<defs>
<linearGradient id="paint0_linear_88_3" x1="-44" y1="164.5" x2="615" y2="164.5" gradientUnits="userSpaceOnUse">
<stop offset="0.139423" stop-color="#FEC78A"/>
<stop offset="0.307692" stop-color="#F8D2A7"/>
<stop offset="0.509615" stop-color="#FFF6E7"/>
<stop offset="0.841346" stop-color="#FEC78A"/>
</linearGradient>
</defs>
</svg>
