<svg width="671" height="186" viewBox="0 0 671 186" fill="none" xmlns="http://www.w3.org/2000/svg">
<path d="M28.9347 35V1.4H34.9347C38.8067 1.4 41.8147 2.232 43.9587 3.896C46.1027 5.528 47.1747 7.816 47.1747 10.76C47.1747 13.704 46.1027 16.008 43.9587 17.672C41.8147 19.304 38.8067 20.12 34.9347 20.12H32.1987V35H28.9347ZM34.9347 2.552H32.1987V18.968H34.9347C40.7907 18.968 43.7187 16.232 43.7187 10.76C43.7187 5.288 40.7907 2.552 34.9347 2.552ZM53.9097 18.2C53.9097 15.736 54.3417 13.448 55.2057 11.336C56.1017 9.192 57.3337 7.336 58.9017 5.768C60.5017 4.168 62.3577 2.936 64.4697 2.072C66.6137 1.176 68.9177 0.727998 71.3817 0.727998C73.8457 0.727998 76.1337 1.176 78.2457 2.072C80.3897 2.936 82.2457 4.168 83.8137 5.768C85.4137 7.336 86.6457 9.192 87.5097 11.336C88.4057 13.448 88.8537 15.736 88.8537 18.2C88.8537 20.664 88.4057 22.968 87.5097 25.112C86.6457 27.224 85.4137 29.08 83.8137 30.68C82.2457 32.248 80.3897 33.48 78.2457 34.376C76.1337 35.24 73.8457 35.672 71.3817 35.672C68.9177 35.672 66.6137 35.24 64.4697 34.376C62.3577 33.48 60.5017 32.248 58.9017 30.68C57.3337 29.08 56.1017 27.224 55.2057 25.112C54.3417 22.968 53.9097 20.664 53.9097 18.2ZM57.5577 18.2C57.5577 21.464 58.1337 24.328 59.2857 26.792C60.4377 29.224 62.0537 31.128 64.1337 32.504C66.2137 33.848 68.6297 34.52 71.3817 34.52C74.1337 34.52 76.5497 33.848 78.6297 32.504C80.7097 31.128 82.3257 29.208 83.4777 26.744C84.6297 24.28 85.2057 21.432 85.2057 18.2C85.2057 14.968 84.6297 12.136 83.4777 9.704C82.3257 7.24 80.7097 5.32 78.6297 3.944C76.5497 2.568 74.1337 1.88 71.3817 1.88C68.6297 1.88 66.2137 2.568 64.1337 3.944C62.0857 5.288 60.4697 7.192 59.2857 9.656C58.1337 12.088 57.5577 14.936 57.5577 18.2ZM98.9191 1.4H105.351C108.743 1.4 111.367 2.12 113.223 3.56C115.111 4.968 116.055 6.952 116.055 9.512C116.055 11.496 115.463 13.144 114.279 14.456C113.127 15.768 111.447 16.648 109.239 17.096V17.384C111.351 17.8 113.079 18.792 114.423 20.36C115.767 21.928 116.775 23.864 117.447 26.168C118.055 28.28 118.647 29.928 119.223 31.112C119.831 32.264 120.487 33.096 121.191 33.608C121.927 34.12 122.791 34.488 123.783 34.712V35H121.815C120.407 35 119.239 34.744 118.311 34.232C117.415 33.72 116.647 32.856 116.007 31.64C115.367 30.424 114.759 28.744 114.183 26.6C113.255 23.304 112.023 20.968 110.487 19.592C108.951 18.216 107.079 17.528 104.871 17.528H104.583V16.664H104.871C110.023 16.664 112.599 14.296 112.599 9.56C112.599 4.888 110.183 2.552 105.351 2.552H102.183V35H98.9191V1.4ZM142.653 35V1.4H156.765V3.752L148.797 2.648C147.357 2.456 146.397 2.36 145.917 2.36V17.384C146.429 17.384 147.421 17.336 148.893 17.24L156.237 16.76V18.968L148.893 18.488C147.421 18.392 146.429 18.344 145.917 18.344V35H142.653ZM158.521 35L171.433 1.4H174.409L187.321 35H183.817L177.865 19.256H166.969L162.025 35H158.521ZM171.769 3.896L167.305 18.104H177.433L172.057 3.896H171.769ZM187.778 1.4H191.378L204.482 31.256H204.77L215.762 1.4H219.362L204.098 35.672H203.042L187.778 1.4ZM223.972 18.2C223.972 15.736 224.404 13.448 225.268 11.336C226.164 9.192 227.396 7.336 228.964 5.768C230.564 4.168 232.42 2.936 234.532 2.072C236.676 1.176 238.98 0.727998 241.444 0.727998C243.908 0.727998 246.196 1.176 248.308 2.072C250.452 2.936 252.308 4.168 253.876 5.768C255.476 7.336 256.708 9.192 257.572 11.336C258.468 13.448 258.916 15.736 258.916 18.2C258.916 20.664 258.468 22.968 257.572 25.112C256.708 27.224 255.476 29.08 253.876 30.68C252.308 32.248 250.452 33.48 248.308 34.376C246.196 35.24 243.908 35.672 241.444 35.672C238.98 35.672 236.676 35.24 234.532 34.376C232.42 33.48 230.564 32.248 228.964 30.68C227.396 29.08 226.164 27.224 225.268 25.112C224.404 22.968 223.972 20.664 223.972 18.2ZM227.62 18.2C227.62 21.464 228.196 24.328 229.348 26.792C230.5 29.224 232.116 31.128 234.196 32.504C236.276 33.848 238.692 34.52 241.444 34.52C244.196 34.52 246.612 33.848 248.692 32.504C250.772 31.128 252.388 29.208 253.54 26.744C254.692 24.28 255.268 21.432 255.268 18.2C255.268 14.968 254.692 12.136 253.54 9.704C252.388 7.24 250.772 5.32 248.692 3.944C246.612 2.568 244.196 1.88 241.444 1.88C238.692 1.88 236.276 2.568 234.196 3.944C232.148 5.288 230.532 7.192 229.348 9.656C228.196 12.088 227.62 14.936 227.62 18.2ZM268.982 1.4H275.414C278.806 1.4 281.43 2.12 283.286 3.56C285.174 4.968 286.118 6.952 286.118 9.512C286.118 11.496 285.526 13.144 284.342 14.456C283.19 15.768 281.51 16.648 279.302 17.096V17.384C281.414 17.8 283.142 18.792 284.486 20.36C285.83 21.928 286.838 23.864 287.51 26.168C288.118 28.28 288.71 29.928 289.286 31.112C289.894 32.264 290.55 33.096 291.254 33.608C291.99 34.12 292.854 34.488 293.846 34.712V35H291.878C290.47 35 289.302 34.744 288.374 34.232C287.478 33.72 286.71 32.856 286.07 31.64C285.43 30.424 284.822 28.744 284.246 26.6C283.318 23.304 282.086 20.968 280.55 19.592C279.014 18.216 277.142 17.528 274.934 17.528H274.646V16.664H274.934C280.086 16.664 282.662 14.296 282.662 9.56C282.662 4.888 280.246 2.552 275.414 2.552H272.246V35H268.982V1.4ZM339.5 30.872L339.212 33.8C338.316 34.184 337.228 34.52 335.948 34.808C334.668 35.096 333.372 35.304 332.06 35.432C330.748 35.592 329.58 35.672 328.556 35.672C325.964 35.672 323.564 35.24 321.356 34.376C319.148 33.48 317.212 32.248 315.548 30.68C313.916 29.112 312.636 27.272 311.708 25.16C310.78 23.016 310.316 20.696 310.316 18.2C310.316 15.704 310.78 13.4 311.708 11.288C312.636 9.144 313.916 7.288 315.548 5.72C317.212 4.152 319.148 2.936 321.356 2.072C323.564 1.176 325.964 0.727998 328.556 0.727998C329.612 0.727998 330.796 0.807998 332.108 0.967998C333.42 1.128 334.7 1.352 335.948 1.64C337.196 1.896 338.252 2.2 339.116 2.552L338.876 5.24H338.588C337.404 4.152 335.916 3.32 334.124 2.744C332.332 2.168 330.476 1.88 328.556 1.88C325.676 1.88 323.132 2.568 320.924 3.944C318.748 5.288 317.036 7.192 315.788 9.656C314.572 12.088 313.964 14.936 313.964 18.2C313.964 21.496 314.572 24.36 315.788 26.792C317.036 29.224 318.748 31.128 320.924 32.504C323.1 33.848 325.644 34.52 328.556 34.52C330.732 34.52 332.748 34.168 334.604 33.464C336.492 32.76 338.028 31.896 339.212 30.872H339.5ZM345.753 18.2C345.753 15.736 346.185 13.448 347.049 11.336C347.945 9.192 349.177 7.336 350.745 5.768C352.345 4.168 354.201 2.936 356.313 2.072C358.457 1.176 360.761 0.727998 363.225 0.727998C365.689 0.727998 367.977 1.176 370.089 2.072C372.233 2.936 374.089 4.168 375.657 5.768C377.257 7.336 378.489 9.192 379.353 11.336C380.249 13.448 380.697 15.736 380.697 18.2C380.697 20.664 380.249 22.968 379.353 25.112C378.489 27.224 377.257 29.08 375.657 30.68C374.089 32.248 372.233 33.48 370.089 34.376C367.977 35.24 365.689 35.672 363.225 35.672C360.761 35.672 358.457 35.24 356.313 34.376C354.201 33.48 352.345 32.248 350.745 30.68C349.177 29.08 347.945 27.224 347.049 25.112C346.185 22.968 345.753 20.664 345.753 18.2ZM349.401 18.2C349.401 21.464 349.977 24.328 351.129 26.792C352.281 29.224 353.897 31.128 355.977 32.504C358.057 33.848 360.473 34.52 363.225 34.52C365.977 34.52 368.393 33.848 370.473 32.504C372.553 31.128 374.169 29.208 375.321 26.744C376.473 24.28 377.049 21.432 377.049 18.2C377.049 14.968 376.473 12.136 375.321 9.704C374.169 7.24 372.553 5.32 370.473 3.944C368.393 2.568 365.977 1.88 363.225 1.88C360.473 1.88 358.057 2.568 355.977 3.944C353.929 5.288 352.313 7.192 351.129 9.656C349.977 12.088 349.401 14.936 349.401 18.2ZM390.043 35L391.243 0.727998H391.819L415.963 29.912H416.251L415.195 1.4H418.459L417.259 35.672H416.683L392.539 6.488H392.251L393.307 35H390.043ZM430.232 35V1.4H444.344V3.752L436.376 2.648C434.936 2.456 433.976 2.36 433.496 2.36V17.384C434.008 17.384 435 17.336 436.472 17.24L443.816 16.76V18.968L436.472 18.488C435 18.392 434.008 18.344 433.496 18.344V35H430.232ZM453.716 35V1.4H456.98V35H453.716ZM469.466 1.4H475.898C479.29 1.4 481.914 2.12 483.77 3.56C485.658 4.968 486.602 6.952 486.602 9.512C486.602 11.496 486.01 13.144 484.826 14.456C483.674 15.768 481.994 16.648 479.786 17.096V17.384C481.898 17.8 483.626 18.792 484.97 20.36C486.314 21.928 487.322 23.864 487.994 26.168C488.602 28.28 489.194 29.928 489.77 31.112C490.378 32.264 491.034 33.096 491.738 33.608C492.474 34.12 493.338 34.488 494.33 34.712V35H492.362C490.954 35 489.786 34.744 488.858 34.232C487.962 33.72 487.194 32.856 486.554 31.64C485.914 30.424 485.306 28.744 484.73 26.6C483.802 23.304 482.57 20.968 481.034 19.592C479.498 18.216 477.626 17.528 475.418 17.528H475.13V16.664H475.418C480.57 16.664 483.146 14.296 483.146 9.56C483.146 4.888 480.73 2.552 475.898 2.552H472.73V35H469.466V1.4ZM531.895 1.4V35H528.631V4.184H528.343L516.727 26.456H515.239L502.039 6.824H501.751L502.807 35H499.543L500.743 0.727998H501.703L516.823 23.192H517.111L528.439 1.4H531.895ZM539.38 35L552.292 1.4H555.268L568.18 35H564.676L558.724 19.256H547.828L542.884 35H539.38ZM552.628 3.896L548.164 18.104H558.292L552.916 3.896H552.628ZM596.583 35V2.36C596.103 2.36 595.111 2.456 593.607 2.648L584.199 3.848V1.4H612.231V3.848L602.823 2.648C601.319 2.456 600.327 2.36 599.847 2.36V35H596.583ZM619.548 1.4H622.812V21.656C622.812 25.528 623.756 28.552 625.644 30.728C627.564 32.872 630.252 33.944 633.708 33.944C635.884 33.944 637.772 33.528 639.372 32.696C641.004 31.832 642.252 30.648 643.116 29.144C644.012 27.64 644.428 25.912 644.364 23.96L643.548 1.4H646.812L645.996 23.96C645.868 27.8 644.716 30.712 642.54 32.696C640.396 34.68 637.324 35.672 633.324 35.672C629.004 35.672 625.628 34.424 623.196 31.928C620.764 29.4 619.548 25.944 619.548 21.56V1.4ZM67.2786 91L80.1906 57.4H83.1666L96.0786 91H92.5746L86.6226 75.256H75.7266L70.7826 91H67.2786ZM80.5266 59.896L76.0626 74.104H86.1906L80.8146 59.896H80.5266ZM100.936 89.944L101.224 87.064H101.512C102.76 88.152 104.168 89 105.736 89.608C107.304 90.216 108.856 90.52 110.392 90.52C112.568 90.52 114.328 89.928 115.672 88.744C117.016 87.528 117.688 85.912 117.688 83.896C117.688 82.776 117.432 81.736 116.92 80.776C116.44 79.816 115.624 78.84 114.472 77.848C113.352 76.856 111.8 75.784 109.816 74.632C108.44 73.832 107.128 73 105.88 72.136C104.632 71.24 103.608 70.216 102.808 69.064C102.008 67.88 101.608 66.472 101.608 64.84C101.608 62.408 102.488 60.456 104.248 58.984C106.008 57.48 108.328 56.728 111.208 56.728C112.488 56.728 113.864 56.872 115.336 57.16C116.808 57.416 117.944 57.752 118.744 58.168L118.504 60.856H118.216C116.392 58.872 114.056 57.88 111.208 57.88C109.16 57.88 107.512 58.408 106.264 59.464C105.016 60.488 104.392 61.88 104.392 63.64C104.392 64.952 104.728 66.088 105.4 67.048C106.104 67.976 107 68.824 108.088 69.592C109.176 70.328 110.344 71.048 111.592 71.752C113.032 72.584 114.424 73.464 115.768 74.392C117.144 75.32 118.264 76.44 119.128 77.752C120.024 79.032 120.472 80.648 120.472 82.6C120.472 84.392 120.056 85.976 119.224 87.352C118.392 88.696 117.208 89.752 115.672 90.52C114.168 91.288 112.408 91.672 110.392 91.672C109.112 91.672 107.608 91.512 105.88 91.192C104.152 90.872 102.504 90.456 100.936 89.944ZM129.927 91V57.4H133.191V91H129.927ZM142.749 89.944L143.037 87.064H143.325C144.573 88.152 145.981 89 147.549 89.608C149.117 90.216 150.669 90.52 152.205 90.52C154.381 90.52 156.141 89.928 157.485 88.744C158.829 87.528 159.501 85.912 159.501 83.896C159.501 82.776 159.245 81.736 158.733 80.776C158.253 79.816 157.437 78.84 156.285 77.848C155.165 76.856 153.613 75.784 151.629 74.632C150.253 73.832 148.941 73 147.693 72.136C146.445 71.24 145.421 70.216 144.621 69.064C143.821 67.88 143.421 66.472 143.421 64.84C143.421 62.408 144.301 60.456 146.061 58.984C147.821 57.48 150.141 56.728 153.021 56.728C154.301 56.728 155.677 56.872 157.149 57.16C158.621 57.416 159.757 57.752 160.557 58.168L160.317 60.856H160.029C158.205 58.872 155.869 57.88 153.021 57.88C150.973 57.88 149.325 58.408 148.077 59.464C146.829 60.488 146.205 61.88 146.205 63.64C146.205 64.952 146.541 66.088 147.213 67.048C147.917 67.976 148.813 68.824 149.901 69.592C150.989 70.328 152.157 71.048 153.405 71.752C154.845 72.584 156.237 73.464 157.581 74.392C158.957 75.32 160.077 76.44 160.941 77.752C161.837 79.032 162.285 80.648 162.285 82.6C162.285 84.392 161.869 85.976 161.037 87.352C160.205 88.696 159.021 89.752 157.485 90.52C155.981 91.288 154.221 91.672 152.205 91.672C150.925 91.672 149.421 91.512 147.693 91.192C145.965 90.872 144.317 90.456 142.749 89.944ZM178.482 91V58.36C178.002 58.36 177.01 58.456 175.506 58.648L166.098 59.848V57.4H194.13V59.848L184.722 58.648C183.218 58.456 182.226 58.36 181.746 58.36V91H178.482ZM201.927 91V57.4H216.567V59.752L208.167 58.648C206.695 58.456 205.703 58.36 205.191 58.36V73C205.607 73 206.599 72.952 208.167 72.856L216.039 72.376V74.584L208.167 74.104C206.599 74.008 205.607 73.96 205.191 73.96V90.04C205.767 90.04 206.775 89.944 208.215 89.752L216.711 88.648V91H201.927ZM226.051 91L227.251 56.728H227.827L251.971 85.912H252.259L251.203 57.4H254.467L253.267 91.672H252.691L228.547 62.488H228.259L229.315 91H226.051ZM293.023 86.872L292.735 89.8C291.839 90.184 290.751 90.52 289.471 90.808C288.191 91.096 286.895 91.304 285.583 91.432C284.271 91.592 283.103 91.672 282.079 91.672C279.487 91.672 277.087 91.24 274.879 90.376C272.671 89.48 270.735 88.248 269.071 86.68C267.439 85.112 266.159 83.272 265.231 81.16C264.303 79.016 263.839 76.696 263.839 74.2C263.839 71.704 264.303 69.4 265.231 67.288C266.159 65.144 267.439 63.288 269.071 61.72C270.735 60.152 272.671 58.936 274.879 58.072C277.087 57.176 279.487 56.728 282.079 56.728C283.135 56.728 284.319 56.808 285.631 56.968C286.943 57.128 288.223 57.352 289.471 57.64C290.719 57.896 291.775 58.2 292.639 58.552L292.399 61.24H292.111C290.927 60.152 289.439 59.32 287.647 58.744C285.855 58.168 283.999 57.88 282.079 57.88C279.199 57.88 276.655 58.568 274.447 59.944C272.271 61.288 270.559 63.192 269.311 65.656C268.095 68.088 267.487 70.936 267.487 74.2C267.487 77.496 268.095 80.36 269.311 82.792C270.559 85.224 272.271 87.128 274.447 88.504C276.623 89.848 279.167 90.52 282.079 90.52C284.255 90.52 286.271 90.168 288.127 89.464C290.015 88.76 291.551 87.896 292.735 86.872H293.023ZM302.614 91V57.4H305.878V91H302.614ZM313.372 91L326.284 57.4H329.26L342.172 91H338.668L332.716 75.256H321.82L316.876 91H313.372ZM326.62 59.896L322.156 74.104H332.284L326.908 59.896H326.62ZM357.904 91L370.816 57.4H373.792L386.704 91H383.2L377.248 75.256H366.352L361.408 91H357.904ZM371.152 59.896L366.688 74.104H376.816L371.44 59.896H371.152ZM393.769 91L394.969 56.728H395.545L419.689 85.912H419.977L418.921 57.4H422.185L420.985 91.672H420.409L396.265 62.488H395.977L397.033 91H393.769ZM441.638 91V58.36C441.158 58.36 440.166 58.456 438.662 58.648L429.254 59.848V57.4H457.286V59.848L447.878 58.648C446.374 58.456 445.382 58.36 444.902 58.36V91H441.638ZM465.083 91V57.4H479.723V59.752L471.323 58.648C469.851 58.456 468.859 58.36 468.347 58.36V73C468.763 73 469.755 72.952 471.323 72.856L479.195 72.376V74.584L471.323 74.104C469.755 74.008 468.763 73.96 468.347 73.96V90.04C468.923 90.04 469.931 89.944 471.371 89.752L479.867 88.648V91H465.083ZM486.999 89.944L487.287 87.064H487.575C488.823 88.152 490.231 89 491.799 89.608C493.367 90.216 494.919 90.52 496.455 90.52C498.631 90.52 500.391 89.928 501.735 88.744C503.079 87.528 503.751 85.912 503.751 83.896C503.751 82.776 503.495 81.736 502.983 80.776C502.503 79.816 501.687 78.84 500.535 77.848C499.415 76.856 497.863 75.784 495.879 74.632C494.503 73.832 493.191 73 491.943 72.136C490.695 71.24 489.671 70.216 488.871 69.064C488.071 67.88 487.671 66.472 487.671 64.84C487.671 62.408 488.551 60.456 490.311 58.984C492.071 57.48 494.391 56.728 497.271 56.728C498.551 56.728 499.927 56.872 501.399 57.16C502.871 57.416 504.007 57.752 504.807 58.168L504.567 60.856H504.279C502.455 58.872 500.119 57.88 497.271 57.88C495.223 57.88 493.575 58.408 492.327 59.464C491.079 60.488 490.455 61.88 490.455 63.64C490.455 64.952 490.791 66.088 491.463 67.048C492.167 67.976 493.063 68.824 494.151 69.592C495.239 70.328 496.407 71.048 497.655 71.752C499.095 72.584 500.487 73.464 501.831 74.392C503.207 75.32 504.327 76.44 505.191 77.752C506.087 79.032 506.535 80.648 506.535 82.6C506.535 84.392 506.119 85.976 505.287 87.352C504.455 88.696 503.271 89.752 501.735 90.52C500.231 91.288 498.471 91.672 496.455 91.672C495.175 91.672 493.671 91.512 491.943 91.192C490.215 90.872 488.567 90.456 486.999 89.944ZM528.927 91V57.4H539.487C543.199 57.4 546.431 58.104 549.183 59.512C551.935 60.92 554.079 62.888 555.615 65.416C557.151 67.912 557.919 70.84 557.919 74.2C557.919 77.56 557.151 80.504 555.615 83.032C554.079 85.528 551.935 87.48 549.183 88.888C546.431 90.296 543.199 91 539.487 91H528.927ZM539.487 58.552H532.191V89.848H539.487C544.127 89.848 547.743 88.472 550.335 85.72C552.959 82.968 554.271 79.128 554.271 74.2C554.271 69.272 552.959 65.432 550.335 62.68C547.743 59.928 544.127 58.552 539.487 58.552ZM568.021 91V57.4H582.661V59.752L574.261 58.648C572.789 58.456 571.797 58.36 571.285 58.36V73C571.701 73 572.693 72.952 574.261 72.856L582.133 72.376V74.584L574.261 74.104C572.693 74.008 571.701 73.96 571.285 73.96V90.04C571.861 90.04 572.869 89.944 574.309 89.752L582.805 88.648V91H568.021ZM592.864 57.4H596.128V90.04C596.736 90.04 597.696 89.944 599.008 89.752L606.976 88.552V91H592.864V57.4ZM13.2169 184V132.64L1.61689 138.08L0.97689 136.8L17.0569 126.88H18.6569V184H13.2169ZM33.9106 177.44C35.9906 179.093 38.2573 180.48 40.7106 181.6C43.164 182.667 45.6706 183.2 48.2306 183.2C52.0173 183.2 55.0573 181.947 57.3506 179.44C59.6973 176.933 60.8706 173.627 60.8706 169.52C60.8706 165.413 59.6173 161.92 57.1106 159.04C54.6573 156.16 51.2173 154.293 46.7906 153.44L36.6306 151.52L38.9506 128H63.2706V132.8H40.4706L39.1106 146.64L48.2306 148.4C53.724 149.413 57.964 151.627 60.9506 155.04C63.9906 158.453 65.5106 162.64 65.5106 167.6C65.5106 171.067 64.7906 174.133 63.3506 176.8C61.9106 179.413 59.884 181.467 57.2706 182.96C54.7106 184.4 51.724 185.12 48.3106 185.12C46.1773 185.12 43.884 184.853 41.4306 184.32C38.9773 183.787 36.4706 183.093 33.9106 182.24L33.4306 177.44H33.9106ZM102.712 184V128H120.312C126.499 128 131.885 129.173 136.472 131.52C141.059 133.867 144.632 137.147 147.192 141.36C149.752 145.52 151.032 150.4 151.032 156C151.032 161.6 149.752 166.507 147.192 170.72C144.632 174.88 141.059 178.133 136.472 180.48C131.885 182.827 126.499 184 120.312 184H102.712ZM120.312 129.92H108.152V182.08H120.312C128.045 182.08 134.072 179.787 138.392 175.2C142.765 170.613 144.952 164.213 144.952 156C144.952 147.787 142.765 141.387 138.392 136.8C134.072 132.213 128.045 129.92 120.312 129.92ZM167.868 184V128H192.268V131.92L178.268 130.08C175.815 129.76 174.161 129.6 173.308 129.6V154C174.001 154 175.655 153.92 178.268 153.76L191.388 152.96V156.64L178.268 155.84C175.655 155.68 174.001 155.6 173.308 155.6V182.4C174.268 182.4 175.948 182.24 178.348 181.92L192.508 180.08V184H167.868ZM230.837 184V128H248.437C254.624 128 260.01 129.173 264.597 131.52C269.184 133.867 272.757 137.147 275.317 141.36C277.877 145.52 279.157 150.4 279.157 156C279.157 161.6 277.877 166.507 275.317 170.72C272.757 174.88 269.184 178.133 264.597 180.48C260.01 182.827 254.624 184 248.437 184H230.837ZM248.437 129.92H236.277V182.08H248.437C256.17 182.08 262.197 179.787 266.517 175.2C270.89 170.613 273.077 164.213 273.077 156C273.077 147.787 270.89 141.387 266.517 136.8C262.197 132.213 256.17 129.92 248.437 129.92ZM295.993 184V128H301.433V184H295.993ZM366.883 177.12L366.403 182C364.91 182.64 363.096 183.2 360.963 183.68C358.83 184.16 356.67 184.507 354.483 184.72C352.296 184.987 350.35 185.12 348.643 185.12C344.323 185.12 340.323 184.4 336.643 182.96C332.963 181.467 329.736 179.413 326.963 176.8C324.243 174.187 322.11 171.12 320.563 167.6C319.016 164.027 318.243 160.16 318.243 156C318.243 151.84 319.016 148 320.563 144.48C322.11 140.907 324.243 137.813 326.963 135.2C329.736 132.587 332.963 130.56 336.643 129.12C340.323 127.627 344.323 126.88 348.643 126.88C350.403 126.88 352.376 127.013 354.563 127.28C356.75 127.547 358.883 127.92 360.963 128.4C363.043 128.827 364.803 129.333 366.243 129.92L365.843 134.4H365.363C363.39 132.587 360.91 131.2 357.923 130.24C354.936 129.28 351.843 128.8 348.643 128.8C343.843 128.8 339.603 129.947 335.923 132.24C332.296 134.48 329.443 137.653 327.363 141.76C325.336 145.813 324.323 150.56 324.323 156C324.323 161.493 325.336 166.267 327.363 170.32C329.443 174.373 332.296 177.547 335.923 179.84C339.55 182.08 343.79 183.2 348.643 183.2C352.27 183.2 355.63 182.613 358.723 181.44C361.87 180.267 364.43 178.827 366.403 177.12H366.883ZM382.868 184V128H388.308V184H382.868ZM409.118 184V128H433.518V131.92L419.518 130.08C417.065 129.76 415.411 129.6 414.558 129.6V154C415.251 154 416.905 153.92 419.518 153.76L432.638 152.96V156.64L419.518 155.84C416.905 155.68 415.251 155.6 414.558 155.6V182.4C415.518 182.4 417.198 182.24 419.598 181.92L433.758 180.08V184H409.118ZM503.244 128V184H497.804V132.64H497.324L477.964 169.76H475.484L453.484 137.04H453.004L454.764 184H449.324L451.324 126.88H452.924L478.124 164.32H478.604L497.484 128H503.244ZM524.04 184V128H535.16C540.92 128 545.4 129.2 548.6 131.6C551.8 134 553.4 137.333 553.4 141.6C553.4 144.747 552.467 147.44 550.6 149.68C548.733 151.867 546.12 153.36 542.76 154.16V154.64C547.347 155.227 550.92 156.827 553.48 159.44C556.093 162 557.4 165.253 557.4 169.2C557.4 173.84 555.613 177.467 552.04 180.08C548.467 182.693 543.453 184 537 184H524.04ZM535.24 129.92H529.48V153.92H535.16C543.587 153.92 547.8 149.92 547.8 141.92C547.8 133.92 543.613 129.92 535.24 129.92ZM537 155.84H529.48V182.08H537C546.76 182.08 551.64 177.707 551.64 168.96C551.64 160.213 546.76 155.84 537 155.84ZM573.415 128H584.135C589.788 128 594.162 129.2 597.255 131.6C600.402 133.947 601.975 137.253 601.975 141.52C601.975 144.827 600.988 147.573 599.015 149.76C597.095 151.947 594.295 153.413 590.615 154.16V154.64C594.135 155.333 597.015 156.987 599.255 159.6C601.495 162.213 603.175 165.44 604.295 169.28C605.308 172.8 606.295 175.547 607.255 177.52C608.268 179.44 609.362 180.827 610.535 181.68C611.762 182.533 613.202 183.147 614.855 183.52V184H611.575C609.228 184 607.282 183.573 605.735 182.72C604.242 181.867 602.962 180.427 601.895 178.4C600.828 176.373 599.815 173.573 598.855 170C597.308 164.507 595.255 160.613 592.695 158.32C590.135 156.027 587.015 154.88 583.335 154.88H582.855V153.44H583.335C591.922 153.44 596.215 149.493 596.215 141.6C596.215 133.813 592.188 129.92 584.135 129.92H578.855V184H573.415V128ZM624.743 184V128H649.143V131.92L635.143 130.08C632.69 129.76 631.036 129.6 630.183 129.6V154C630.876 154 632.53 153.92 635.143 153.76L648.263 152.96V156.64L635.143 155.84C632.53 155.68 630.876 155.6 630.183 155.6V182.4C631.143 182.4 632.823 182.24 635.223 181.92L649.383 180.08V184H624.743ZM662.149 180.64C662.149 179.413 662.549 178.427 663.349 177.68C664.149 176.88 665.136 176.48 666.309 176.48C667.536 176.48 668.523 176.88 669.269 177.68C670.069 178.427 670.469 179.413 670.469 180.64C670.469 181.813 670.069 182.8 669.269 183.6C668.523 184.4 667.536 184.8 666.309 184.8C665.136 184.8 664.149 184.4 663.349 183.6C662.549 182.8 662.149 181.813 662.149 180.64Z" fill="url(#paint0_linear_90_14)"/>
<defs>
<linearGradient id="paint0_linear_90_14" x1="-58.11" y1="156.5" x2="732.89" y2="156.5" gradientUnits="userSpaceOnUse">
<stop offset="0.139423" stop-color="#FEC78A"/>
<stop offset="0.307692" stop-color="#F8D2A7"/>
<stop offset="0.509615" stop-color="#FFF6E7"/>
<stop offset="0.841346" stop-color="#FEC78A"/>
</linearGradient>
</defs>
</svg>
