<svg width="547" height="116" viewBox="0 0 547 116" fill="none" xmlns="http://www.w3.org/2000/svg">
<path d="M32.2208 15.552C32.0928 14.6133 31.6874 13.824 31.0048 13.184C30.3221 12.5013 29.4688 11.968 28.4448 11.584C27.4634 11.2 26.3541 10.9227 25.1168 10.752C23.9221 10.5813 22.7274 10.496 21.5328 10.496C17.7354 10.496 14.7914 11.456 12.7008 13.376C11.0794 14.8267 9.90608 16.768 9.18075 19.2C8.45542 21.5893 8.09275 24.192 8.09275 27.008C8.09275 29.696 8.45542 32.064 9.18075 34.112C9.94875 36.16 10.9728 37.888 12.2528 39.296C13.5754 40.6613 15.1328 41.7067 16.9248 42.432C18.7168 43.1147 20.6794 43.456 22.8128 43.456C24.6474 43.456 26.7594 43.264 29.1488 42.88C31.5808 42.4533 33.8634 41.664 35.9968 40.512L36.7648 41.92L35.2288 44.736C33.0101 46.1013 30.7701 47.104 28.5088 47.744C26.2901 48.384 24.0074 48.704 21.6608 48.704C18.4608 48.704 15.5594 48.192 12.9568 47.168C10.3541 46.144 8.11408 44.6933 6.23675 42.816C4.40208 40.896 2.97275 38.6347 1.94875 36.032C0.92475 33.3867 0.41275 30.464 0.41275 27.264C0.41275 24.2773 0.86075 21.4613 1.75675 18.816C2.69542 16.128 4.06075 13.8027 5.85275 11.84C7.68742 9.87733 9.92742 8.32 12.5728 7.168C15.2608 6.016 18.3754 5.44 21.9168 5.44C22.7701 5.44 23.7728 5.48266 24.9248 5.568C26.0768 5.61066 27.2928 5.73866 28.5728 5.952C29.8528 6.12266 31.1328 6.4 32.4128 6.784C33.7354 7.12533 34.9941 7.57333 36.1888 8.128L36.3808 8.704L35.5488 15.808H32.4128L32.2208 15.552ZM59.0618 47.552C59.1898 47.168 59.2751 46.6133 59.3178 45.888C59.4031 45.1627 59.5098 44.5013 59.6378 43.904L59.5738 43.712C59.0618 44.352 58.4644 44.9707 57.7818 45.568C57.1418 46.1653 56.4164 46.6987 55.6058 47.168C54.7951 47.6373 53.9204 48 52.9818 48.256C52.0858 48.5547 51.1258 48.704 50.1018 48.704C48.5658 48.704 47.2218 48.4693 46.0698 48C44.9178 47.5307 43.9578 46.912 43.1898 46.144C42.4218 45.376 41.8244 44.48 41.3978 43.456C41.0138 42.432 40.8218 41.3653 40.8218 40.256C40.8218 38.592 41.1844 37.1413 41.9098 35.904C42.6351 34.6667 43.5951 33.664 44.7898 32.896C45.8991 32.1707 47.2004 31.616 48.6938 31.232C50.1871 30.8053 51.6378 30.4853 53.0458 30.272C54.4538 30.0587 55.7338 29.9307 56.8858 29.888C58.0378 29.8027 58.8058 29.76 59.1898 29.76H60.0858C60.0431 28.4373 59.9578 27.4133 59.8298 26.688C59.7018 25.92 59.5311 25.28 59.3178 24.768C58.9338 23.9147 58.2938 23.3173 57.3978 22.976C56.5444 22.592 55.5204 22.4 54.3258 22.4C53.6004 22.4 52.8111 22.464 51.9578 22.592C51.1471 22.6773 50.3791 22.8693 49.6538 23.168C48.9284 23.4667 48.2884 23.8933 47.7338 24.448C47.2218 24.96 46.9231 25.6427 46.8378 26.496L46.5818 26.688H44.5338L43.9578 20.672L44.1498 20.288C44.4058 20.032 44.8964 19.7547 45.6218 19.456C46.3471 19.1573 47.2218 18.88 48.2458 18.624C49.2698 18.3253 50.3791 18.0907 51.5738 17.92C52.8111 17.7067 54.0484 17.6 55.2858 17.6C56.9498 17.6 58.5071 17.8133 59.9578 18.24C61.4084 18.624 62.6458 19.2213 63.6698 20.032C64.7364 20.8427 65.5684 21.8667 66.1658 23.104C66.7631 24.2987 67.0618 25.7067 67.0618 27.328C67.0618 29.0773 67.0404 30.5707 66.9978 31.808C66.9978 33.0453 66.9764 34.1973 66.9338 35.264C66.8911 36.3307 66.8484 37.376 66.8058 38.4C66.8058 39.3813 66.8058 40.4907 66.8058 41.728C66.8911 42.7093 66.9978 43.4133 67.1258 43.84C67.2538 44.2667 67.4671 44.608 67.7658 44.864C68.1071 45.2053 68.6191 45.4187 69.3018 45.504C70.0271 45.5467 70.6884 45.568 71.2858 45.568L71.4778 45.824L71.6058 48L71.5418 48.256C70.8164 48.1707 69.9844 48.1067 69.0458 48.064C68.1071 48.0213 67.2324 48 66.4218 48C65.2271 48 64.0324 48 62.8378 48C61.6431 48.0427 60.5124 48.1067 59.4458 48.192L59.0618 47.552ZM59.0618 40.64C59.1898 40.4267 59.3178 40.1707 59.4458 39.872C59.6164 39.5733 59.7231 39.2107 59.7658 38.784L60.0858 33.344H59.5098C58.1871 33.344 56.8858 33.4293 55.6058 33.6C54.3258 33.7707 53.1738 34.0907 52.1498 34.56C51.1258 35.0293 50.2938 35.6907 49.6538 36.544C49.0138 37.3973 48.6938 38.5067 48.6938 39.872C48.6938 41.024 48.9711 41.9413 49.5258 42.624C50.1231 43.3067 50.9124 43.648 51.8938 43.648C52.6191 43.648 53.3444 43.5627 54.0698 43.392C54.8378 43.1787 55.5418 42.9227 56.1818 42.624C56.8218 42.3253 57.3978 42.0053 57.9097 41.664C58.4218 41.28 58.8058 40.9387 59.0618 40.64ZM89.9483 48.256C89.6496 48.256 89.2016 48.2347 88.6042 48.192C88.0069 48.1493 87.3669 48.1067 86.6843 48.064C86.0016 48.064 85.3616 48.0427 84.7643 48C84.1669 48 83.7189 48 83.4203 48H79.9643C79.6656 48 79.1963 48 78.5563 48C77.9589 48.0427 77.3189 48.064 76.6363 48.064C75.9963 48.1067 75.3563 48.1493 74.7163 48.192C74.1189 48.2347 73.6709 48.256 73.3723 48.256L73.3083 48L73.4363 45.824L73.6283 45.568C74.2683 45.568 74.9296 45.5467 75.6123 45.504C76.2949 45.4187 76.8069 45.2053 77.1483 44.864C77.4469 44.5653 77.6603 44.1813 77.7883 43.712C77.9163 43.2427 78.0229 42.5813 78.1083 41.728C78.1509 41.4293 78.1723 41.1307 78.1723 40.832C78.2149 40.5333 78.2363 40.2133 78.2363 39.872C78.2789 39.5307 78.3003 39.1253 78.3003 38.656C78.3003 38.1867 78.3003 37.6107 78.3003 36.928V12.032C78.3003 11.2213 78.3003 10.5813 78.3003 10.112C78.3003 9.6 78.2789 9.17333 78.2363 8.832C78.2363 8.49067 78.2149 8.192 78.1723 7.936C78.1723 7.63733 78.1509 7.296 78.1083 6.912C78.0229 6.48533 77.8949 6.08 77.7243 5.696C77.5536 5.312 77.4043 5.056 77.2763 4.928C76.8496 4.37333 76.3163 4.05333 75.6763 3.968C75.0363 3.88266 74.3749 3.84 73.6923 3.84L73.4363 3.584V1.408L73.6923 1.216H76.9563C77.9376 1.216 78.9829 1.216 80.0923 1.216C81.2016 1.17333 82.1829 1.088 83.0363 0.959999L85.2763 0.639999L85.6603 1.856C85.5749 2.02667 85.4896 2.304 85.4043 2.688C85.3616 3.02933 85.3189 3.41333 85.2763 3.84C85.2763 4.224 85.2549 4.62933 85.2123 5.056C85.2123 5.44 85.2123 5.76 85.2123 6.016C85.2123 6.35733 85.1909 6.67733 85.1483 6.976C85.1483 7.232 85.1483 7.552 85.1483 7.936C85.1483 8.27733 85.1269 8.72533 85.0843 9.28C85.0843 9.83467 85.0843 10.5173 85.0843 11.328V36.16C85.0843 37.0133 85.0843 37.7173 85.0843 38.272C85.1269 38.784 85.1483 39.232 85.1483 39.616C85.1909 40 85.2123 40.3627 85.2123 40.704C85.2549 41.0027 85.2976 41.344 85.3403 41.728C85.4256 42.624 85.5109 43.3067 85.5963 43.776C85.7243 44.2027 85.9589 44.5653 86.3003 44.864C86.6416 45.2053 87.1109 45.4187 87.7083 45.504C88.3483 45.5467 88.9883 45.568 89.6283 45.568L89.9483 45.888L90.0763 48L89.9483 48.256ZM109.011 48.256C108.712 48.256 108.264 48.2347 107.667 48.192C107.069 48.1493 106.429 48.1067 105.747 48.064C105.064 48.064 104.424 48.0427 103.827 48C103.229 48 102.781 48 102.483 48H99.0268C98.7281 48 98.2588 48 97.6188 48C97.0214 48.0427 96.3814 48.064 95.6988 48.064C95.0588 48.1067 94.4188 48.1493 93.7788 48.192C93.1814 48.2347 92.7334 48.256 92.4348 48.256L92.3708 48L92.4988 45.824L92.6908 45.568C93.3308 45.568 93.9921 45.5467 94.6748 45.504C95.3574 45.4187 95.8694 45.2053 96.2108 44.864C96.5094 44.5653 96.7228 44.1813 96.8508 43.712C96.9788 43.2427 97.0854 42.5813 97.1708 41.728C97.2134 41.4293 97.2348 41.1307 97.2348 40.832C97.2774 40.5333 97.2988 40.2133 97.2988 39.872C97.3414 39.5307 97.3628 39.1253 97.3628 38.656C97.3628 38.1867 97.3628 37.6107 97.3628 36.928V12.032C97.3628 11.2213 97.3628 10.5813 97.3628 10.112C97.3628 9.6 97.3414 9.17333 97.2988 8.832C97.2988 8.49067 97.2774 8.192 97.2348 7.936C97.2348 7.63733 97.2134 7.296 97.1708 6.912C97.0854 6.48533 96.9574 6.08 96.7868 5.696C96.6161 5.312 96.4668 5.056 96.3388 4.928C95.9121 4.37333 95.3788 4.05333 94.7388 3.968C94.0988 3.88266 93.4374 3.84 92.7548 3.84L92.4988 3.584V1.408L92.7548 1.216H96.0188C97.0001 1.216 98.0454 1.216 99.1548 1.216C100.264 1.17333 101.245 1.088 102.099 0.959999L104.339 0.639999L104.723 1.856C104.637 2.02667 104.552 2.304 104.467 2.688C104.424 3.02933 104.381 3.41333 104.339 3.84C104.339 4.224 104.317 4.62933 104.275 5.056C104.275 5.44 104.275 5.76 104.275 6.016C104.275 6.35733 104.253 6.67733 104.211 6.976C104.211 7.232 104.211 7.552 104.211 7.936C104.211 8.27733 104.189 8.72533 104.147 9.28C104.147 9.83467 104.147 10.5173 104.147 11.328V36.16C104.147 37.0133 104.147 37.7173 104.147 38.272C104.189 38.784 104.211 39.232 104.211 39.616C104.253 40 104.275 40.3627 104.275 40.704C104.317 41.0027 104.36 41.344 104.403 41.728C104.488 42.624 104.573 43.3067 104.659 43.776C104.787 44.2027 105.021 44.5653 105.363 44.864C105.704 45.2053 106.173 45.4187 106.771 45.504C107.411 45.5467 108.051 45.568 108.691 45.568L109.011 45.888L109.139 48L109.011 48.256ZM140.297 31.68L138.761 32.832C136.457 32.832 134.175 32.8533 131.913 32.896C129.695 32.9387 127.412 32.96 125.065 32.96H119.817C119.775 33.2587 119.753 33.5573 119.753 33.856C119.753 34.112 119.753 34.368 119.753 34.624C119.753 35.7333 119.945 36.8427 120.329 37.952C120.713 39.0613 121.311 40.064 122.121 40.96C122.975 41.8133 124.041 42.5173 125.321 43.072C126.601 43.584 128.159 43.84 129.993 43.84C131.316 43.84 132.703 43.6693 134.153 43.328C135.647 42.944 137.033 42.4533 138.313 41.856L139.401 42.304V44.608L138.761 45.312C137.737 46.1227 136.223 46.8907 134.217 47.616C132.255 48.3413 130.121 48.704 127.817 48.704C125.556 48.704 123.487 48.3413 121.609 47.616C119.775 46.848 118.175 45.7813 116.809 44.416C115.487 43.0507 114.441 41.4293 113.673 39.552C112.948 37.6747 112.585 35.584 112.585 33.28C112.585 30.9333 112.969 28.8 113.737 26.88C114.505 24.96 115.551 23.3173 116.873 21.952C118.239 20.5867 119.817 19.52 121.609 18.752C123.444 17.984 125.407 17.6 127.497 17.6C128.607 17.6 129.844 17.7493 131.209 18.048C132.617 18.3467 133.961 18.9227 135.241 19.776C136.521 20.5867 137.673 21.76 138.697 23.296C139.721 24.7893 140.425 26.7733 140.809 29.248L140.297 31.68ZM127.561 22.4C125.471 22.4 123.785 23.04 122.505 24.32C121.268 25.5573 120.479 27.008 120.137 28.672H123.337C124.831 28.672 126.303 28.6507 127.753 28.608C129.204 28.5227 130.676 28.48 132.169 28.48C132.724 28.48 133.129 28.3307 133.385 28.032C133.641 27.6907 133.769 27.3493 133.769 27.008C133.769 25.728 133.151 24.64 131.913 23.744C130.676 22.848 129.225 22.4 127.561 22.4ZM165.646 37.312C165.688 38.08 165.902 38.8267 166.286 39.552C166.712 40.2773 167.31 40.9387 168.078 41.536C168.888 42.0907 169.848 42.5387 170.958 42.88C172.11 43.2213 173.432 43.392 174.926 43.392C176.376 43.392 177.571 43.1787 178.51 42.752C179.448 42.2827 180.195 41.7067 180.75 41.024C181.347 40.2987 181.752 39.5093 181.966 38.656C182.222 37.8027 182.35 36.9707 182.35 36.16C182.35 35.1787 182.2 34.1973 181.902 33.216C181.646 32.2347 181.219 31.36 180.622 30.592C180.067 29.824 179.363 29.2053 178.51 28.736C177.656 28.2667 176.632 28.032 175.438 28.032H173.39L173.07 27.776L172.878 24.064L173.198 23.744H174.35C175.16 23.744 175.95 23.5307 176.718 23.104C177.486 22.6347 178.147 22.0587 178.702 21.376C179.299 20.6507 179.768 19.84 180.11 18.944C180.494 18.048 180.686 17.1733 180.686 16.32C180.686 14.8267 180.195 13.5253 179.214 12.416C178.232 11.264 176.739 10.688 174.734 10.688C173.326 10.688 172.152 10.88 171.214 11.264C170.275 11.648 169.507 12.1813 168.91 12.864C168.312 13.5467 167.843 14.4 167.502 15.424C167.203 16.4053 166.99 17.4933 166.862 18.688L166.606 18.944H163.214L162.446 13.696L162.574 13.12C163.043 12.224 163.662 11.328 164.43 10.432C165.198 9.49333 166.136 8.66133 167.246 7.936C168.355 7.168 169.614 6.57066 171.022 6.144C172.472 5.67466 174.094 5.44 175.886 5.44C177.336 5.44 178.766 5.65333 180.174 6.08C181.582 6.464 182.819 7.06133 183.886 7.872C184.995 8.68266 185.891 9.70666 186.574 10.944C187.256 12.1813 187.598 13.632 187.598 15.296C187.598 16.6187 187.427 17.8133 187.086 18.88C186.744 19.9467 186.296 20.8853 185.742 21.696C185.187 22.5067 184.59 23.1893 183.95 23.744C183.31 24.256 182.67 24.64 182.03 24.896V25.152C184.419 25.6213 186.296 26.8587 187.662 28.864C189.07 30.8693 189.774 33.216 189.774 35.904C189.774 37.7813 189.39 39.5093 188.622 41.088C187.896 42.6667 186.851 44.032 185.486 45.184C184.163 46.2933 182.542 47.168 180.622 47.808C178.702 48.4053 176.59 48.704 174.286 48.704C168.526 48.704 164.238 46.7627 161.422 42.88L161.358 42.304L162.062 37.056H165.454L165.646 37.312ZM197.19 13.696L197.382 13.12C197.936 12.1387 198.64 11.2 199.494 10.304C200.39 9.36533 201.414 8.53333 202.566 7.808C203.76 7.08266 205.104 6.50666 206.598 6.08C208.134 5.65333 209.862 5.44 211.782 5.44C216.262 5.44 219.483 6.44267 221.446 8.448C223.408 10.4107 224.39 13.0773 224.39 16.448C224.39 18.4533 223.899 20.288 222.918 21.952C221.979 23.616 220.806 25.408 219.398 27.328C218.331 28.736 217.072 30.272 215.622 31.936C214.171 33.5573 212.784 35.1147 211.462 36.608C210.182 38.0587 209.072 39.36 208.134 40.512C207.238 41.6213 206.79 42.3893 206.79 42.816L206.918 43.008H210.63C213.062 43.008 215.003 42.9867 216.454 42.944C217.904 42.8587 219.035 42.688 219.846 42.432C220.699 42.1333 221.296 41.6853 221.638 41.088C222.022 40.4907 222.363 39.6587 222.662 38.592L222.982 38.208H225.99L224.838 47.744L224.262 48.384C223.963 48.384 223.216 48.3627 222.022 48.32C220.827 48.2773 219.526 48.2347 218.118 48.192C216.71 48.1493 215.344 48.1067 214.022 48.064C212.699 48.0213 211.739 48 211.142 48H204.806C203.568 48 202.182 48.0427 200.646 48.128C199.11 48.2133 197.659 48.2987 196.294 48.384L195.654 47.04V45.568C196.55 44.416 197.766 42.9653 199.302 41.216C200.838 39.424 202.459 37.5467 204.166 35.584C205.915 33.5787 207.622 31.5733 209.286 29.568C210.992 27.5627 212.464 25.7493 213.702 24.128C214.811 22.6347 215.664 21.248 216.262 19.968C216.859 18.6453 217.158 17.216 217.158 15.68C217.158 14.144 216.582 12.9493 215.43 12.096C214.32 11.2 212.976 10.752 211.398 10.752C208.411 10.752 205.979 11.4773 204.102 12.928C202.224 14.336 201.2 16.4693 201.03 19.328L200.774 19.584H197.958L197.19 13.696ZM237.283 12.992C237.197 11.7547 236.984 10.9013 236.643 10.432C236.344 9.96266 236.024 9.6 235.683 9.344C235.299 9.00266 234.808 8.81066 234.211 8.768C233.613 8.72533 232.973 8.704 232.291 8.704L231.971 8.448L231.779 6.016L231.907 5.76C232.205 5.76 232.696 5.78133 233.379 5.824C234.061 5.86666 234.765 5.90933 235.491 5.952C236.216 5.99467 236.92 6.03733 237.603 6.08C238.285 6.12266 238.776 6.144 239.075 6.144H250.211C250.808 6.144 251.683 6.144 252.835 6.144C254.029 6.10133 255.245 6.05866 256.483 6.016C257.72 5.97333 258.829 5.952 259.811 5.952C260.792 5.90933 261.389 5.888 261.603 5.888L261.987 6.528L261.667 14.784H258.787L258.531 14.528C258.445 13.7173 258.317 13.0773 258.147 12.608C258.019 12.1387 257.635 11.7973 256.995 11.584C256.355 11.3707 255.352 11.2427 253.987 11.2C252.664 11.1573 250.808 11.136 248.419 11.136H244.835L244.707 13.632C244.707 14.0587 244.685 14.464 244.643 14.848C244.643 15.1893 244.621 15.5947 244.579 16.064C244.579 16.5333 244.557 17.1307 244.515 17.856C244.515 18.5387 244.515 20.4587 244.515 23.616C245.539 23.5733 246.52 23.5733 247.459 23.616C248.44 23.616 249.315 23.5947 250.083 23.552C250.893 23.5093 251.597 23.4453 252.195 23.36C252.792 23.232 253.219 23.04 253.475 22.784C253.859 22.4 254.051 21.7813 254.051 20.928L254.371 20.608L256.739 20.48L256.995 20.608C256.952 21.1627 256.909 21.6533 256.867 22.08C256.824 22.464 256.781 22.848 256.739 23.232C256.739 23.616 256.717 24 256.675 24.384C256.675 24.768 256.675 25.216 256.675 25.728C256.675 26.752 256.696 27.7333 256.739 28.672C256.824 29.568 256.909 30.528 256.995 31.552L256.739 31.68L254.307 31.552L254.051 31.36C254.051 30.2507 253.837 29.4187 253.411 28.864C253.197 28.6507 252.813 28.48 252.259 28.352C251.704 28.224 251.021 28.1387 250.211 28.096C249.443 28.0107 248.547 27.968 247.523 27.968C246.541 27.968 245.539 27.968 244.515 27.968V31.936C244.515 33.472 244.515 34.7307 244.515 35.712C244.515 36.6507 244.515 37.44 244.515 38.08C244.557 38.72 244.579 39.2747 244.579 39.744C244.621 40.1707 244.664 40.64 244.707 41.152C244.792 42.3893 245.005 43.2427 245.347 43.712C245.731 44.1813 246.093 44.544 246.435 44.8C246.819 45.1413 247.373 45.3333 248.099 45.376C248.867 45.4187 249.592 45.44 250.275 45.44L250.595 45.696L250.787 48.128L250.659 48.384C250.36 48.384 249.827 48.3627 249.059 48.32C248.333 48.2773 247.565 48.2347 246.755 48.192C245.944 48.1493 245.155 48.1067 244.387 48.064C243.661 48.0213 243.149 48 242.851 48H239.075C238.776 48 238.285 48.0213 237.603 48.064C236.92 48.1067 236.216 48.1493 235.491 48.192C234.765 48.2347 234.061 48.2773 233.379 48.32C232.696 48.3627 232.205 48.384 231.907 48.384L231.779 48.128L231.971 45.696L232.291 45.44C232.973 45.44 233.613 45.4187 234.211 45.376C234.808 45.2907 235.299 45.0987 235.683 44.8C236.024 44.5013 236.344 44.1173 236.643 43.648C236.984 43.1787 237.197 42.3467 237.283 41.152C237.283 40.8533 237.283 40.512 237.283 40.128C237.325 39.7013 237.347 39.1893 237.347 38.592C237.389 37.9947 237.411 37.2693 237.411 36.416C237.411 35.5627 237.411 34.496 237.411 33.216V22.784C237.411 21.2907 237.411 20.032 237.411 19.008C237.411 17.984 237.389 17.1093 237.347 16.384C237.347 15.6587 237.325 15.04 237.283 14.528C237.283 14.016 237.283 13.504 237.283 12.992ZM294.695 47.744C295.335 45.824 295.954 43.7547 296.551 41.536C297.149 39.3173 297.703 37.056 298.215 34.752H292.199C291.73 37.056 291.325 39.3173 290.983 41.536C290.685 43.7547 290.429 45.824 290.215 47.744L290.023 48H282.599L282.535 47.744C283.175 45.824 283.794 43.7547 284.391 41.536C284.989 39.3173 285.543 37.056 286.055 34.752H279.655L280.615 29.44H287.207L288.423 23.744H281.511L282.471 18.496H289.511C289.938 16.576 290.301 14.5493 290.599 12.416C290.898 10.24 291.154 8.23466 291.367 6.4L291.495 6.144H298.919L299.047 6.4C298.365 8.23466 297.725 10.24 297.127 12.416C296.573 14.5493 296.082 16.576 295.655 18.496H301.671C302.098 16.576 302.461 14.5493 302.759 12.416C303.058 10.24 303.314 8.23466 303.527 6.4L303.655 6.144H311.079L311.207 6.4C310.525 8.23466 309.885 10.24 309.287 12.416C308.733 14.5493 308.242 16.576 307.815 18.496H314.599L313.639 23.744H306.727L305.511 29.44H312.615L311.655 34.752H304.359C303.89 37.056 303.485 39.3173 303.143 41.536C302.845 43.7547 302.589 45.824 302.375 47.744L302.183 48H294.759L294.695 47.744ZM293.351 29.44H299.367L300.583 23.744H294.503L293.351 29.44ZM332.775 48C331.453 48 330.002 48.0213 328.423 48.064C326.845 48.1493 325.287 48.256 323.751 48.384L323.303 47.744C323.901 46.72 324.754 45.184 325.863 43.136C326.973 41.0453 328.167 38.7413 329.447 36.224C330.727 33.7067 332.029 31.0827 333.351 28.352C334.674 25.6213 335.869 23.0827 336.935 20.736C338.002 18.3893 338.877 16.384 339.559 14.72C340.242 13.0133 340.583 11.904 340.583 11.392L340.263 11.136H332.903C330.77 11.136 329.042 11.1573 327.719 11.2C326.397 11.2427 325.351 11.392 324.583 11.648C323.815 11.8613 323.261 12.2027 322.919 12.672C322.578 13.0987 322.343 13.696 322.215 14.464L321.831 14.784H319.399L319.079 14.336L320.039 6.144L320.551 5.632C326.013 5.888 330.343 6.03733 333.543 6.08C336.786 6.12266 338.962 6.144 340.071 6.144H350.119L350.439 6.336L350.119 7.936C349.821 8.27733 349.351 9.00267 348.711 10.112C348.114 11.2213 347.431 12.5653 346.663 14.144C345.895 15.68 345.063 17.408 344.167 19.328C343.271 21.2053 342.375 23.1467 341.479 25.152C340.583 27.1147 339.709 29.0347 338.855 30.912C338.045 32.7893 337.319 34.496 336.679 36.032C335.911 37.8667 335.207 39.7013 334.567 41.536C333.97 43.3707 333.458 45.376 333.031 47.552L332.775 48ZM374.783 35.136C374.783 33.728 374.548 32.5973 374.079 31.744C373.652 30.848 373.076 30.144 372.351 29.632C371.668 29.12 370.879 28.7787 369.983 28.608C369.087 28.3947 368.191 28.288 367.295 28.288C365.759 28.288 364.244 28.4587 362.751 28.8C361.257 29.1413 359.892 29.6747 358.655 30.4H358.015L355.647 27.52L355.519 27.072L357.567 6.656L357.951 6.144H364.351C365.588 6.144 367.38 6.12266 369.727 6.08C372.073 5.99467 374.804 5.84533 377.919 5.632L378.495 6.144L379.455 14.336L379.071 14.784H376.639L376.255 14.464C376.084 13.696 375.871 13.0987 375.615 12.672C375.401 12.2027 374.953 11.8613 374.271 11.648C373.588 11.392 372.607 11.2427 371.327 11.2C370.047 11.1573 368.297 11.136 366.079 11.136H364.159C363.903 11.136 363.775 11.2427 363.775 11.456L362.495 23.872C363.305 23.4453 364.223 23.1253 365.247 22.912C366.313 22.6987 367.401 22.592 368.511 22.592C370.26 22.592 371.945 22.8053 373.567 23.232C375.188 23.616 376.617 24.2773 377.855 25.216C379.135 26.112 380.137 27.328 380.863 28.864C381.631 30.4 382.015 32.32 382.015 34.624C382.015 36.8853 381.631 38.8907 380.863 40.64C380.095 42.3893 379.007 43.8613 377.599 45.056C376.233 46.2507 374.591 47.168 372.671 47.808C370.751 48.4053 368.639 48.704 366.335 48.704C363.177 48.704 360.617 48.2347 358.655 47.296C356.735 46.3573 355.156 45.0987 353.919 43.52L353.855 42.88L354.559 37.056H358.143L358.335 37.312C358.42 39.0613 359.167 40.512 360.575 41.664C362.025 42.816 364.159 43.392 366.975 43.392C368.425 43.392 369.641 43.1787 370.623 42.752C371.647 42.2827 372.457 41.664 373.055 40.896C373.652 40.128 374.079 39.2533 374.335 38.272C374.633 37.248 374.783 36.2027 374.783 35.136ZM419.721 15.552C419.593 14.6133 419.187 13.824 418.505 13.184C417.822 12.5013 416.969 11.968 415.945 11.584C414.963 11.2 413.854 10.9227 412.617 10.752C411.422 10.5813 410.227 10.496 409.033 10.496C405.235 10.496 402.291 11.456 400.201 13.376C398.579 14.8267 397.406 16.768 396.681 19.2C395.955 21.5893 395.593 24.192 395.593 27.008C395.593 29.696 395.955 32.064 396.681 34.112C397.449 36.16 398.473 37.888 399.753 39.296C401.075 40.6613 402.633 41.7067 404.425 42.432C406.217 43.1147 408.179 43.456 410.313 43.456C412.147 43.456 414.259 43.264 416.649 42.88C419.081 42.4533 421.363 41.664 423.497 40.512L424.265 41.92L422.729 44.736C420.51 46.1013 418.27 47.104 416.009 47.744C413.79 48.384 411.507 48.704 409.161 48.704C405.961 48.704 403.059 48.192 400.457 47.168C397.854 46.144 395.614 44.6933 393.737 42.816C391.902 40.896 390.473 38.6347 389.449 36.032C388.425 33.3867 387.913 30.464 387.913 27.264C387.913 24.2773 388.361 21.4613 389.257 18.816C390.195 16.128 391.561 13.8027 393.353 11.84C395.187 9.87733 397.427 8.32 400.073 7.168C402.761 6.016 405.875 5.44 409.417 5.44C410.27 5.44 411.273 5.48266 412.425 5.568C413.577 5.61066 414.793 5.73866 416.073 5.952C417.353 6.12266 418.633 6.4 419.913 6.784C421.235 7.12533 422.494 7.57333 423.689 8.128L423.881 8.704L423.049 15.808H419.913L419.721 15.552ZM452.578 30.08L451.554 35.328H430.562L431.522 30.08H452.578ZM458.096 13.824L458.288 13.44C460.506 12.3307 462.597 11.2 464.56 10.048C466.522 8.896 468.464 7.40267 470.384 5.568H470.832L472.88 6.144C472.837 6.48533 472.794 6.89066 472.752 7.36C472.752 7.78667 472.73 8.23467 472.688 8.704C472.688 9.17333 472.666 9.62133 472.624 10.048C472.624 10.4747 472.624 10.816 472.624 11.072C472.581 11.7547 472.538 12.3947 472.496 12.992C472.496 13.5893 472.474 14.2933 472.432 15.104C472.432 15.9147 472.432 16.896 472.432 18.048C472.432 19.2 472.432 20.672 472.432 22.464V30.208C472.432 32 472.432 33.472 472.432 34.624C472.432 35.7333 472.432 36.672 472.432 37.44C472.474 38.208 472.496 38.8907 472.496 39.488C472.538 40.0853 472.602 40.7467 472.688 41.472C472.773 42.368 472.965 43.0507 473.264 43.52C473.562 43.9467 473.882 44.3093 474.224 44.608C474.608 44.9067 475.205 45.1413 476.016 45.312C476.826 45.4827 477.552 45.568 478.192 45.568L478.512 45.888L478.64 48L478.512 48.256C478.213 48.256 477.765 48.2347 477.168 48.192C476.57 48.1493 475.93 48.1067 475.248 48.064C474.565 48.064 473.925 48.0427 473.328 48C472.73 48 472.282 48 471.984 48H465.776C465.477 48 465.029 48 464.432 48C463.834 48.0427 463.194 48.064 462.512 48.064C461.829 48.1067 461.189 48.1493 460.592 48.192C459.994 48.2347 459.546 48.256 459.248 48.256L459.12 48L459.248 45.824L459.44 45.568C460.122 45.568 460.89 45.504 461.744 45.376C462.64 45.2053 463.258 44.9493 463.6 44.608C463.941 44.3093 464.261 43.9253 464.56 43.456C464.858 42.9867 465.05 42.3253 465.136 41.472C465.178 40.9173 465.221 40.384 465.264 39.872C465.306 39.3173 465.328 38.6987 465.328 38.016C465.37 37.2907 465.392 36.4373 465.392 35.456C465.392 34.4747 465.392 33.2373 465.392 31.744V22.592C465.392 21.3973 465.392 20.416 465.392 19.648C465.392 18.88 465.37 18.24 465.328 17.728C465.328 17.216 465.306 16.768 465.264 16.384C465.221 16 465.178 15.5733 465.136 15.104L458.288 16.832L458.096 16.576V13.824ZM482.575 34.24L482.127 31.68C482.895 30.3147 483.791 28.8 484.815 27.136C485.839 25.472 486.905 23.7653 488.015 22.016C489.124 20.2667 490.233 18.5387 491.343 16.832C492.495 15.1253 493.54 13.5467 494.479 12.096C495.46 10.6453 496.313 9.38667 497.039 8.32C497.807 7.25333 498.383 6.48533 498.767 6.016L505.487 5.44H505.999L506.767 6.784C506.681 7.38133 506.617 8.128 506.575 9.024C506.575 9.92 506.553 10.6027 506.511 11.072C506.468 11.7547 506.425 12.3947 506.383 12.992C506.383 13.5893 506.361 14.2933 506.319 15.104C506.319 15.9147 506.319 16.896 506.319 18.048C506.319 19.2 506.319 20.672 506.319 22.464V29.76H511.759L512.015 30.144L511.311 34.688L510.863 35.008H506.319C506.319 35.8613 506.319 36.608 506.319 37.248C506.319 37.8453 506.319 38.3787 506.319 38.848C506.361 39.3173 506.383 39.7653 506.383 40.192C506.425 40.576 506.489 41.0027 506.575 41.472C506.66 42.368 506.852 43.0507 507.151 43.52C507.492 43.9467 507.833 44.3093 508.175 44.608C508.516 44.9067 509.092 45.1413 509.903 45.312C510.756 45.4827 511.503 45.568 512.143 45.568L512.399 45.888L512.527 48L512.399 48.256C512.1 48.256 511.652 48.2347 511.055 48.192C510.457 48.1493 509.817 48.1067 509.135 48.064C508.495 48.064 507.876 48.0427 507.279 48C506.681 48 506.233 48 505.935 48H499.791C499.492 48 499.001 48 498.319 48C497.636 48.0427 496.911 48.064 496.143 48.064C495.417 48.1067 494.713 48.1493 494.031 48.192C493.348 48.2347 492.857 48.256 492.559 48.256L492.495 48L492.751 45.824L493.007 45.568C493.348 45.568 493.732 45.5467 494.159 45.504C494.628 45.4613 495.076 45.3973 495.503 45.312C495.972 45.2267 496.377 45.1413 496.719 45.056C497.103 44.928 497.38 44.7787 497.551 44.608C497.935 44.3093 498.276 43.9253 498.575 43.456C498.916 42.9867 499.087 42.3253 499.087 41.472C499.172 40.6613 499.236 39.744 499.279 38.72C499.321 37.696 499.343 36.4587 499.343 35.008H485.327L482.575 34.24ZM499.151 13.376C498.553 14.016 497.807 14.976 496.911 16.256C496.015 17.536 495.076 18.944 494.095 20.48C493.113 22.016 492.153 23.5947 491.215 25.216C490.276 26.8373 489.487 28.352 488.847 29.76H499.343V22.592C499.343 21.9093 499.343 21.1627 499.343 20.352C499.343 19.4987 499.321 18.6667 499.279 17.856C499.279 17.0027 499.257 16.192 499.215 15.424C499.215 14.656 499.193 13.9733 499.151 13.376ZM539.345 35.136C539.345 33.728 539.111 32.5973 538.641 31.744C538.215 30.848 537.639 30.144 536.913 29.632C536.231 29.12 535.441 28.7787 534.545 28.608C533.649 28.3947 532.753 28.288 531.857 28.288C530.321 28.288 528.807 28.4587 527.313 28.8C525.82 29.1413 524.455 29.6747 523.217 30.4H522.577L520.209 27.52L520.081 27.072L522.129 6.656L522.513 6.144H528.913C530.151 6.144 531.943 6.12266 534.289 6.08C536.636 5.99467 539.367 5.84533 542.481 5.632L543.057 6.144L544.017 14.336L543.633 14.784H541.201L540.817 14.464C540.647 13.696 540.433 13.0987 540.177 12.672C539.964 12.2027 539.516 11.8613 538.833 11.648C538.151 11.392 537.169 11.2427 535.889 11.2C534.609 11.1573 532.86 11.136 530.641 11.136H528.721C528.465 11.136 528.337 11.2427 528.337 11.456L527.057 23.872C527.868 23.4453 528.785 23.1253 529.809 22.912C530.876 22.6987 531.964 22.592 533.073 22.592C534.823 22.592 536.508 22.8053 538.129 23.232C539.751 23.616 541.18 24.2773 542.417 25.216C543.697 26.112 544.7 27.328 545.425 28.864C546.193 30.4 546.577 32.32 546.577 34.624C546.577 36.8853 546.193 38.8907 545.425 40.64C544.657 42.3893 543.569 43.8613 542.161 45.056C540.796 46.2507 539.153 47.168 537.233 47.808C535.313 48.4053 533.201 48.704 530.897 48.704C527.74 48.704 525.18 48.2347 523.217 47.296C521.297 46.3573 519.719 45.0987 518.481 43.52L518.417 42.88L519.121 37.056H522.705L522.897 37.312C522.983 39.0613 523.729 40.512 525.137 41.664C526.588 42.816 528.721 43.392 531.537 43.392C532.988 43.392 534.204 43.1787 535.185 42.752C536.209 42.2827 537.02 41.664 537.617 40.896C538.215 40.128 538.641 39.2533 538.897 38.272C539.196 37.248 539.345 36.2027 539.345 35.136ZM92.258 109.33C92.0014 109.33 91.5797 109.312 90.993 109.275C90.4064 109.238 89.8014 109.202 89.178 109.165C88.5547 109.128 87.9497 109.092 87.363 109.055C86.7764 109.018 86.3547 109 86.098 109H82.853C82.5964 109 82.1747 109.018 81.588 109.055C81.0014 109.092 80.3964 109.128 79.773 109.165C79.1497 109.202 78.5447 109.238 77.958 109.275C77.3714 109.312 76.9497 109.33 76.693 109.33L76.528 109.11L76.693 107.02L76.913 106.8H77.518C78.5814 106.8 79.4064 106.635 79.993 106.305C80.6164 105.938 80.928 105.223 80.928 104.16L79.718 86.175C79.6447 85.3317 79.5897 84.5983 79.553 83.975C79.553 83.3517 79.4797 82.6733 79.333 81.94C79.113 82.6 78.7647 83.535 78.288 84.745C77.8114 85.955 77.2614 87.3483 76.638 88.925C76.0514 90.465 75.4097 92.115 74.713 93.875C74.0164 95.635 73.3197 97.395 72.623 99.155C71.9264 100.878 71.2664 102.547 70.643 104.16C70.0564 105.737 69.543 107.112 69.103 108.285H64.593L54.968 82.105C54.968 82.985 54.9314 83.7183 54.858 84.305C54.7847 84.855 54.7114 85.57 54.638 86.45L53.978 95.47C53.9047 96.68 53.8314 97.6883 53.758 98.495C53.7214 99.265 53.6847 99.925 53.648 100.475C53.648 101.025 53.648 101.502 53.648 101.905C53.648 102.308 53.648 102.712 53.648 103.115C53.648 104.178 53.758 104.912 53.978 105.315C54.2347 105.718 54.5097 106.03 54.803 106.25C55.0964 106.543 55.4264 106.708 55.793 106.745C56.1964 106.782 56.6914 106.8 57.278 106.8L57.498 107.02L57.663 109.11L57.553 109.33C57.2964 109.33 56.9114 109.312 56.398 109.275C55.9214 109.238 55.4264 109.202 54.913 109.165C54.3997 109.128 53.8864 109.092 53.373 109.055C52.8964 109.018 52.5297 109 52.273 109H49.028C48.7714 109 48.3497 109.018 47.763 109.055C47.213 109.092 46.608 109.128 45.948 109.165C45.3247 109.202 44.7197 109.238 44.133 109.275C43.583 109.312 43.1797 109.33 42.923 109.33L42.813 109.11L42.978 107.02L43.308 106.8C43.858 106.8 44.3897 106.782 44.903 106.745C45.4164 106.672 45.8564 106.507 46.223 106.25C46.5164 105.993 46.8097 105.663 47.103 105.26C47.3964 104.857 47.6347 104.142 47.818 103.115C47.8914 102.675 47.983 102.07 48.093 101.3C48.203 100.53 48.3314 99.2283 48.478 97.395L49.248 87.33C49.358 86.0467 49.4314 84.965 49.468 84.085C49.5414 83.205 49.578 82.4533 49.578 81.83C49.6147 81.2067 49.633 80.675 49.633 80.235C49.6697 79.795 49.688 79.355 49.688 78.915C49.688 77.8517 49.523 77.1183 49.193 76.715C48.8997 76.3117 48.6064 76 48.313 75.78C47.983 75.4867 47.5614 75.3217 47.048 75.285C46.5347 75.2483 45.9847 75.23 45.398 75.23L45.123 75.01L44.958 72.92L45.068 72.7C45.3247 72.7 45.7464 72.7183 46.333 72.755C46.9197 72.7917 47.5247 72.8283 48.148 72.865C48.7714 72.9017 49.3764 72.9383 49.963 72.975C50.5497 73.0117 50.9714 73.03 51.228 73.03H55.463C55.7197 73.03 56.0497 73.0117 56.453 72.975C56.893 72.9383 57.2964 72.8833 57.663 72.81L57.938 72.975C57.9747 73.4883 58.103 74.2033 58.323 75.12C58.5797 76.0367 58.873 77.045 59.203 78.145C59.5697 79.245 59.973 80.4183 60.413 81.665C60.853 82.875 61.293 84.0667 61.733 85.24L65.198 94.15C65.6014 95.14 66.0047 96.185 66.408 97.285C66.8114 98.385 67.178 99.43 67.508 100.42C67.618 100.273 67.9114 99.6317 68.388 98.495C68.8647 97.3583 69.433 95.9467 70.093 94.26C70.753 92.5733 71.4497 90.7217 72.183 88.705C72.953 86.6517 73.668 84.635 74.328 82.655C75.0247 80.675 75.6114 78.8417 76.088 77.155C76.6014 75.4317 76.9314 74.0567 77.078 73.03L77.353 72.81C77.6464 72.8833 77.958 72.9383 78.288 72.975C78.618 73.0117 78.9297 73.03 79.223 73.03H83.953C84.2097 73.03 84.6314 73.0117 85.218 72.975C85.8047 72.9383 86.4097 72.9017 87.033 72.865C87.6564 72.8283 88.2614 72.7917 88.848 72.755C89.4347 72.7183 89.8564 72.7 90.113 72.7L90.223 72.92L90.058 75.01L89.783 75.23C89.233 75.23 88.683 75.2667 88.133 75.34C87.6197 75.3767 87.198 75.5233 86.868 75.78C86.5747 76 86.263 76.33 85.933 76.77C85.6397 77.21 85.493 77.925 85.493 78.915C85.493 79.4283 85.493 79.905 85.493 80.345C85.493 80.785 85.5114 81.2983 85.548 81.885C85.5847 82.4717 85.6214 83.1867 85.658 84.03C85.7314 84.8733 85.823 85.955 85.933 87.275L86.593 95.195C86.703 96.515 86.7947 97.5967 86.868 98.44C86.9414 99.2467 86.9964 99.925 87.033 100.475C87.1064 101.025 87.1614 101.502 87.198 101.905C87.2347 102.272 87.2897 102.675 87.363 103.115C87.5097 104.178 87.7297 104.912 88.023 105.315C88.3164 105.718 88.6097 106.03 88.903 106.25C89.233 106.543 89.6547 106.708 90.168 106.745C90.718 106.782 91.2864 106.8 91.873 106.8L92.148 107.02L92.313 109.11L92.258 109.33ZM118.477 94.975L117.157 95.965C115.177 95.965 113.215 95.9833 111.272 96.02C109.365 96.0567 107.404 96.075 105.387 96.075H100.877C100.84 96.3317 100.822 96.5883 100.822 96.845C100.822 97.065 100.822 97.285 100.822 97.505C100.822 98.4583 100.987 99.4117 101.317 100.365C101.647 101.318 102.16 102.18 102.857 102.95C103.59 103.683 104.507 104.288 105.607 104.765C106.707 105.205 108.045 105.425 109.622 105.425C110.759 105.425 111.95 105.278 113.197 104.985C114.48 104.655 115.672 104.233 116.772 103.72L117.707 104.105V106.085L117.157 106.69C116.277 107.387 114.975 108.047 113.252 108.67C111.565 109.293 109.732 109.605 107.752 109.605C105.809 109.605 104.03 109.293 102.417 108.67C100.84 108.01 99.4655 107.093 98.2921 105.92C97.1555 104.747 96.2571 103.353 95.5971 101.74C94.9738 100.127 94.6621 98.33 94.6621 96.35C94.6621 94.3333 94.9921 92.5 95.6521 90.85C96.3121 89.2 97.2105 87.7883 98.3471 86.615C99.5205 85.4417 100.877 84.525 102.417 83.865C103.994 83.205 105.68 82.875 107.477 82.875C108.43 82.875 109.494 83.0033 110.667 83.26C111.877 83.5167 113.032 84.0117 114.132 84.745C115.232 85.4417 116.222 86.45 117.102 87.77C117.982 89.0533 118.587 90.7583 118.917 92.885L118.477 94.975ZM107.532 87C105.735 87 104.287 87.55 103.187 88.65C102.124 89.7133 101.445 90.96 101.152 92.39H103.902C105.185 92.39 106.45 92.3717 107.697 92.335C108.944 92.2617 110.209 92.225 111.492 92.225C111.969 92.225 112.317 92.0967 112.537 91.84C112.757 91.5467 112.867 91.2533 112.867 90.96C112.867 89.86 112.335 88.925 111.272 88.155C110.209 87.385 108.962 87 107.532 87ZM143.273 108.065C143.273 107.808 143.328 107.332 143.438 106.635C143.585 105.902 143.695 105.26 143.768 104.71L143.713 104.49C142.76 106.177 141.44 107.46 139.753 108.34C138.066 109.183 136.306 109.605 134.473 109.605C132.456 109.605 130.696 109.238 129.193 108.505C127.726 107.772 126.498 106.8 125.508 105.59C124.518 104.38 123.785 102.987 123.308 101.41C122.831 99.8333 122.593 98.2017 122.593 96.515C122.593 94.0583 122.978 91.9683 123.748 90.245C124.555 88.485 125.563 87.0733 126.773 86.01C127.983 84.91 129.303 84.1217 130.733 83.645C132.2 83.1317 133.611 82.875 134.968 82.875C136.618 82.875 138.25 83.26 139.863 84.03C141.476 84.8 142.796 86.065 143.823 87.825L143.933 87.605C143.86 86.5417 143.823 85.46 143.823 84.36C143.823 83.2233 143.823 82.1233 143.823 81.06C143.823 79.9233 143.823 78.9883 143.823 78.255C143.823 77.485 143.805 76.8433 143.768 76.33C143.768 75.8167 143.75 75.3583 143.713 74.955C143.713 74.5517 143.695 74.13 143.658 73.69C143.621 73.3233 143.493 72.975 143.273 72.645C143.053 72.315 142.888 72.095 142.778 71.985C142.265 71.5817 141.751 71.325 141.238 71.215C140.761 71.105 140.193 71.05 139.533 71.05L139.313 70.83V69.015L139.533 68.795H142.668C143.511 68.795 144.391 68.795 145.308 68.795C146.261 68.7583 147.105 68.685 147.838 68.575L149.763 68.3L150.093 69.345C150.02 69.4917 149.946 69.7667 149.873 70.17C149.836 70.5367 149.8 70.94 149.763 71.38C149.763 71.82 149.745 72.2417 149.708 72.645C149.708 73.0483 149.708 73.36 149.708 73.58C149.708 74.13 149.69 74.6617 149.653 75.175C149.653 75.6517 149.653 76.22 149.653 76.88C149.653 77.5033 149.635 78.2917 149.598 79.245C149.598 80.1617 149.598 81.3533 149.598 82.82V94.81C149.598 96.35 149.598 97.5967 149.598 98.55C149.635 99.4667 149.653 100.237 149.653 100.86C149.69 101.483 149.708 102.033 149.708 102.51C149.745 102.95 149.781 103.5 149.818 104.16C149.891 104.82 149.983 105.297 150.093 105.59C150.24 105.883 150.441 106.122 150.698 106.305C150.991 106.598 151.395 106.782 151.908 106.855C152.421 106.892 152.898 106.91 153.338 106.91L153.558 107.13L153.668 109L153.558 109.22C152.935 109.147 152.256 109.092 151.523 109.055C150.79 109.018 150.093 109 149.433 109C148.443 109 147.453 109 146.463 109C145.473 109.037 144.538 109.092 143.658 109.165L143.273 108.065ZM128.973 96.46C128.973 97.56 129.101 98.6417 129.358 99.705C129.651 100.732 130.073 101.667 130.623 102.51C131.173 103.317 131.87 103.977 132.713 104.49C133.593 104.967 134.62 105.205 135.793 105.205C137.04 105.205 138.14 105.003 139.093 104.6C140.083 104.16 140.908 103.647 141.568 103.06C142.265 102.437 142.796 101.795 143.163 101.135C143.566 100.475 143.786 99.9067 143.823 99.43V93.325C143.75 92.8483 143.53 92.28 143.163 91.62C142.833 90.9233 142.338 90.2633 141.678 89.64C141.055 89.0167 140.266 88.485 139.313 88.045C138.36 87.5683 137.223 87.33 135.903 87.33C134.693 87.33 133.648 87.605 132.768 88.155C131.888 88.6683 131.155 89.3467 130.568 90.19C130.018 91.0333 129.615 92.005 129.358 93.105C129.101 94.205 128.973 95.3233 128.973 96.46ZM180.406 94.975L179.086 95.965C177.106 95.965 175.144 95.9833 173.201 96.02C171.294 96.0567 169.333 96.075 167.316 96.075H162.806C162.769 96.3317 162.751 96.5883 162.751 96.845C162.751 97.065 162.751 97.285 162.751 97.505C162.751 98.4583 162.916 99.4117 163.246 100.365C163.576 101.318 164.089 102.18 164.786 102.95C165.519 103.683 166.436 104.288 167.536 104.765C168.636 105.205 169.974 105.425 171.551 105.425C172.688 105.425 173.879 105.278 175.126 104.985C176.409 104.655 177.601 104.233 178.701 103.72L179.636 104.105V106.085L179.086 106.69C178.206 107.387 176.904 108.047 175.181 108.67C173.494 109.293 171.661 109.605 169.681 109.605C167.738 109.605 165.959 109.293 164.346 108.67C162.769 108.01 161.394 107.093 160.221 105.92C159.084 104.747 158.186 103.353 157.526 101.74C156.903 100.127 156.591 98.33 156.591 96.35C156.591 94.3333 156.921 92.5 157.581 90.85C158.241 89.2 159.139 87.7883 160.276 86.615C161.449 85.4417 162.806 84.525 164.346 83.865C165.923 83.205 167.609 82.875 169.406 82.875C170.359 82.875 171.423 83.0033 172.596 83.26C173.806 83.5167 174.961 84.0117 176.061 84.745C177.161 85.4417 178.151 86.45 179.031 87.77C179.911 89.0533 180.516 90.7583 180.846 92.885L180.406 94.975ZM169.461 87C167.664 87 166.216 87.55 165.116 88.65C164.053 89.7133 163.374 90.96 163.081 92.39H165.831C167.114 92.39 168.379 92.3717 169.626 92.335C170.873 92.2617 172.138 92.225 173.421 92.225C173.898 92.225 174.246 92.0967 174.466 91.84C174.686 91.5467 174.796 91.2533 174.796 90.96C174.796 89.86 174.264 88.925 173.201 88.155C172.138 87.385 170.891 87 169.461 87ZM197.777 109.22C197.52 109.22 197.135 109.202 196.622 109.165C196.108 109.128 195.558 109.092 194.972 109.055C194.385 109.055 193.835 109.037 193.322 109C192.808 109 192.423 109 192.167 109H189.197C188.94 109 188.537 109 187.987 109C187.473 109.037 186.923 109.055 186.337 109.055C185.787 109.092 185.237 109.128 184.687 109.165C184.173 109.202 183.788 109.22 183.532 109.22L183.477 109L183.587 107.13L183.752 106.91C184.302 106.91 184.87 106.892 185.457 106.855C186.043 106.782 186.483 106.598 186.777 106.305C187.033 106.048 187.217 105.718 187.327 105.315C187.437 104.912 187.528 104.343 187.602 103.61C187.638 103.353 187.657 103.097 187.657 102.84C187.693 102.583 187.712 102.308 187.712 102.015C187.748 101.722 187.767 101.373 187.767 100.97C187.767 100.567 187.767 100.072 187.767 99.485V78.09C187.767 77.3933 187.767 76.8433 187.767 76.44C187.767 76 187.748 75.6333 187.712 75.34C187.712 75.0467 187.693 74.79 187.657 74.57C187.657 74.3133 187.638 74.02 187.602 73.69C187.528 73.3233 187.418 72.975 187.272 72.645C187.125 72.315 186.997 72.095 186.887 71.985C186.52 71.5083 186.062 71.2333 185.512 71.16C184.962 71.0867 184.393 71.05 183.807 71.05L183.587 70.83V68.96L183.807 68.795H186.612C187.455 68.795 188.353 68.795 189.307 68.795C190.26 68.7583 191.103 68.685 191.837 68.575L193.762 68.3L194.092 69.345C194.018 69.4917 193.945 69.73 193.872 70.06C193.835 70.3533 193.798 70.6833 193.762 71.05C193.762 71.38 193.743 71.7283 193.707 72.095C193.707 72.425 193.707 72.7 193.707 72.92C193.707 73.2133 193.688 73.4883 193.652 73.745C193.652 73.965 193.652 74.24 193.652 74.57C193.652 74.8633 193.633 75.2483 193.597 75.725C193.597 76.2017 193.597 76.7883 193.597 77.485V98.825C193.597 99.5583 193.597 100.163 193.597 100.64C193.633 101.08 193.652 101.465 193.652 101.795C193.688 102.125 193.707 102.437 193.707 102.73C193.743 102.987 193.78 103.28 193.817 103.61C193.89 104.38 193.963 104.967 194.037 105.37C194.147 105.737 194.348 106.048 194.642 106.305C194.935 106.598 195.338 106.782 195.852 106.855C196.402 106.892 196.952 106.91 197.502 106.91L197.777 107.185L197.887 109L197.777 109.22ZM214.159 109.22C213.902 109.22 213.517 109.202 213.004 109.165C212.49 109.128 211.94 109.092 211.354 109.055C210.767 109.055 210.217 109.037 209.704 109C209.19 109 208.805 109 208.549 109H205.579C205.322 109 204.919 109 204.369 109C203.855 109.037 203.305 109.055 202.719 109.055C202.169 109.092 201.619 109.128 201.069 109.165C200.555 109.202 200.17 109.22 199.914 109.22L199.859 109L199.969 107.13L200.134 106.91C200.684 106.91 201.252 106.892 201.839 106.855C202.425 106.782 202.865 106.598 203.159 106.305C203.415 106.048 203.599 105.718 203.709 105.315C203.819 104.912 203.91 104.343 203.984 103.61C204.02 103.353 204.039 103.097 204.039 102.84C204.075 102.583 204.094 102.308 204.094 102.015C204.13 101.722 204.149 101.373 204.149 100.97C204.149 100.567 204.149 100.072 204.149 99.485V78.09C204.149 77.3933 204.149 76.8433 204.149 76.44C204.149 76 204.13 75.6333 204.094 75.34C204.094 75.0467 204.075 74.79 204.039 74.57C204.039 74.3133 204.02 74.02 203.984 73.69C203.91 73.3233 203.8 72.975 203.654 72.645C203.507 72.315 203.379 72.095 203.269 71.985C202.902 71.5083 202.444 71.2333 201.894 71.16C201.344 71.0867 200.775 71.05 200.189 71.05L199.969 70.83V68.96L200.189 68.795H202.994C203.837 68.795 204.735 68.795 205.689 68.795C206.642 68.7583 207.485 68.685 208.219 68.575L210.144 68.3L210.474 69.345C210.4 69.4917 210.327 69.73 210.254 70.06C210.217 70.3533 210.18 70.6833 210.144 71.05C210.144 71.38 210.125 71.7283 210.089 72.095C210.089 72.425 210.089 72.7 210.089 72.92C210.089 73.2133 210.07 73.4883 210.034 73.745C210.034 73.965 210.034 74.24 210.034 74.57C210.034 74.8633 210.015 75.2483 209.979 75.725C209.979 76.2017 209.979 76.7883 209.979 77.485V98.825C209.979 99.5583 209.979 100.163 209.979 100.64C210.015 101.08 210.034 101.465 210.034 101.795C210.07 102.125 210.089 102.437 210.089 102.73C210.125 102.987 210.162 103.28 210.199 103.61C210.272 104.38 210.345 104.967 210.419 105.37C210.529 105.737 210.73 106.048 211.024 106.305C211.317 106.598 211.72 106.782 212.234 106.855C212.784 106.892 213.334 106.91 213.884 106.91L214.159 107.185L214.269 109L214.159 109.22ZM231.09 109.22C230.834 109.22 230.449 109.202 229.935 109.165C229.422 109.128 228.872 109.092 228.285 109.055C227.699 109.055 227.149 109.037 226.635 109C226.122 109 225.737 109 225.48 109H222.51C222.254 109 221.85 109 221.3 109C220.787 109.037 220.237 109.055 219.65 109.055C219.1 109.092 218.55 109.128 218 109.165C217.487 109.202 217.102 109.22 216.845 109.22L216.79 109L216.9 107.13L217.065 106.91C217.615 106.91 218.184 106.892 218.77 106.855C219.357 106.782 219.797 106.598 220.09 106.305C220.347 106.048 220.53 105.718 220.64 105.315C220.75 104.912 220.842 104.343 220.915 103.61C220.952 103.023 220.989 102.437 221.025 101.85C221.062 101.227 221.08 100.255 221.08 98.935V94.37C221.08 93.6 221.08 92.9583 221.08 92.445C221.08 91.895 221.062 91.4367 221.025 91.07C221.025 90.6667 221.007 90.3 220.97 89.97C220.97 89.64 220.952 89.2733 220.915 88.87C220.842 88.4667 220.732 88.1 220.585 87.77C220.439 87.44 220.31 87.2383 220.2 87.165C219.834 86.6883 219.375 86.4133 218.825 86.34C218.275 86.2667 217.707 86.23 217.12 86.23L216.9 86.01V84.14L217.12 83.975H219.925C220.769 83.975 221.667 83.975 222.62 83.975C223.574 83.9383 224.417 83.865 225.15 83.755L227.075 83.48L227.405 84.525C227.332 84.7083 227.259 85.02 227.185 85.46C227.149 85.8633 227.112 86.3033 227.075 86.78C227.075 87.2567 227.057 87.715 227.02 88.155C227.02 88.595 227.02 88.9433 227.02 89.2C227.02 89.4933 227.002 89.7867 226.965 90.08C226.965 90.3367 226.965 90.6483 226.965 91.015C226.965 91.3817 226.947 91.8217 226.91 92.335C226.91 92.8483 226.91 93.5083 226.91 94.315V98.275C226.91 99.0817 226.91 99.7417 226.91 100.255C226.947 100.768 226.965 101.208 226.965 101.575C227.002 101.942 227.02 102.29 227.02 102.62C227.057 102.913 227.094 103.243 227.13 103.61C227.204 104.417 227.277 105.022 227.35 105.425C227.46 105.792 227.662 106.085 227.955 106.305C228.249 106.562 228.652 106.727 229.165 106.8C229.715 106.873 230.265 106.91 230.815 106.91L231.09 107.185L231.2 109L231.09 109.22ZM218.55 80.29L217.12 77.54L217.285 77.155L227.24 71.6C228.267 71.6733 229.019 72.0583 229.495 72.755C230.009 73.415 230.265 74.2217 230.265 75.175C230.265 75.5417 230.192 75.89 230.045 76.22L218.99 80.455L218.55 80.29ZM243.886 88.485C244.729 86.8717 245.884 85.5333 247.351 84.47C248.817 83.4067 250.541 82.875 252.521 82.875C253.657 82.875 254.776 83.0217 255.876 83.315C256.976 83.6083 257.966 84.0667 258.846 84.69C259.762 85.3133 260.514 86.12 261.101 87.11C261.724 88.0633 262.127 89.2 262.311 90.52C262.421 91.4733 262.476 92.4817 262.476 93.545C262.512 94.6083 262.531 95.6717 262.531 96.735C262.567 97.9817 262.586 99.1367 262.586 100.2C262.586 101.227 262.586 102.363 262.586 103.61C262.586 104.453 262.677 105.095 262.861 105.535C263.081 105.938 263.337 106.213 263.631 106.36C264.034 106.58 264.456 106.727 264.896 106.8C265.372 106.873 265.904 106.91 266.491 106.91L266.656 107.13L266.766 109L266.656 109.22C265.886 109.147 265.024 109.092 264.071 109.055C263.154 109.018 262.256 109 261.376 109C260.496 109 259.616 109 258.736 109C257.856 109.037 257.031 109.092 256.261 109.165L255.876 108.065C255.986 107.588 256.077 106.873 256.151 105.92C256.261 104.967 256.334 104.197 256.371 103.61C256.444 102.217 256.499 100.915 256.536 99.705C256.572 98.495 256.591 97.4133 256.591 96.46C256.591 95.6167 256.572 94.7 256.536 93.71C256.499 92.72 256.371 91.8583 256.151 91.125C255.857 89.9517 255.252 89.09 254.336 88.54C253.456 87.9533 252.429 87.66 251.256 87.66C250.156 87.66 249.147 87.8617 248.231 88.265C247.314 88.6683 246.526 89.1633 245.866 89.75C245.242 90.3 244.747 90.8867 244.381 91.51C244.014 92.1333 243.831 92.6833 243.831 93.16V98.825C243.831 99.5583 243.831 100.163 243.831 100.64C243.831 101.08 243.831 101.465 243.831 101.795C243.867 102.125 243.886 102.437 243.886 102.73C243.922 102.987 243.959 103.28 243.996 103.61C244.069 104.38 244.216 104.967 244.436 105.37C244.692 105.737 244.967 106.048 245.261 106.305C245.554 106.598 245.902 106.782 246.306 106.855C246.709 106.892 247.186 106.91 247.736 106.91L248.011 107.185L248.121 109L248.011 109.22C247.754 109.22 247.369 109.202 246.856 109.165C246.342 109.128 245.792 109.092 245.206 109.055C244.619 109.055 244.069 109.037 243.556 109C243.042 109 242.657 109 242.401 109H239.376C239.119 109 238.716 109 238.166 109C237.652 109.037 237.102 109.055 236.516 109.055C235.966 109.092 235.416 109.128 234.866 109.165C234.352 109.202 233.967 109.22 233.711 109.22L233.656 109L233.766 107.13L233.931 106.91C234.517 106.91 235.031 106.892 235.471 106.855C235.947 106.782 236.332 106.598 236.626 106.305C236.882 106.048 237.121 105.718 237.341 105.315C237.561 104.912 237.707 104.343 237.781 103.61C237.817 103.353 237.836 103.097 237.836 102.84C237.872 102.583 237.891 102.308 237.891 102.015C237.927 101.722 237.946 101.373 237.946 100.97C237.946 100.567 237.946 100.072 237.946 99.485V93.82C237.946 93.1233 237.946 92.5367 237.946 92.06C237.946 91.5833 237.927 91.1617 237.891 90.795C237.891 90.4283 237.872 90.0983 237.836 89.805C237.836 89.5117 237.817 89.2 237.781 88.87C237.707 88.5033 237.597 88.155 237.451 87.825C237.304 87.495 237.176 87.275 237.066 87.165C236.699 86.6883 236.241 86.4133 235.691 86.34C235.141 86.2667 234.572 86.23 233.986 86.23L233.766 86.01V84.14L233.986 83.975H236.791C237.634 83.975 238.532 83.975 239.486 83.975C240.476 83.9383 241.337 83.865 242.071 83.755L243.996 83.48L244.326 84.525C244.032 84.9283 243.849 85.4967 243.776 86.23C243.739 86.9267 243.721 87.6417 243.721 88.375L243.886 88.485ZM271.038 115.435L270.158 114.83L270.048 114.06C270.451 113.143 270.763 112.153 270.983 111.09C271.203 110.063 271.313 109.348 271.313 108.945C271.313 108.358 271.166 107.79 270.873 107.24C270.579 106.653 270.433 105.957 270.433 105.15C270.433 104.71 270.579 104.325 270.873 103.995C271.203 103.665 271.588 103.39 272.028 103.17C272.504 102.95 272.999 102.785 273.513 102.675C274.063 102.565 274.576 102.51 275.053 102.51C275.529 102.51 275.914 102.62 276.208 102.84C276.501 103.06 276.721 103.317 276.868 103.61C277.051 103.903 277.161 104.215 277.198 104.545C277.234 104.875 277.253 105.168 277.253 105.425C277.253 106.415 277.051 107.46 276.648 108.56C276.244 109.623 275.749 110.632 275.163 111.585C274.576 112.538 273.971 113.363 273.348 114.06C272.761 114.757 272.248 115.215 271.808 115.435H271.038ZM300.758 78.915C300.685 78.2917 300.538 77.6867 300.318 77.1C300.135 76.4767 299.842 76.0183 299.438 75.725C299.145 75.5417 298.778 75.4133 298.338 75.34C297.898 75.2667 297.293 75.23 296.523 75.23L296.248 75.01L296.083 72.92L296.193 72.7C296.523 72.7367 296.963 72.7733 297.513 72.81C298.1 72.8467 298.687 72.8833 299.273 72.92C299.897 72.9567 300.483 72.9933 301.033 73.03C301.583 73.03 302.023 73.03 302.353 73.03H305.598C305.928 73.03 306.35 73.03 306.863 73.03C307.413 72.9933 307.982 72.9567 308.568 72.92C309.192 72.8833 309.778 72.8467 310.328 72.81C310.915 72.7733 311.392 72.7367 311.758 72.7L311.868 72.92L311.703 75.01L311.483 75.23C310.567 75.23 309.888 75.285 309.448 75.395C309.045 75.4683 308.715 75.5967 308.458 75.78C307.688 76.2933 307.248 77.3383 307.138 78.915C307.102 79.2817 307.065 79.6667 307.028 80.07C307.028 80.4367 307.028 80.9317 307.028 81.555C307.028 82.1417 307.028 82.8933 307.028 83.81C307.028 84.7267 307.028 85.8817 307.028 87.275V94.645C307.028 96.075 307.028 97.2483 307.028 98.165C307.028 99.045 307.028 99.7967 307.028 100.42C307.065 101.007 307.083 101.538 307.083 102.015C307.12 102.455 307.175 102.987 307.248 103.61C307.285 104.343 307.707 104.71 308.513 104.71H313.628C314.838 104.71 315.792 104.692 316.488 104.655C317.222 104.582 317.79 104.435 318.193 104.215C318.597 103.958 318.908 103.61 319.128 103.17C319.348 102.73 319.55 102.125 319.733 101.355L319.898 101.135H322.428L321.438 108.67L320.998 109.22C320.705 109.183 320.247 109.147 319.623 109.11C319 109.11 318.34 109.092 317.643 109.055C316.947 109.055 316.25 109.037 315.553 109C314.893 109 314.38 109 314.013 109H302.353C302.097 109 301.675 109 301.088 109C300.538 109.037 299.952 109.073 299.328 109.11C298.705 109.147 298.1 109.183 297.513 109.22C296.927 109.257 296.487 109.293 296.193 109.33L296.083 109.11L296.248 107.02L296.523 106.8C297.917 106.8 298.87 106.598 299.383 106.195C299.677 105.938 299.952 105.535 300.208 104.985C300.502 104.435 300.685 103.793 300.758 103.06C300.795 102.693 300.813 102.198 300.813 101.575C300.85 100.915 300.868 100.237 300.868 99.54C300.905 98.8433 300.923 98.2017 300.923 97.615C300.923 96.9917 300.923 96.5517 300.923 96.295V87.33C300.923 85.3133 300.905 83.5533 300.868 82.05C300.868 80.51 300.832 79.465 300.758 78.915ZM340.155 108.615C340.265 108.285 340.338 107.808 340.375 107.185C340.448 106.562 340.54 105.993 340.65 105.48L340.595 105.315C340.155 105.865 339.641 106.397 339.055 106.91C338.505 107.423 337.881 107.882 337.185 108.285C336.488 108.688 335.736 109 334.93 109.22C334.16 109.477 333.335 109.605 332.455 109.605C331.135 109.605 329.98 109.403 328.99 109C328 108.597 327.175 108.065 326.515 107.405C325.855 106.745 325.341 105.975 324.975 105.095C324.645 104.215 324.48 103.298 324.48 102.345C324.48 100.915 324.791 99.6683 325.415 98.605C326.038 97.5417 326.863 96.68 327.89 96.02C328.843 95.3967 329.961 94.92 331.245 94.59C332.528 94.2233 333.775 93.9483 334.985 93.765C336.195 93.5817 337.295 93.4717 338.285 93.435C339.275 93.3617 339.935 93.325 340.265 93.325H341.035C340.998 92.1883 340.925 91.3083 340.815 90.685C340.705 90.025 340.558 89.475 340.375 89.035C340.045 88.3017 339.495 87.7883 338.725 87.495C337.991 87.165 337.111 87 336.085 87C335.461 87 334.783 87.055 334.05 87.165C333.353 87.2383 332.693 87.4033 332.07 87.66C331.446 87.9167 330.896 88.2833 330.42 88.76C329.98 89.2 329.723 89.7867 329.65 90.52L329.43 90.685H327.67L327.175 85.515L327.34 85.185C327.56 84.965 327.981 84.7267 328.605 84.47C329.228 84.2133 329.98 83.975 330.86 83.755C331.74 83.4983 332.693 83.2967 333.72 83.15C334.783 82.9667 335.846 82.875 336.91 82.875C338.34 82.875 339.678 83.0583 340.925 83.425C342.171 83.755 343.235 84.2683 344.115 84.965C345.031 85.6617 345.746 86.5417 346.26 87.605C346.773 88.6317 347.03 89.8417 347.03 91.235C347.03 92.7383 347.011 94.0217 346.975 95.085C346.975 96.1483 346.956 97.1383 346.92 98.055C346.883 98.9717 346.846 99.87 346.81 100.75C346.81 101.593 346.81 102.547 346.81 103.61C346.883 104.453 346.975 105.058 347.085 105.425C347.195 105.792 347.378 106.085 347.635 106.305C347.928 106.598 348.368 106.782 348.955 106.855C349.578 106.892 350.146 106.91 350.66 106.91L350.825 107.13L350.935 109L350.88 109.22C350.256 109.147 349.541 109.092 348.735 109.055C347.928 109.018 347.176 109 346.48 109C345.453 109 344.426 109 343.4 109C342.373 109.037 341.401 109.092 340.485 109.165L340.155 108.615ZM340.155 102.675C340.265 102.492 340.375 102.272 340.485 102.015C340.631 101.758 340.723 101.447 340.76 101.08L341.035 96.405H340.54C339.403 96.405 338.285 96.4783 337.185 96.625C336.085 96.7717 335.095 97.0467 334.215 97.45C333.335 97.8533 332.62 98.4217 332.07 99.155C331.52 99.8883 331.245 100.842 331.245 102.015C331.245 103.005 331.483 103.793 331.96 104.38C332.473 104.967 333.151 105.26 333.995 105.26C334.618 105.26 335.241 105.187 335.865 105.04C336.525 104.857 337.13 104.637 337.68 104.38C338.23 104.123 338.725 103.848 339.165 103.555C339.605 103.225 339.935 102.932 340.155 102.675ZM374.673 104.27C373.683 105.847 372.454 107.13 370.988 108.12C369.521 109.11 367.669 109.605 365.433 109.605C364.406 109.605 363.398 109.477 362.408 109.22C361.454 108.963 360.574 108.56 359.768 108.01C358.998 107.46 358.319 106.745 357.733 105.865C357.146 104.948 356.724 103.848 356.468 102.565C356.394 102.235 356.321 101.868 356.248 101.465C356.211 101.062 356.174 100.548 356.138 99.925C356.138 99.265 356.119 98.4767 356.083 97.56C356.083 96.6067 356.083 95.4333 356.083 94.04V89.09C356.083 88.6867 355.991 88.2833 355.808 87.88C355.624 87.4767 355.478 87.22 355.368 87.11C355.001 86.67 354.543 86.4133 353.993 86.34C353.443 86.2667 352.874 86.23 352.288 86.23L352.123 86.01V84.14L352.288 83.975H354.983C355.826 83.975 356.724 83.975 357.678 83.975C358.631 83.9383 359.474 83.865 360.208 83.755L362.133 83.48L362.463 84.525C362.389 84.6717 362.334 84.9467 362.298 85.35C362.261 85.7167 362.224 86.12 362.188 86.56C362.151 87 362.133 87.4217 362.133 87.825C362.133 88.2283 362.133 88.54 362.133 88.76C362.133 89.2367 362.114 89.8233 362.078 90.52C362.078 91.18 362.059 91.8767 362.023 92.61C362.023 93.3067 362.004 93.985 361.968 94.645C361.968 95.305 361.968 95.855 361.968 96.295C361.968 97.2483 362.004 98.22 362.078 99.21C362.151 100.163 362.298 101.043 362.518 101.85C362.884 103.133 363.434 104.087 364.168 104.71C364.938 105.297 366.001 105.59 367.358 105.59C368.458 105.59 369.429 105.407 370.273 105.04C371.153 104.673 371.904 104.233 372.528 103.72C373.151 103.207 373.664 102.657 374.068 102.07C374.471 101.447 374.728 100.897 374.838 100.42V94.92C374.838 93.2333 374.801 91.9317 374.728 91.015C374.691 90.0983 374.636 89.3833 374.563 88.87C374.489 88.3933 374.379 88.0083 374.233 87.715C374.123 87.4217 374.013 87.22 373.903 87.11C373.499 86.67 372.986 86.4133 372.363 86.34C371.739 86.2667 371.244 86.23 370.878 86.23L370.658 86.01V84.14L370.878 83.975H371.868C372.234 83.975 372.711 83.975 373.298 83.975C373.921 83.975 374.563 83.975 375.223 83.975C375.883 83.9383 376.524 83.92 377.148 83.92C377.771 83.8833 378.303 83.8283 378.743 83.755L380.668 83.48L380.998 84.525C380.814 85.5883 380.686 86.9817 380.613 88.705C380.576 89.6217 380.539 90.3733 380.503 90.96C380.503 91.51 380.503 91.9683 380.503 92.335C380.503 92.7017 380.503 92.995 380.503 93.215C380.503 93.3983 380.503 93.5817 380.503 93.765V98.275C380.503 100.292 380.558 102.07 380.668 103.61C380.741 104.307 380.833 104.875 380.943 105.315C381.053 105.718 381.254 106.048 381.548 106.305C381.878 106.598 382.263 106.782 382.703 106.855C383.143 106.892 383.674 106.91 384.298 106.91L384.518 107.13L384.628 109L384.518 109.165C383.821 109.092 383.143 109.037 382.483 109C381.823 109 381.053 109 380.173 109C379.293 109 378.358 109 377.368 109C376.378 109.037 375.424 109.092 374.508 109.165L374.178 108.065C374.288 107.662 374.398 107.13 374.508 106.47C374.654 105.773 374.764 105.077 374.838 104.38L374.673 104.27ZM396.948 89.53C397.314 88.8333 397.718 88.1 398.158 87.33C398.634 86.56 399.166 85.845 399.753 85.185C400.339 84.525 400.999 83.975 401.733 83.535C402.503 83.095 403.364 82.875 404.318 82.875C404.611 82.875 404.959 82.9117 405.363 82.985C405.803 83.0217 406.224 83.095 406.628 83.205C407.068 83.315 407.489 83.4433 407.893 83.59C408.296 83.7367 408.608 83.9017 408.828 84.085L409.213 84.415L408.553 90.355H406.188C406.078 89.915 405.784 89.475 405.308 89.035C404.868 88.5583 404.171 88.32 403.218 88.32C402.374 88.32 401.604 88.54 400.908 88.98C400.211 89.3833 399.606 89.8967 399.093 90.52C398.579 91.1433 398.176 91.8217 397.883 92.555C397.589 93.2517 397.443 93.8933 397.443 94.48V98.275C397.443 99.6683 397.443 100.713 397.443 101.41C397.479 102.107 397.516 102.712 397.553 103.225C397.626 104.032 397.718 104.692 397.828 105.205C397.974 105.682 398.194 106.048 398.488 106.305C398.634 106.452 398.854 106.58 399.148 106.69C399.478 106.763 399.808 106.818 400.138 106.855C400.468 106.892 400.779 106.91 401.073 106.91C401.403 106.91 401.659 106.91 401.843 106.91L402.118 107.185L402.228 109L402.118 109.22C401.898 109.22 401.531 109.202 401.018 109.165C400.504 109.128 399.954 109.092 399.368 109.055C398.781 109.055 398.231 109.037 397.718 109C397.204 109 396.838 109 396.618 109H393.098C392.841 109 392.438 109 391.888 109C391.374 109.037 390.824 109.055 390.238 109.055C389.651 109.092 389.083 109.128 388.533 109.165C388.019 109.202 387.634 109.22 387.378 109.22L387.323 109L387.433 107.13L387.598 106.91C388.221 106.91 388.808 106.892 389.358 106.855C389.908 106.782 390.329 106.598 390.623 106.305C390.916 106.048 391.118 105.718 391.228 105.315C391.374 104.912 391.484 104.215 391.558 103.225C391.594 102.785 391.613 102.198 391.613 101.465C391.613 100.732 391.613 99.705 391.613 98.385V94.37C391.613 93.6 391.613 92.9583 391.613 92.445C391.613 91.895 391.594 91.4183 391.558 91.015C391.558 90.6117 391.539 90.245 391.503 89.915C391.503 89.585 391.484 89.2367 391.448 88.87C391.374 88.5033 391.264 88.155 391.118 87.825C390.971 87.495 390.843 87.275 390.733 87.165C390.366 86.6883 389.908 86.4133 389.358 86.34C388.808 86.2667 388.239 86.23 387.653 86.23L387.433 86.01V84.14L387.653 83.975H388.643C389.449 83.975 390.494 83.975 391.778 83.975C393.061 83.9383 394.179 83.865 395.133 83.755L397.058 83.48L397.388 84.525C397.168 85.2217 397.003 86.01 396.893 86.89C396.819 87.77 396.783 88.6317 396.783 89.475L396.948 89.53ZM435.587 94.975L434.267 95.965C432.287 95.965 430.325 95.9833 428.382 96.02C426.475 96.0567 424.513 96.075 422.497 96.075H417.987C417.95 96.3317 417.932 96.5883 417.932 96.845C417.932 97.065 417.932 97.285 417.932 97.505C417.932 98.4583 418.097 99.4117 418.427 100.365C418.757 101.318 419.27 102.18 419.967 102.95C420.7 103.683 421.617 104.288 422.717 104.765C423.817 105.205 425.155 105.425 426.732 105.425C427.868 105.425 429.06 105.278 430.307 104.985C431.59 104.655 432.782 104.233 433.882 103.72L434.817 104.105V106.085L434.267 106.69C433.387 107.387 432.085 108.047 430.362 108.67C428.675 109.293 426.842 109.605 424.862 109.605C422.918 109.605 421.14 109.293 419.527 108.67C417.95 108.01 416.575 107.093 415.402 105.92C414.265 104.747 413.367 103.353 412.707 101.74C412.083 100.127 411.772 98.33 411.772 96.35C411.772 94.3333 412.102 92.5 412.762 90.85C413.422 89.2 414.32 87.7883 415.457 86.615C416.63 85.4417 417.987 84.525 419.527 83.865C421.103 83.205 422.79 82.875 424.587 82.875C425.54 82.875 426.603 83.0033 427.777 83.26C428.987 83.5167 430.142 84.0117 431.242 84.745C432.342 85.4417 433.332 86.45 434.212 87.77C435.092 89.0533 435.697 90.7583 436.027 92.885L435.587 94.975ZM424.642 87C422.845 87 421.397 87.55 420.297 88.65C419.233 89.7133 418.555 90.96 418.262 92.39H421.012C422.295 92.39 423.56 92.3717 424.807 92.335C426.053 92.2617 427.318 92.225 428.602 92.225C429.078 92.225 429.427 92.0967 429.647 91.84C429.867 91.5467 429.977 91.2533 429.977 90.96C429.977 89.86 429.445 88.925 428.382 88.155C427.318 87.385 426.072 87 424.642 87ZM452.957 109.22C452.701 109.22 452.316 109.202 451.802 109.165C451.289 109.128 450.739 109.092 450.152 109.055C449.566 109.055 449.016 109.037 448.502 109C447.989 109 447.604 109 447.347 109H444.377C444.121 109 443.717 109 443.167 109C442.654 109.037 442.104 109.055 441.517 109.055C440.967 109.092 440.417 109.128 439.867 109.165C439.354 109.202 438.969 109.22 438.712 109.22L438.657 109L438.767 107.13L438.932 106.91C439.482 106.91 440.051 106.892 440.637 106.855C441.224 106.782 441.664 106.598 441.957 106.305C442.214 106.048 442.397 105.718 442.507 105.315C442.617 104.912 442.709 104.343 442.782 103.61C442.819 103.353 442.837 103.097 442.837 102.84C442.874 102.583 442.892 102.308 442.892 102.015C442.929 101.722 442.947 101.373 442.947 100.97C442.947 100.567 442.947 100.072 442.947 99.485V78.09C442.947 77.3933 442.947 76.8433 442.947 76.44C442.947 76 442.929 75.6333 442.892 75.34C442.892 75.0467 442.874 74.79 442.837 74.57C442.837 74.3133 442.819 74.02 442.782 73.69C442.709 73.3233 442.599 72.975 442.452 72.645C442.306 72.315 442.177 72.095 442.067 71.985C441.701 71.5083 441.242 71.2333 440.692 71.16C440.142 71.0867 439.574 71.05 438.987 71.05L438.767 70.83V68.96L438.987 68.795H441.792C442.636 68.795 443.534 68.795 444.487 68.795C445.441 68.7583 446.284 68.685 447.017 68.575L448.942 68.3L449.272 69.345C449.199 69.4917 449.126 69.73 449.052 70.06C449.016 70.3533 448.979 70.6833 448.942 71.05C448.942 71.38 448.924 71.7283 448.887 72.095C448.887 72.425 448.887 72.7 448.887 72.92C448.887 73.2133 448.869 73.4883 448.832 73.745C448.832 73.965 448.832 74.24 448.832 74.57C448.832 74.8633 448.814 75.2483 448.777 75.725C448.777 76.2017 448.777 76.7883 448.777 77.485V98.825C448.777 99.5583 448.777 100.163 448.777 100.64C448.814 101.08 448.832 101.465 448.832 101.795C448.869 102.125 448.887 102.437 448.887 102.73C448.924 102.987 448.961 103.28 448.997 103.61C449.071 104.38 449.144 104.967 449.217 105.37C449.327 105.737 449.529 106.048 449.822 106.305C450.116 106.598 450.519 106.782 451.032 106.855C451.582 106.892 452.132 106.91 452.682 106.91L452.957 107.185L453.067 109L452.957 109.22ZM479.844 94.975L478.524 95.965C476.544 95.965 474.583 95.9833 472.639 96.02C470.733 96.0567 468.771 96.075 466.754 96.075H462.244C462.208 96.3317 462.189 96.5883 462.189 96.845C462.189 97.065 462.189 97.285 462.189 97.505C462.189 98.4583 462.354 99.4117 462.684 100.365C463.014 101.318 463.528 102.18 464.224 102.95C464.958 103.683 465.874 104.288 466.974 104.765C468.074 105.205 469.413 105.425 470.989 105.425C472.126 105.425 473.318 105.278 474.564 104.985C475.848 104.655 477.039 104.233 478.139 103.72L479.074 104.105V106.085L478.524 106.69C477.644 107.387 476.343 108.047 474.619 108.67C472.933 109.293 471.099 109.605 469.119 109.605C467.176 109.605 465.398 109.293 463.784 108.67C462.208 108.01 460.833 107.093 459.659 105.92C458.523 104.747 457.624 103.353 456.964 101.74C456.341 100.127 456.029 98.33 456.029 96.35C456.029 94.3333 456.359 92.5 457.019 90.85C457.679 89.2 458.578 87.7883 459.714 86.615C460.888 85.4417 462.244 84.525 463.784 83.865C465.361 83.205 467.048 82.875 468.844 82.875C469.798 82.875 470.861 83.0033 472.034 83.26C473.244 83.5167 474.399 84.0117 475.499 84.745C476.599 85.4417 477.589 86.45 478.469 87.77C479.349 89.0533 479.954 90.7583 480.284 92.885L479.844 94.975ZM468.899 87C467.103 87 465.654 87.55 464.554 88.65C463.491 89.7133 462.813 90.96 462.519 92.39H465.269C466.553 92.39 467.818 92.3717 469.064 92.335C470.311 92.2617 471.576 92.225 472.859 92.225C473.336 92.225 473.684 92.0967 473.904 91.84C474.124 91.5467 474.234 91.2533 474.234 90.96C474.234 89.86 473.703 88.925 472.639 88.155C471.576 87.385 470.329 87 468.899 87ZM496.39 93.6C497.93 93.9667 499.177 94.4617 500.13 95.085C501.084 95.7083 501.799 96.3867 502.275 97.12C502.789 97.8533 503.119 98.605 503.265 99.375C503.449 100.145 503.54 100.86 503.54 101.52C503.54 102.693 503.302 103.775 502.825 104.765C502.349 105.755 501.652 106.617 500.735 107.35C499.855 108.047 498.774 108.597 497.49 109C496.207 109.403 494.759 109.605 493.145 109.605C491.459 109.605 489.882 109.422 488.415 109.055C486.949 108.725 485.794 108.322 484.95 107.845L484.29 107.13L485.115 100.365H486.93L487.095 100.585C487.095 102.198 487.59 103.482 488.58 104.435C489.57 105.352 491.037 105.81 492.98 105.81C494.007 105.81 494.869 105.718 495.565 105.535C496.299 105.315 496.867 105.058 497.27 104.765C497.71 104.435 498.022 104.087 498.205 103.72C498.389 103.317 498.48 102.95 498.48 102.62C498.48 102.363 498.462 102.088 498.425 101.795C498.389 101.502 498.279 101.208 498.095 100.915C497.912 100.585 497.637 100.273 497.27 99.98C496.904 99.65 496.372 99.375 495.675 99.155L490.395 97.835C489.185 97.5417 488.195 97.12 487.425 96.57C486.655 96.02 486.032 95.415 485.555 94.755C485.115 94.0583 484.804 93.325 484.62 92.555C484.474 91.785 484.4 91.015 484.4 90.245C484.4 89.035 484.639 87.9717 485.115 87.055C485.592 86.1017 486.234 85.3317 487.04 84.745C487.884 84.1217 488.855 83.6633 489.955 83.37C491.055 83.04 492.247 82.875 493.53 82.875C495.144 82.875 496.629 83.0767 497.985 83.48C499.342 83.8467 500.387 84.25 501.12 84.69L501.835 85.35L501.23 90.685H499.525L499.305 90.52C499.305 89.7133 499.085 89.0533 498.645 88.54C498.242 87.99 497.729 87.5683 497.105 87.275C496.519 86.945 495.895 86.725 495.235 86.615C494.575 86.4683 493.989 86.395 493.475 86.395C492.009 86.395 490.964 86.7067 490.34 87.33C489.717 87.9533 489.405 88.65 489.405 89.42C489.405 90.08 489.607 90.7217 490.01 91.345C490.45 91.9683 491.275 92.4267 492.485 92.72L496.39 93.6Z" fill="url(#paint0_linear_92_137)"/>
<defs>
<linearGradient id="paint0_linear_92_137" x1="-229" y1="59" x2="776" y2="59" gradientUnits="userSpaceOnUse">
<stop offset="0.139423" stop-color="#FEC78A"/>
<stop offset="0.307692" stop-color="#F8D2A7"/>
<stop offset="0.509615" stop-color="#FFF6E7"/>
<stop offset="0.841346" stop-color="#FEC78A"/>
</linearGradient>
</defs>
</svg>
