<svg width="456" height="71" viewBox="0 0 456 71" fill="none" xmlns="http://www.w3.org/2000/svg">
<path d="M0.245626 69V1.8H6.77363V32.904H47.0936V1.8H53.6216V69H47.0936V35.208H6.77363V69H0.245626ZM73.8206 35.4C73.8206 30.472 74.6846 25.896 76.4126 21.672C78.2046 17.384 80.6686 13.672 83.8046 10.536C87.0046 7.336 90.7166 4.872 94.9406 3.144C99.2286 1.352 103.837 0.455996 108.765 0.455996C113.693 0.455996 118.269 1.352 122.493 3.144C126.781 4.872 130.493 7.336 133.629 10.536C136.829 13.672 139.293 17.384 141.021 21.672C142.813 25.896 143.709 30.472 143.709 35.4C143.709 40.328 142.813 44.936 141.021 49.224C139.293 53.448 136.829 57.16 133.629 60.36C130.493 63.496 126.781 65.96 122.493 67.752C118.269 69.48 113.693 70.344 108.765 70.344C103.837 70.344 99.2286 69.48 94.9406 67.752C90.7166 65.96 87.0046 63.496 83.8046 60.36C80.6686 57.16 78.2046 53.448 76.4126 49.224C74.6846 44.936 73.8206 40.328 73.8206 35.4ZM81.1166 35.4C81.1166 41.928 82.2686 47.656 84.5726 52.584C86.8766 57.448 90.1086 61.256 94.2686 64.008C98.4286 66.696 103.261 68.04 108.765 68.04C114.269 68.04 119.101 66.696 123.261 64.008C127.421 61.256 130.653 57.416 132.957 52.488C135.261 47.56 136.413 41.864 136.413 35.4C136.413 28.936 135.261 23.272 132.957 18.408C130.653 13.48 127.421 9.64 123.261 6.888C119.101 4.136 114.269 2.75999 108.765 2.75999C103.261 2.75999 98.4286 4.136 94.2686 6.888C90.1726 9.576 86.9406 13.384 84.5726 18.312C82.2686 23.176 81.1166 28.872 81.1166 35.4ZM227.103 1.8V69H220.575V7.368H219.999L196.767 51.912H193.791L167.391 12.648H166.815L168.927 69H162.399L164.799 0.455996H166.719L196.959 45.384H197.535L220.191 1.8H227.103ZM252.058 69V1.8H265.402C272.314 1.8 277.69 3.24 281.53 6.12C285.37 9 287.29 13 287.29 18.12C287.29 21.896 286.17 25.128 283.93 27.816C281.69 30.44 278.554 32.232 274.522 33.192V33.768C280.026 34.472 284.314 36.392 287.386 39.528C290.522 42.6 292.09 46.504 292.09 51.24C292.09 56.808 289.946 61.16 285.658 64.296C281.37 67.432 275.354 69 267.61 69H252.058ZM265.498 4.10399H258.586V32.904H265.402C275.514 32.904 280.57 28.104 280.57 18.504C280.57 8.904 275.546 4.10399 265.498 4.10399ZM267.61 35.208H258.586V66.696H267.61C279.322 66.696 285.178 61.448 285.178 50.952C285.178 40.456 279.322 35.208 267.61 35.208ZM311.308 1.8H324.172C330.956 1.8 336.204 3.24 339.916 6.12C343.692 8.936 345.58 12.904 345.58 18.024C345.58 21.992 344.396 25.288 342.028 27.912C339.724 30.536 336.364 32.296 331.948 33.192V33.768C336.172 34.6 339.628 36.584 342.316 39.72C345.004 42.856 347.02 46.728 348.364 51.336C349.58 55.56 350.764 58.856 351.916 61.224C353.132 63.528 354.444 65.192 355.852 66.216C357.324 67.24 359.052 67.976 361.036 68.424V69H357.1C354.284 69 351.948 68.488 350.092 67.464C348.3 66.44 346.764 64.712 345.484 62.28C344.204 59.848 342.988 56.488 341.836 52.2C339.98 45.608 337.516 40.936 334.444 38.184C331.372 35.432 327.628 34.056 323.212 34.056H322.636V32.328H323.212C333.516 32.328 338.668 27.592 338.668 18.12C338.668 8.776 333.836 4.10399 324.172 4.10399H317.836V69H311.308V1.8ZM372.902 69V1.8H402.182V6.504L385.382 4.296C382.438 3.912 380.454 3.72 379.43 3.72V33C380.262 33 382.246 32.904 385.382 32.712L401.126 31.752V36.168L385.382 35.208C382.246 35.016 380.262 34.92 379.43 34.92V67.08C380.582 67.08 382.598 66.888 385.478 66.504L402.47 64.296V69H372.902ZM416.733 66.888L417.309 61.128H417.885C420.381 63.304 423.197 65 426.333 66.216C429.469 67.432 432.573 68.04 435.645 68.04C439.997 68.04 443.517 66.856 446.205 64.488C448.893 62.056 450.237 58.824 450.237 54.792C450.237 52.552 449.725 50.472 448.701 48.552C447.741 46.632 446.109 44.68 443.805 42.696C441.565 40.712 438.461 38.568 434.493 36.264C431.741 34.664 429.117 33 426.621 31.272C424.125 29.48 422.077 27.432 420.477 25.128C418.877 22.76 418.077 19.944 418.077 16.68C418.077 11.816 419.837 7.91199 423.357 4.96799C426.877 1.96 431.517 0.455996 437.277 0.455996C439.837 0.455996 442.589 0.743996 445.533 1.32C448.477 1.832 450.749 2.504 452.349 3.336L451.869 8.712H451.293C447.645 4.744 442.973 2.75999 437.277 2.75999C433.181 2.75999 429.885 3.816 427.389 5.928C424.893 7.976 423.645 10.76 423.645 14.28C423.645 16.904 424.317 19.176 425.661 21.096C427.069 22.952 428.861 24.648 431.037 26.184C433.213 27.656 435.549 29.096 438.045 30.504C440.925 32.168 443.709 33.928 446.397 35.784C449.149 37.64 451.389 39.88 453.117 42.504C454.909 45.064 455.805 48.296 455.805 52.2C455.805 55.784 454.973 58.952 453.309 61.704C451.645 64.392 449.277 66.504 446.205 68.04C443.197 69.576 439.677 70.344 435.645 70.344C433.085 70.344 430.077 70.024 426.621 69.384C423.165 68.744 419.869 67.912 416.733 66.888Z" fill="url(#paint0_linear_88_4)"/>
<defs>
<linearGradient id="paint0_linear_88_4" x1="-16" y1="35.5" x2="466" y2="35.5" gradientUnits="userSpaceOnUse">
<stop offset="0.139423" stop-color="#FEC78A"/>
<stop offset="0.307692" stop-color="#F8D2A7"/>
<stop offset="0.509615" stop-color="#FFF6E7"/>
<stop offset="0.841346" stop-color="#FEC78A"/>
</linearGradient>
</defs>
</svg>
