<svg width="1211" height="251" viewBox="0 0 1211 251" fill="none" xmlns="http://www.w3.org/2000/svg">
<path d="M262.177 200.722C485.271 110.961 725.788 110.97 948.882 200.722C963.161 159.102 977.441 117.482 991.721 75.8531C741.314 -25.2797 469.754 -25.2887 219.347 75.8531C233.627 117.473 247.898 159.093 262.177 200.722Z" fill="url(#paint0_linear_50_70)"/>
<mask id="mask0_50_70" style="mask-type:luminance" maskUnits="userSpaceOnUse" x="219" y="0" width="773" height="201">
<path d="M262.177 200.722C485.271 110.961 725.788 110.97 948.882 200.722C963.161 159.102 977.441 117.482 991.721 75.8531C741.314 -25.2797 469.754 -25.2887 219.347 75.8531C233.627 117.473 247.898 159.093 262.177 200.722Z" fill="white"/>
</mask>
<g mask="url(#mask0_50_70)">
<path d="M253.814 192.25C519.449 86.0416 744.313 109.877 969.954 194.111C983.104 161.379 994.151 128.312 1007.29 95.5886C708.545 -12.4719 511.239 -18.5596 214.605 89.4919C227.747 122.215 240.654 159.527 253.805 192.25H253.814Z" stroke="url(#paint1_linear_50_70)" stroke-width="3.54" stroke-miterlimit="10"/>
</g>
<path d="M1034.99 205.735C1034.99 205.735 1059.97 233.599 1124.95 198.41C1124.95 198.41 1162.81 174.123 1197.89 202.204C1197.89 202.204 1181.6 154.613 1118.4 138.283C1118.4 138.283 1167.04 75.1847 1211.22 85.9329C1211.22 85.9329 1174.14 49.8766 1078.49 98.9212C1043.99 116.606 1017.13 87.8477 1007.88 78.0027C1007.88 78.0027 981.153 164.251 1034.99 205.735H1034.99Z" fill="url(#paint2_linear_50_70)"/>
<mask id="mask1_50_70" style="mask-type:luminance" maskUnits="userSpaceOnUse" x="1001" y="73" width="211" height="144">
<path d="M1034.99 205.735C1034.99 205.735 1059.97 233.599 1124.95 198.41C1124.95 198.41 1162.81 174.123 1197.89 202.204C1197.89 202.204 1181.6 154.613 1118.4 138.283C1118.4 138.283 1167.04 75.1847 1211.22 85.9329C1211.22 85.9329 1174.14 49.8766 1078.49 98.9212C1043.99 116.606 1017.13 87.8477 1007.88 78.0027C1007.88 78.0027 981.153 164.251 1034.99 205.735H1034.99Z" fill="white"/>
</mask>
<g mask="url(#mask1_50_70)">
<path d="M1063.25 208.571C1076.78 208.571 1091.72 203.847 1107.66 194.535C1109.81 192.991 1131.85 177.564 1156.58 177.564C1161.85 177.564 1166.87 178.268 1171.61 179.677C1169.49 177.591 1166.98 175.315 1164.07 172.957C1153.27 164.223 1134.46 152.518 1106.12 146.367L1101.37 145.337L1104.21 141.39C1104.6 140.83 1114.21 127.508 1128.65 112.93C1143.48 97.9637 1157.52 87.5315 1170.58 81.769C1169.36 81.7058 1168.05 81.6697 1166.63 81.6697C1149.35 81.6697 1118.81 86.9174 1071.39 111.945C1064.91 115.323 1058.41 117.031 1052.09 117.031C1027.05 117.031 1010.39 90.9638 1000.44 75.3923C999.579 74.0466 998.757 72.764 997.989 71.5898C996.77 81.0916 995.108 98.614 996.174 117.816C997.095 134.49 999.859 149.113 1004.4 161.261C1009.97 176.191 1018.24 187.4 1028.98 194.571L1029.39 194.842L1029.68 195.213C1030.13 195.755 1040.85 208.571 1063.24 208.571M1063.24 211.76C1038.89 211.76 1027.2 197.218 1027.2 197.218C977.631 164.106 995.939 63.5693 995.939 63.5693C1003.29 70.2711 1021.44 113.833 1052.09 113.833C1057.62 113.833 1063.56 112.415 1069.91 109.109C1118.24 83.6026 1149.4 78.4723 1166.62 78.4723C1178.2 78.4723 1183.5 80.7936 1183.5 80.7936C1145.53 89.2115 1106.8 143.242 1106.8 143.242C1163.16 155.48 1183.62 188.944 1183.62 188.944C1174.96 182.947 1165.62 180.743 1156.58 180.743C1131.85 180.743 1109.39 197.2 1109.39 197.2C1090.75 208.12 1075.4 211.75 1063.23 211.75L1063.24 211.76Z" fill="url(#paint3_linear_50_70)"/>
</g>
<path d="M933.13 110.916C933.13 110.916 970.92 118.241 992.164 75.5551L987.729 136.73C987.729 136.73 955.656 133.234 933.139 110.916H933.13Z" fill="url(#paint4_linear_50_70)"/>
<path d="M1045.18 118.909C1045.18 118.909 1015.76 124.365 1008.21 77.2801L993.211 128.276C993.211 128.276 1017.04 133.496 1045.18 118.909Z" fill="url(#paint5_linear_50_70)"/>
<path d="M1045.41 118.539C1004 131.572 970.477 129.079 931.441 110.067C918.109 148.056 904.769 186.045 891.428 224.034C949.658 254.147 1006.09 258.347 1068.14 237.158C1060.56 197.615 1052.98 158.064 1045.41 118.53V118.539Z" fill="url(#paint6_linear_50_70)"/>
<mask id="mask2_50_70" style="mask-type:luminance" maskUnits="userSpaceOnUse" x="891" y="110" width="178" height="141">
<path d="M1045.41 118.539C1004 131.572 970.477 129.079 931.441 110.067C918.109 148.056 904.769 186.045 891.428 224.034C949.658 254.147 1006.09 258.347 1068.14 237.158C1060.56 197.615 1052.98 158.064 1045.41 118.53V118.539Z" fill="white"/>
</mask>
<g mask="url(#mask2_50_70)">
<path d="M1051.8 127.391C1011.54 144.922 956.36 136.07 917.269 110.735C906.593 143.034 895.475 177.763 884.799 210.062C944.302 242.171 1005.86 250.788 1073.77 224.892C1065.46 190.489 1060.12 161.803 1051.81 127.4L1051.8 127.391Z" stroke="url(#paint7_linear_50_70)" stroke-width="3.52" stroke-miterlimit="10"/>
</g>
<path d="M176.345 205.202C176.345 205.202 151.353 233.066 86.3759 197.877C86.3759 197.877 48.5222 173.59 13.4414 201.662C13.4414 201.662 29.7264 154.08 92.9333 137.75C92.9333 137.75 44.2862 74.6517 0.109985 85.3909C0.109985 85.3909 37.1869 49.3347 132.837 98.3701C167.34 116.055 194.202 87.3057 203.45 77.4607C203.45 77.4607 230.177 163.691 176.345 205.193V205.202Z" fill="url(#paint8_linear_50_70)"/>
<mask id="mask3_50_70" style="mask-type:luminance" maskUnits="userSpaceOnUse" x="0" y="72" width="211" height="144">
<path d="M176.345 205.202C176.345 205.202 151.353 233.066 86.3759 197.877C86.3759 197.877 48.5222 173.59 13.4414 201.662C13.4414 201.662 29.7264 154.08 92.9333 137.75C92.9333 137.75 44.2862 74.6517 0.109985 85.3909C0.109985 85.3909 37.1869 49.3347 132.837 98.3701C167.34 116.055 194.202 87.3057 203.45 77.4607C203.45 77.4607 230.177 163.691 176.345 205.193V205.202Z" fill="white"/>
</mask>
<g mask="url(#mask3_50_70)">
<path d="M148.092 208.038C170.492 208.038 181.204 195.222 181.638 194.68L181.945 194.3L182.351 194.029C193.073 186.867 201.337 175.676 206.91 160.782C211.444 148.643 214.217 134.047 215.147 117.401C216.222 98.1713 214.551 80.5858 213.341 71.0569C212.573 72.231 211.751 73.5136 210.893 74.8594C200.94 90.4308 184.284 116.498 159.238 116.498C152.916 116.498 146.422 114.79 139.918 111.403C92.5178 86.3934 61.9801 81.1458 44.7016 81.1458C43.2836 81.1458 41.9739 81.1819 40.7546 81.2451C53.797 87.0076 67.851 97.4397 82.6818 112.406C97.1242 126.984 106.725 140.306 107.123 140.866L109.959 144.813L105.208 145.843C76.8741 151.994 58.0602 163.699 47.2577 172.434C44.3403 174.791 41.8384 177.067 39.7159 179.153C44.4487 177.744 49.4706 177.04 54.7454 177.04C79.4754 177.04 101.523 192.467 103.672 194.011C119.614 203.323 134.562 208.047 148.092 208.047M148.092 211.236C135.917 211.236 120.563 207.596 101.929 196.685C101.929 196.685 79.4754 180.228 54.7544 180.228C45.7132 180.228 36.374 182.423 27.7122 188.429C27.7122 188.429 48.17 154.956 104.531 142.727C104.531 142.727 65.7917 88.6876 27.8206 80.2696C27.8206 80.2696 33.1134 77.9574 44.7016 77.9574C61.935 77.9574 93.0777 83.0786 141.409 108.585C147.767 111.891 153.701 113.309 159.229 113.309C189.884 113.309 208.03 69.7562 215.382 63.0453C215.382 63.0453 233.69 163.582 184.122 196.685C184.122 196.685 172.434 211.236 148.083 211.236H148.092Z" fill="url(#paint9_linear_50_70)"/>
</g>
<path d="M278.2 110.383C278.2 110.383 240.41 117.708 219.166 75.0131L223.61 136.197C223.61 136.197 255.683 132.701 278.2 110.383Z" fill="url(#paint10_linear_50_70)"/>
<path d="M166.148 118.114C166.148 118.114 195.574 123.832 203.116 76.747L218.128 127.742C218.128 127.742 194.301 132.701 166.148 118.114Z" fill="url(#paint11_linear_50_70)"/>
<path d="M165.922 118.006C207.334 131.03 240.853 128.537 279.889 109.543C293.23 147.532 306.561 185.521 319.902 223.51C261.663 253.623 205.23 257.823 143.179 236.634C150.757 197.091 158.335 157.549 165.913 118.006H165.922Z" fill="url(#paint12_linear_50_70)"/>
<mask id="mask4_50_70" style="mask-type:luminance" maskUnits="userSpaceOnUse" x="143" y="109" width="177" height="141">
<path d="M165.922 118.006C207.334 131.03 240.853 128.537 279.889 109.543C293.23 147.532 306.561 185.521 319.902 223.51C261.663 253.623 205.23 257.823 143.179 236.634C150.757 197.091 158.335 157.549 165.913 118.006H165.922Z" fill="white"/>
</mask>
<g mask="url(#mask4_50_70)">
<path d="M159.798 127.119C200.063 144.651 254.97 135.528 294.061 110.202C304.746 142.501 315.855 177.23 326.54 209.529C267.037 241.638 205.483 250.246 137.57 224.35C145.88 189.947 151.489 161.523 159.798 127.119Z" stroke="url(#paint13_linear_50_70)" stroke-width="3.52" stroke-miterlimit="10"/>
</g>
<defs>
<linearGradient id="paint0_linear_50_70" x1="991.712" y1="100.366" x2="219.338" y2="100.366" gradientUnits="userSpaceOnUse">
<stop offset="0.09" stop-color="#BF9160"/>
<stop offset="0.16" stop-color="#D6A36B"/>
<stop offset="0.17" stop-color="#D8A46C"/>
<stop offset="0.27" stop-color="#EAC296"/>
<stop offset="0.34" stop-color="#FAD1A5"/>
<stop offset="0.45" stop-color="#EFC08D"/>
<stop offset="0.57" stop-color="#E2AB6E"/>
<stop offset="0.78" stop-color="#D1A16D"/>
<stop offset="0.95" stop-color="#B6875B"/>
</linearGradient>
<linearGradient id="paint1_linear_50_70" x1="1009.4" y1="102.995" x2="212.519" y2="102.995" gradientUnits="userSpaceOnUse">
<stop offset="0.09" stop-color="#7B170F"/>
<stop offset="0.15" stop-color="#9F3E2F"/>
<stop offset="0.27" stop-color="#F39677"/>
<stop offset="0.34" stop-color="#D6352A"/>
<stop offset="0.41" stop-color="#BE2D22"/>
<stop offset="0.55" stop-color="#801910"/>
<stop offset="0.57" stop-color="#75160D"/>
<stop offset="0.84" stop-color="#260C0D"/>
<stop offset="0.91" stop-color="#3D0E0D"/>
<stop offset="1" stop-color="#61130E"/>
</linearGradient>
<linearGradient id="paint2_linear_50_70" x1="1041.36" y1="146.584" x2="1160.31" y2="143.576" gradientUnits="userSpaceOnUse">
<stop stop-color="#9B683A"/>
<stop offset="0.12" stop-color="#B27F4D"/>
<stop offset="0.27" stop-color="#D8A46C"/>
<stop offset="0.36" stop-color="#E8BF92"/>
<stop offset="0.37" stop-color="#EAC296"/>
<stop offset="0.47" stop-color="#FAD1A5"/>
<stop offset="0.56" stop-color="#EFC08D"/>
<stop offset="0.65" stop-color="#E2AB6E"/>
<stop offset="0.9" stop-color="#D1A16D"/>
</linearGradient>
<linearGradient id="paint3_linear_50_70" x1="1183.63" y1="137.669" x2="992.642" y2="137.669" gradientUnits="userSpaceOnUse">
<stop offset="0.09" stop-color="#7B170F"/>
<stop offset="0.15" stop-color="#9F3E2F"/>
<stop offset="0.27" stop-color="#F39677"/>
<stop offset="0.34" stop-color="#D6352A"/>
<stop offset="0.41" stop-color="#BE2D22"/>
<stop offset="0.55" stop-color="#801910"/>
<stop offset="0.57" stop-color="#75160D"/>
<stop offset="0.84" stop-color="#260C0D"/>
<stop offset="0.91" stop-color="#3D0E0D"/>
<stop offset="1" stop-color="#61130E"/>
</linearGradient>
<linearGradient id="paint4_linear_50_70" x1="962.637" y1="75.5551" x2="962.637" y2="136.73" gradientUnits="userSpaceOnUse">
<stop offset="0.09" stop-color="#7B170F"/>
<stop offset="0.2" stop-color="#A2231A"/>
<stop offset="0.34" stop-color="#D6352A"/>
<stop offset="0.41" stop-color="#BE2D22"/>
<stop offset="0.55" stop-color="#801910"/>
<stop offset="0.57" stop-color="#75160D"/>
<stop offset="0.84" stop-color="#260C0D"/>
<stop offset="0.91" stop-color="#3D0E0D"/>
<stop offset="1" stop-color="#61130E"/>
</linearGradient>
<linearGradient id="paint5_linear_50_70" x1="1019.19" y1="77.2801" x2="1019.19" y2="129.188" gradientUnits="userSpaceOnUse">
<stop offset="0.09" stop-color="#7B170F"/>
<stop offset="0.2" stop-color="#A2231A"/>
<stop offset="0.34" stop-color="#D6352A"/>
<stop offset="0.41" stop-color="#BE2D22"/>
<stop offset="0.55" stop-color="#801910"/>
<stop offset="0.57" stop-color="#75160D"/>
<stop offset="0.84" stop-color="#260C0D"/>
<stop offset="0.91" stop-color="#3D0E0D"/>
<stop offset="1" stop-color="#61130E"/>
</linearGradient>
<linearGradient id="paint6_linear_50_70" x1="1072.56" y1="189.864" x2="896.146" y2="173.467" gradientUnits="userSpaceOnUse">
<stop stop-color="#BF9160"/>
<stop offset="0.09" stop-color="#D8A46C"/>
<stop offset="0.26" stop-color="#E8BF92"/>
<stop offset="0.27" stop-color="#EAC296"/>
<stop offset="0.34" stop-color="#FAD1A5"/>
<stop offset="0.45" stop-color="#EFC08D"/>
<stop offset="0.57" stop-color="#E2AB6E"/>
<stop offset="1" stop-color="#D1A16D"/>
</linearGradient>
<linearGradient id="paint7_linear_50_70" x1="905.718" y1="138.153" x2="1080.4" y2="222.374" gradientUnits="userSpaceOnUse">
<stop offset="0.09" stop-color="#7B170F"/>
<stop offset="0.15" stop-color="#9F3E2F"/>
<stop offset="0.27" stop-color="#F39677"/>
<stop offset="0.34" stop-color="#D6352A"/>
<stop offset="0.41" stop-color="#BE2D22"/>
<stop offset="0.55" stop-color="#801910"/>
<stop offset="0.57" stop-color="#75160D"/>
<stop offset="0.84" stop-color="#260C0D"/>
<stop offset="0.91" stop-color="#3D0E0D"/>
<stop offset="1" stop-color="#61130E"/>
</linearGradient>
<linearGradient id="paint8_linear_50_70" x1="169.395" y1="144.147" x2="15.1122" y2="144.193" gradientUnits="userSpaceOnUse">
<stop stop-color="#9B683A"/>
<stop offset="0.12" stop-color="#B27F4D"/>
<stop offset="0.27" stop-color="#D8A46C"/>
<stop offset="0.36" stop-color="#E8BF92"/>
<stop offset="0.37" stop-color="#EAC296"/>
<stop offset="0.47" stop-color="#FAD1A5"/>
<stop offset="0.56" stop-color="#EFC08D"/>
<stop offset="0.65" stop-color="#E2AB6E"/>
<stop offset="0.9" stop-color="#D1A16D"/>
</linearGradient>
<linearGradient id="paint9_linear_50_70" x1="27.7032" y1="137.136" x2="218.688" y2="137.136" gradientUnits="userSpaceOnUse">
<stop offset="0.09" stop-color="#7B170F"/>
<stop offset="0.15" stop-color="#9F3E2F"/>
<stop offset="0.27" stop-color="#F39677"/>
<stop offset="0.34" stop-color="#D6352A"/>
<stop offset="0.41" stop-color="#BE2D22"/>
<stop offset="0.55" stop-color="#801910"/>
<stop offset="0.57" stop-color="#75160D"/>
<stop offset="0.84" stop-color="#260C0D"/>
<stop offset="0.91" stop-color="#3D0E0D"/>
<stop offset="1" stop-color="#61130E"/>
</linearGradient>
<linearGradient id="paint10_linear_50_70" x1="248.683" y1="75.0221" x2="248.683" y2="136.206" gradientUnits="userSpaceOnUse">
<stop offset="0.09" stop-color="#7B170F"/>
<stop offset="0.2" stop-color="#A2231A"/>
<stop offset="0.34" stop-color="#D6352A"/>
<stop offset="0.41" stop-color="#BE2D22"/>
<stop offset="0.55" stop-color="#801910"/>
<stop offset="0.57" stop-color="#75160D"/>
<stop offset="0.84" stop-color="#260C0D"/>
<stop offset="0.91" stop-color="#3D0E0D"/>
<stop offset="1" stop-color="#61130E"/>
</linearGradient>
<linearGradient id="paint11_linear_50_70" x1="192.142" y1="76.7561" x2="192.142" y2="128.555" gradientUnits="userSpaceOnUse">
<stop offset="0.09" stop-color="#7B170F"/>
<stop offset="0.2" stop-color="#A2231A"/>
<stop offset="0.34" stop-color="#D6352A"/>
<stop offset="0.41" stop-color="#BE2D22"/>
<stop offset="0.55" stop-color="#801910"/>
<stop offset="0.57" stop-color="#75160D"/>
<stop offset="0.84" stop-color="#260C0D"/>
<stop offset="0.91" stop-color="#3D0E0D"/>
<stop offset="1" stop-color="#61130E"/>
</linearGradient>
<linearGradient id="paint12_linear_50_70" x1="143.174" y1="179.716" x2="319.887" y2="179.713" gradientUnits="userSpaceOnUse">
<stop stop-color="#BF9160"/>
<stop offset="0.09" stop-color="#D8A46C"/>
<stop offset="0.26" stop-color="#E8BF92"/>
<stop offset="0.27" stop-color="#EAC296"/>
<stop offset="0.34" stop-color="#FAD1A5"/>
<stop offset="0.45" stop-color="#EFC08D"/>
<stop offset="0.57" stop-color="#E2AB6E"/>
<stop offset="1" stop-color="#D1A16D"/>
</linearGradient>
<linearGradient id="paint13_linear_50_70" x1="306.482" y1="137.445" x2="131.804" y2="221.662" gradientUnits="userSpaceOnUse">
<stop offset="0.09" stop-color="#7B170F"/>
<stop offset="0.15" stop-color="#9F3E2F"/>
<stop offset="0.27" stop-color="#F39677"/>
<stop offset="0.34" stop-color="#D6352A"/>
<stop offset="0.41" stop-color="#BE2D22"/>
<stop offset="0.55" stop-color="#801910"/>
<stop offset="0.57" stop-color="#75160D"/>
<stop offset="0.84" stop-color="#260C0D"/>
<stop offset="0.91" stop-color="#3D0E0D"/>
<stop offset="1" stop-color="#61130E"/>
</linearGradient>
</defs>
</svg>
