<svg width="872" height="71" viewBox="0 0 872 71" fill="none" xmlns="http://www.w3.org/2000/svg">
<path d="M0.557516 1.8H7.08552V67.08C8.30152 67.08 10.2215 66.888 12.8455 66.504L28.7815 64.104V69H0.557516V1.8ZM44.8075 1.8H51.3355V67.08C52.5515 67.08 54.4715 66.888 57.0955 66.504L73.0315 64.104V69H44.8075V1.8ZM86.2225 1.8H92.7505V42.312C92.7505 50.056 94.6385 56.104 98.4145 60.456C102.255 64.744 107.631 66.888 114.543 66.888C118.895 66.888 122.671 66.056 125.871 64.392C129.135 62.664 131.631 60.296 133.359 57.288C135.151 54.28 135.983 50.824 135.855 46.92L134.223 1.8H140.751L139.119 46.92C138.863 54.6 136.559 60.424 132.207 64.392C127.919 68.36 121.775 70.344 113.775 70.344C105.135 70.344 98.3825 67.848 93.5185 62.856C88.6545 57.8 86.2225 50.888 86.2225 42.12V1.8ZM154.368 1.8H161.568L187.776 61.512H188.352L210.336 1.8H217.536L187.008 70.344H184.896L154.368 1.8ZM232.495 69V1.8H239.023V69H232.495ZM254.011 69L279.835 1.8H285.787L311.611 69H304.603L292.699 37.512H270.907L261.019 69H254.011ZM280.507 6.792L271.579 35.208H291.835L281.083 6.792H280.507ZM353.058 69V1.8H374.178C381.602 1.8 388.066 3.208 393.57 6.024C399.074 8.84 403.362 12.776 406.434 17.832C409.506 22.824 411.042 28.68 411.042 35.4C411.042 42.12 409.506 48.008 406.434 53.064C403.362 58.056 399.074 61.96 393.57 64.776C388.066 67.592 381.602 69 374.178 69H353.058ZM374.178 4.10399H359.586V66.696H374.178C383.458 66.696 390.69 63.944 395.874 58.44C401.122 52.936 403.746 45.256 403.746 35.4C403.746 25.544 401.122 17.864 395.874 12.36C390.69 6.856 383.458 4.10399 374.178 4.10399ZM431.245 69V1.8H460.525V6.504L443.725 4.296C440.781 3.912 438.797 3.72 437.773 3.72V33C438.605 33 440.589 32.904 443.725 32.712L459.469 31.752V36.168L443.725 35.208C440.589 35.016 438.605 34.92 437.773 34.92V67.08C438.925 67.08 440.941 66.888 443.821 66.504L460.813 64.296V69H431.245ZM500.952 66.888L501.528 61.128H502.104C504.6 63.304 507.416 65 510.552 66.216C513.688 67.432 516.792 68.04 519.864 68.04C524.216 68.04 527.736 66.856 530.424 64.488C533.112 62.056 534.456 58.824 534.456 54.792C534.456 52.552 533.944 50.472 532.92 48.552C531.96 46.632 530.328 44.68 528.024 42.696C525.784 40.712 522.68 38.568 518.712 36.264C515.96 34.664 513.336 33 510.84 31.272C508.344 29.48 506.296 27.432 504.696 25.128C503.096 22.76 502.296 19.944 502.296 16.68C502.296 11.816 504.056 7.91199 507.576 4.96799C511.096 1.96 515.736 0.455996 521.496 0.455996C524.056 0.455996 526.808 0.743996 529.752 1.32C532.696 1.832 534.968 2.504 536.568 3.336L536.088 8.712H535.512C531.864 4.744 527.192 2.75999 521.496 2.75999C517.4 2.75999 514.104 3.816 511.608 5.928C509.112 7.976 507.864 10.76 507.864 14.28C507.864 16.904 508.536 19.176 509.88 21.096C511.288 22.952 513.08 24.648 515.256 26.184C517.432 27.656 519.768 29.096 522.264 30.504C525.144 32.168 527.928 33.928 530.616 35.784C533.368 37.64 535.608 39.88 537.336 42.504C539.128 45.064 540.024 48.296 540.024 52.2C540.024 55.784 539.192 58.952 537.528 61.704C535.864 64.392 533.496 66.504 530.424 68.04C527.416 69.576 523.896 70.344 519.864 70.344C517.304 70.344 514.296 70.024 510.84 69.384C507.384 68.744 504.088 67.912 500.952 66.888ZM554.133 35.4C554.133 30.472 554.997 25.896 556.725 21.672C558.517 17.384 560.981 13.672 564.117 10.536C567.317 7.336 571.029 4.872 575.253 3.144C579.541 1.352 584.149 0.455996 589.077 0.455996C594.005 0.455996 598.581 1.352 602.805 3.144C607.093 4.872 610.805 7.336 613.941 10.536C617.141 13.672 619.605 17.384 621.333 21.672C623.125 25.896 624.021 30.472 624.021 35.4C624.021 40.328 623.125 44.936 621.333 49.224C619.605 53.448 617.141 57.16 613.941 60.36C610.805 63.496 607.093 65.96 602.805 67.752C598.581 69.48 594.005 70.344 589.077 70.344C584.149 70.344 579.541 69.48 575.253 67.752C571.029 65.96 567.317 63.496 564.117 60.36C560.981 57.16 558.517 53.448 556.725 49.224C554.997 44.936 554.133 40.328 554.133 35.4ZM561.429 35.4C561.429 41.928 562.581 47.656 564.885 52.584C567.189 57.448 570.421 61.256 574.581 64.008C578.741 66.696 583.573 68.04 589.077 68.04C594.581 68.04 599.413 66.696 603.573 64.008C607.733 61.256 610.965 57.416 613.269 52.488C615.573 47.56 616.725 41.864 616.725 35.4C616.725 28.936 615.573 23.272 613.269 18.408C610.965 13.48 607.733 9.64 603.573 6.888C599.413 4.136 594.581 2.75999 589.077 2.75999C583.573 2.75999 578.741 4.136 574.581 6.888C570.485 9.576 567.253 13.384 564.885 18.312C562.581 23.176 561.429 28.872 561.429 35.4ZM644.151 69V1.8H657.495C664.407 1.8 669.783 3.24 673.623 6.12C677.463 9 679.383 13 679.383 18.12C679.383 21.896 678.263 25.128 676.023 27.816C673.783 30.44 670.647 32.232 666.615 33.192V33.768C672.119 34.472 676.407 36.392 679.479 39.528C682.615 42.6 684.183 46.504 684.183 51.24C684.183 56.808 682.039 61.16 677.751 64.296C673.463 67.432 667.447 69 659.703 69H644.151ZM657.591 4.10399H650.679V32.904H657.495C667.607 32.904 672.663 28.104 672.663 18.504C672.663 8.904 667.639 4.10399 657.591 4.10399ZM659.703 35.208H650.679V66.696H659.703C671.415 66.696 677.271 61.448 677.271 50.952C677.271 40.456 671.415 35.208 659.703 35.208ZM703.401 1.8H716.265C723.049 1.8 728.297 3.24 732.009 6.12C735.785 8.936 737.673 12.904 737.673 18.024C737.673 21.992 736.489 25.288 734.121 27.912C731.817 30.536 728.457 32.296 724.041 33.192V33.768C728.265 34.6 731.721 36.584 734.409 39.72C737.097 42.856 739.113 46.728 740.457 51.336C741.673 55.56 742.857 58.856 744.009 61.224C745.225 63.528 746.537 65.192 747.945 66.216C749.417 67.24 751.145 67.976 753.129 68.424V69H749.193C746.377 69 744.041 68.488 742.185 67.464C740.393 66.44 738.857 64.712 737.577 62.28C736.297 59.848 735.081 56.488 733.929 52.2C732.073 45.608 729.609 40.936 726.537 38.184C723.465 35.432 719.721 34.056 715.305 34.056H714.729V32.328H715.305C725.609 32.328 730.761 27.592 730.761 18.12C730.761 8.776 725.929 4.10399 716.265 4.10399H709.929V69H703.401V1.8ZM764.995 69V1.8H794.275V6.504L777.475 4.296C774.531 3.912 772.547 3.72 771.523 3.72V33C772.355 33 774.339 32.904 777.475 32.712L793.219 31.752V36.168L777.475 35.208C774.339 35.016 772.355 34.92 771.523 34.92V67.08C772.675 67.08 774.691 66.888 777.571 66.504L794.563 64.296V69H764.995ZM808.827 66.888L809.403 61.128H809.979C812.475 63.304 815.291 65 818.427 66.216C821.563 67.432 824.667 68.04 827.739 68.04C832.091 68.04 835.611 66.856 838.299 64.488C840.987 62.056 842.331 58.824 842.331 54.792C842.331 52.552 841.819 50.472 840.795 48.552C839.835 46.632 838.203 44.68 835.899 42.696C833.659 40.712 830.555 38.568 826.587 36.264C823.835 34.664 821.211 33 818.715 31.272C816.219 29.48 814.171 27.432 812.571 25.128C810.971 22.76 810.171 19.944 810.171 16.68C810.171 11.816 811.931 7.91199 815.451 4.96799C818.971 1.96 823.611 0.455996 829.371 0.455996C831.931 0.455996 834.683 0.743996 837.627 1.32C840.571 1.832 842.843 2.504 844.443 3.336L843.963 8.712H843.387C839.739 4.744 835.067 2.75999 829.371 2.75999C825.275 2.75999 821.979 3.816 819.483 5.928C816.987 7.976 815.739 10.76 815.739 14.28C815.739 16.904 816.411 19.176 817.755 21.096C819.163 22.952 820.955 24.648 823.131 26.184C825.307 27.656 827.643 29.096 830.139 30.504C833.019 32.168 835.803 33.928 838.491 35.784C841.243 37.64 843.483 39.88 845.211 42.504C847.003 45.064 847.899 48.296 847.899 52.2C847.899 55.784 847.067 58.952 845.403 61.704C843.739 64.392 841.371 66.504 838.299 68.04C835.291 69.576 831.771 70.344 827.739 70.344C825.179 70.344 822.171 70.024 818.715 69.384C815.259 68.744 811.963 67.912 808.827 66.888ZM861.07 64.968C861.07 63.496 861.55 62.312 862.51 61.416C863.47 60.456 864.654 59.976 866.062 59.976C867.534 59.976 868.718 60.456 869.614 61.416C870.574 62.312 871.054 63.496 871.054 64.968C871.054 66.376 870.574 67.56 869.614 68.52C868.718 69.48 867.534 69.96 866.062 69.96C864.654 69.96 863.47 69.48 862.51 68.52C861.55 67.56 861.07 66.376 861.07 64.968Z" fill="url(#paint0_linear_88_8)"/>
<defs>
<linearGradient id="paint0_linear_88_8" x1="-26.11" y1="146.5" x2="892.89" y2="146.5" gradientUnits="userSpaceOnUse">
<stop offset="0.139423" stop-color="#FEC78A"/>
<stop offset="0.307692" stop-color="#F8D2A7"/>
<stop offset="0.509615" stop-color="#FFF6E7"/>
<stop offset="0.841346" stop-color="#FEC78A"/>
</linearGradient>
</defs>
</svg>
