<svg width="393" height="92" viewBox="0 0 393 92" fill="none" xmlns="http://www.w3.org/2000/svg">
<path d="M65.0409 1.8V69H58.5129V7.368H57.9369L34.7049 51.912H31.7289L5.32888 12.648H4.75288L6.86488 69H0.336875L2.73688 0.455996H4.65688L34.8969 45.384H35.4729L58.1289 1.8H65.0409ZM89.0356 1.8H95.5636V42.312C95.5636 50.056 97.4516 56.104 101.228 60.456C105.068 64.744 110.444 66.888 117.356 66.888C121.708 66.888 125.484 66.056 128.684 64.392C131.948 62.664 134.444 60.296 136.172 57.288C137.964 54.28 138.796 50.824 138.668 46.92L137.036 1.8H143.564L141.932 46.92C141.676 54.6 139.372 60.424 135.02 64.392C130.732 68.36 124.588 70.344 116.588 70.344C107.948 70.344 101.196 67.848 96.3316 62.856C91.4676 57.8 89.0356 50.888 89.0356 42.12V1.8ZM166.589 63.048V1.8H173.117V62.472C173.117 70.536 171.997 76.808 169.757 81.288C167.517 85.768 164.093 89.032 159.485 91.08L159.197 90.6C161.757 88.808 163.613 85.768 164.765 81.48C165.981 77.256 166.589 71.112 166.589 63.048ZM198.089 69V1.8H227.369V6.504L210.569 4.296C207.625 3.912 205.641 3.72 204.617 3.72V33C205.449 33 207.433 32.904 210.569 32.712L226.313 31.752V36.168L210.569 35.208C207.433 35.016 205.449 34.92 204.617 34.92V67.08C205.769 67.08 207.785 66.888 210.665 66.504L227.657 64.296V69H198.089ZM247.777 1.8H260.641C267.425 1.8 272.673 3.24 276.385 6.12C280.161 8.936 282.049 12.904 282.049 18.024C282.049 21.992 280.865 25.288 278.497 27.912C276.193 30.536 272.833 32.296 268.417 33.192V33.768C272.641 34.6 276.097 36.584 278.785 39.72C281.473 42.856 283.489 46.728 284.833 51.336C286.049 55.56 287.233 58.856 288.385 61.224C289.601 63.528 290.913 65.192 292.321 66.216C293.793 67.24 295.521 67.976 297.505 68.424V69H293.569C290.753 69 288.417 68.488 286.561 67.464C284.769 66.44 283.233 64.712 281.953 62.28C280.673 59.848 279.457 56.488 278.305 52.2C276.449 45.608 273.985 40.936 270.913 38.184C267.841 35.432 264.097 34.056 259.681 34.056H259.105V32.328H259.681C269.985 32.328 275.137 27.592 275.137 18.12C275.137 8.776 270.305 4.10399 260.641 4.10399H254.305V69H247.777V1.8ZM309.371 69V1.8H338.651V6.504L321.851 4.296C318.907 3.912 316.923 3.72 315.899 3.72V33C316.731 33 318.715 32.904 321.851 32.712L337.595 31.752V36.168L321.851 35.208C318.715 35.016 316.731 34.92 315.899 34.92V67.08C317.051 67.08 319.067 66.888 321.947 66.504L338.939 64.296V69H309.371ZM353.202 66.888L353.778 61.128H354.354C356.85 63.304 359.666 65 362.802 66.216C365.938 67.432 369.042 68.04 372.114 68.04C376.466 68.04 379.986 66.856 382.674 64.488C385.362 62.056 386.706 58.824 386.706 54.792C386.706 52.552 386.194 50.472 385.17 48.552C384.21 46.632 382.578 44.68 380.274 42.696C378.034 40.712 374.93 38.568 370.962 36.264C368.21 34.664 365.586 33 363.09 31.272C360.594 29.48 358.546 27.432 356.946 25.128C355.346 22.76 354.546 19.944 354.546 16.68C354.546 11.816 356.306 7.91199 359.826 4.96799C363.346 1.96 367.986 0.455996 373.746 0.455996C376.306 0.455996 379.058 0.743996 382.002 1.32C384.946 1.832 387.218 2.504 388.818 3.336L388.338 8.712H387.762C384.114 4.744 379.442 2.75999 373.746 2.75999C369.65 2.75999 366.354 3.816 363.858 5.928C361.362 7.976 360.114 10.76 360.114 14.28C360.114 16.904 360.786 19.176 362.13 21.096C363.538 22.952 365.33 24.648 367.506 26.184C369.682 27.656 372.018 29.096 374.514 30.504C377.394 32.168 380.178 33.928 382.866 35.784C385.618 37.64 387.858 39.88 389.586 42.504C391.378 45.064 392.274 48.296 392.274 52.2C392.274 55.784 391.442 58.952 389.778 61.704C388.114 64.392 385.746 66.504 382.674 68.04C379.666 69.576 376.146 70.344 372.114 70.344C369.554 70.344 366.546 70.024 363.09 69.384C359.634 68.744 356.338 67.912 353.202 66.888Z" fill="url(#paint0_linear_88_6)"/>
<defs>
<linearGradient id="paint0_linear_88_6" x1="-47" y1="35.5" x2="435" y2="35.5" gradientUnits="userSpaceOnUse">
<stop offset="0.139423" stop-color="#FEC78A"/>
<stop offset="0.307692" stop-color="#F8D2A7"/>
<stop offset="0.509615" stop-color="#FFF6E7"/>
<stop offset="0.841346" stop-color="#FEC78A"/>
</linearGradient>
</defs>
</svg>
