<svg width="259" height="59" viewBox="0 0 259 59" fill="none" xmlns="http://www.w3.org/2000/svg">
<path d="M0.19725 56.592L0.58125 52.752H0.96525C2.62925 54.2027 4.50658 55.3333 6.59725 56.144C8.68792 56.9547 10.7573 57.36 12.8053 57.36C15.7066 57.36 18.0533 56.5707 19.8453 54.992C21.6373 53.3707 22.5333 51.216 22.5333 48.528C22.5333 47.0347 22.1919 45.648 21.5093 44.368C20.8693 43.088 19.7813 41.7867 18.2453 40.464C16.7519 39.1413 14.6826 37.712 12.0373 36.176C10.2026 35.1093 8.45325 34 6.78925 32.848C5.12525 31.6533 3.75992 30.288 2.69325 28.752C1.62658 27.1733 1.09325 25.296 1.09325 23.12C1.09325 19.8773 2.26658 17.2747 4.61325 15.312C6.95992 13.3067 10.0533 12.304 13.8933 12.304C15.5999 12.304 17.4346 12.496 19.3973 12.88C21.3599 13.2213 22.8746 13.6693 23.9413 14.224L23.6213 17.808H23.2373C20.8053 15.1627 17.6906 13.84 13.8933 13.84C11.1626 13.84 8.96525 14.544 7.30125 15.952C5.63725 17.3173 4.80525 19.1733 4.80525 21.52C4.80525 23.2693 5.25325 24.784 6.14925 26.064C7.08792 27.3013 8.28258 28.432 9.73325 29.456C11.1839 30.4373 12.7413 31.3973 14.4053 32.336C16.3253 33.4453 18.1813 34.6187 19.9733 35.856C21.8079 37.0933 23.3013 38.5867 24.4533 40.336C25.6479 42.0427 26.2453 44.1973 26.2453 46.8C26.2453 49.1893 25.6906 51.3013 24.5813 53.136C23.4719 54.928 21.8933 56.336 19.8453 57.36C17.8399 58.384 15.4933 58.896 12.8053 58.896C11.0986 58.896 9.09325 58.6827 6.78925 58.256C4.48525 57.8293 2.28792 57.2747 0.19725 56.592ZM32.1953 58L49.4113 13.2H53.3793L70.5953 58H65.9233L57.9873 37.008H43.4593L36.8673 58H32.1953ZM49.8593 16.528L43.9073 35.472H57.4113L50.2433 16.528H49.8593ZM47.6833 8.4L53.8913 0.591999H59.6513V0.975998L48.5153 9.168L47.6833 8.4ZM80.9763 58V13.2H89.8723C94.4803 13.2 98.0643 14.16 100.624 16.08C103.184 18 104.464 20.6667 104.464 24.08C104.464 26.5973 103.718 28.752 102.224 30.544C100.731 32.2933 98.6403 33.488 95.9523 34.128V34.512C99.6216 34.9813 102.48 36.2613 104.528 38.352C106.619 40.4 107.664 43.0027 107.664 46.16C107.664 49.872 106.235 52.7733 103.376 54.864C100.518 56.9547 96.5069 58 91.3443 58H80.9763ZM89.9363 14.736H85.3283V33.936H89.8723C96.6136 33.936 99.9843 30.736 99.9843 24.336C99.9843 17.936 96.6349 14.736 89.9363 14.736ZM91.3443 35.472H85.3283V56.464H91.3443C99.1523 56.464 103.056 52.9653 103.056 45.968C103.056 38.9707 99.1523 35.472 91.3443 35.472ZM113.82 58L131.036 13.2H135.004L152.22 58H147.548L139.612 37.008H125.084L118.492 58H113.82ZM131.484 16.528L125.532 35.472H139.036L131.868 16.528H131.484ZM162.601 58V13.2H176.681C181.631 13.2 185.94 14.1387 189.609 16.016C193.279 17.8933 196.137 20.5173 198.185 23.888C200.233 27.216 201.257 31.12 201.257 35.6C201.257 40.08 200.233 44.0053 198.185 47.376C196.137 50.704 193.279 53.3067 189.609 55.184C185.94 57.0613 181.631 58 176.681 58H162.601ZM176.681 14.736H166.953V56.464H176.681C182.868 56.464 187.689 54.6293 191.145 50.96C194.644 47.2907 196.393 42.1707 196.393 35.6C196.393 29.0293 194.644 23.9093 191.145 20.24C187.689 16.5707 182.868 14.736 176.681 14.736ZM211.526 35.6C211.526 32.3147 212.102 29.264 213.254 26.448C214.449 23.5893 216.092 21.1147 218.182 19.024C220.316 16.8907 222.79 15.248 225.606 14.096C228.465 12.9013 231.537 12.304 234.822 12.304C238.108 12.304 241.158 12.9013 243.974 14.096C246.833 15.248 249.308 16.8907 251.398 19.024C253.532 21.1147 255.174 23.5893 256.326 26.448C257.521 29.264 258.118 32.3147 258.118 35.6C258.118 38.8853 257.521 41.9573 256.326 44.816C255.174 47.632 253.532 50.1067 251.398 52.24C249.308 54.3307 246.833 55.9733 243.974 57.168C241.158 58.32 238.108 58.896 234.822 58.896C231.537 58.896 228.465 58.32 225.606 57.168C222.79 55.9733 220.316 54.3307 218.182 52.24C216.092 50.1067 214.449 47.632 213.254 44.816C212.102 41.9573 211.526 38.8853 211.526 35.6ZM216.39 35.6C216.39 39.952 217.158 43.7707 218.694 47.056C220.23 50.2987 222.385 52.8373 225.158 54.672C227.932 56.464 231.153 57.36 234.822 57.36C238.492 57.36 241.713 56.464 244.486 54.672C247.26 52.8373 249.414 50.2773 250.95 46.992C252.486 43.7067 253.254 39.9093 253.254 35.6C253.254 31.2907 252.486 27.5147 250.95 24.272C249.414 20.9867 247.26 18.4267 244.486 16.592C241.713 14.7573 238.492 13.84 234.822 13.84C231.153 13.84 227.932 14.7573 225.158 16.592C222.428 18.384 220.273 20.9227 218.694 24.208C217.158 27.4507 216.39 31.248 216.39 35.6Z" fill="url(#paint0_linear_50_116)"/>
<defs>
<linearGradient id="paint0_linear_50_116" x1="-215" y1="36" x2="474" y2="36" gradientUnits="userSpaceOnUse">
<stop offset="0.139423" stop-color="#FEC78A"/>
<stop offset="0.307692" stop-color="#F8D2A7"/>
<stop offset="0.509615" stop-color="#FFF6E7"/>
<stop offset="0.841346" stop-color="#FEC78A"/>
</linearGradient>
</defs>
</svg>
